<mxfile host="app.diagrams.net" modified="2022-08-11T11:36:18.934Z" agent="5.0 (Windows)" etag="tS5OJ5I8yTkznMFfWIGu" version="20.2.2" type="github">
  <diagram name="Page-1" id="efa7a0a1-bf9b-a30e-e6df-94a7791c09e9">
    <mxGraphModel dx="2521" dy="434" grid="1" gridSize="10" guides="1" tooltips="1" connect="1" arrows="1" fold="1" page="1" pageScale="1" pageWidth="1654" pageHeight="2336" background="none" math="0" shadow="0">
      <root>
        <object label="" id="0">
          <mxCell />
        </object>
        <mxCell id="1" parent="0" />
        <mxCell id="m_TZgIiwOxfVfVZ_Fh0c-116" value="" style="shape=image;verticalLabelPosition=bottom;labelBackgroundColor=default;verticalAlign=top;aspect=fixed;imageAspect=0;image=data:image/png,iVBORw0KGgoAAAANSUhEUgAAAFMAAAArCAYAAAAEw7SsAAAf8klEQVRoQ417B2Bc1bXtmqKZUe8ucpFsy5aL3JGrjC0XIECoxpCEEoLpCSWJyQcTyAMSCI/wSX4oyYMACYGAwXkEMC7Yxr0AsmXZstwkS7LqqGt6/Wufe+/MWDjv/yGTGd1755R11l67nGNTJBKJ8gWTyQR+ACa++SlfzWZe57cOVwSn+6Ooc0fQ4gF8YSDNGkVxJjA7x4IR6Rb+1oQwf2Tm74xGtDZ5kZ96s+pu7An9nuqM/2c2m1FbU4WXX3kFO3YfgNvl4mWOgdftdjtGjxqJVSuvxg033oy0tHRw7GrcRn8Jw4/1YfSnutCfVL1pw9KuGV9io4t/kfEbuMgsolGtzzhWURztAdr9HGc0Eo5GVMN6y5yU0ZE3GMSHDUH8sJqdu3mfIMZeMjoL36kRvDjBjDtL7EizWRCO6MDo7cUXSluwxJcCWn8JkO/97S949Imn0HC24QLTil9asWI5nn/2KcyYPT8GqNGPBpTWbmJ/iddiC8zxhIJ+BL1uhAN+1ZaQIWo2wWyxwmpPgS05hQ3xamzh4uMwCFLdHSGYhDpKZgqYwowY4uBNTwBvnAnhlyd4y0/UrGzQRKTIQP5K+5S30JEdrSyM4JlpSSjJSZLRxFfuApNLnLhMwGKx4OC+Hbji6pXodHbCYUtCMByWZdXa4YtGIqYi/0MwGEZ5+UKs/2gd8vKHxQA1wBsM3AWvh/wIdDWhr+kkulpa4OrtgY+ACkDWJBtSUpKRlp2N9GGFyBhTCntaNuepDUZZgOKF2C1wjGC2+QQW7aUPmp8CVCSMt874sXo/+RuyASk5vBbSlyTRYA1geSvE36VF8UapBTcWJSHVZhaMdXYYBhhnTSL1ZLJ33H4z3nz73f+RkYk3M3OysfFfH2HewgqECbwwe/Dr21ahjUNM1Xf2awSaasmPMPkQRSAQxoDLA1oq0tLTuKBWBViEfyflFyK1dDn70CRFtSv/8W+KJI52R8lMAVNnpvxQLb4phE1NEVy2awD4ZjPg6gLm3khAKZActKL8eQIovxKd4DssNyL45SRg7fRk2CzC0PPNe7A5Cgg+nxdz5s1Hur8fiyYV4YyzC84eL9rcA+jr6Ue/L8i2LMjJTMXovFyMG5KOw819+F9P/QrXr/z+ecy8kGkbIEvf0p+roxH+2p1IEmtUixC3So1wOmDqM8JpR2GfthzJ2cMTdDq+dNUCpk80U70iyoEI8B3uEMZt9sPltgKHP8KIw/9Cc9lNwEXX0vPQIZiDyIr6EDBZ4DHxmSjfIHujlAIZV4iAp4ZQt9yOMRkWhMhOywW00nBO8un3ejBtVhkWFDjw6h3L4XL54Kcpu/whDHj98PuDatLpyTbkZSZzchHc9vpWfP/+B3HH6ntpSCHet/yPjkSmrjSR7TjPHIGvdi9ysjI4PjoU9Z9AqjHOkBcZtvQb8vsQKZqBvLGzyERxQHErECodFc1UZi7MlIbEE5Ndfz/txS3fBIlAOigmwP5/YEKmA9ctmolxoTbYKF6N0RzUR7PQHM1Ad8QOtoM8U4CcNKPR5EB9JBl/nOXA/ROt7FzAjjuaRP0Spohe+qlVZWVzMT/fjGe/txihECVFJMJigoUrbLDFyqbMXMTeAS9ufnULrl19Fx54aA3XL8znzjfzwc5NkzIB04LWk4fhOboT+fnUQWmd9wQDA1QxX2nPANXn9sCdNRKj51zGZ4V4mnEqBotm9ggzdTBVR7wt43ntuAv3VvNR4gmrBTe1bcL90Z1YMHGIasQZTUNTKFutsi3qR4Y5ADsCSIYfPSEHvooW4Pu+JZiYk4Kt5SYUZDgIqDZgrX/do+t9mkIedFZuwU/WPodfLJ+EoqFZcHa7kJXqUGAGyUIzfx8g+w6ebkddlxuXTB6BbbXNiKZl4a5rF8M8pQIpBZOU3glYBpDGp5l9irYpEXR3YetHf0WKtx/zyqbC5fHIzDlV6SOs1CrIxeztdamxFgzLhbOrG5X13bjse7chiaZuNls1JyQT4pdqBaYyc82bC8bd3iAe+CaAd88SVUsSVplO4JnUXUgP9uKkM4DszHSMGZEFezSAaDCgvHlNfSuONTmRl5WFskkF6LAMwaSuK6mxFpxabEFxdrJygolBkSbgolcW+Boq0frRa/j8aBOumF6Efx4+i+pzTkqDFQ8sm4Ih2alI4qJur27Ch4frUZKbxXE4UJKfDhcloLwwC6lX3IW0CfMU85SmJ7y0vjQWhYI011M7cXjPfuysrsPsiUVo6ekjsyOYUliAaZPGcEom7DxQhdpzHcjNSMNwzvnQ6UaMHZaDS5fOh2XcfNhyR6oIRnPpWpypeXMVZ2oXuzi49xrCePCQDzPMXsy09ODXKdvR2MUwgiLc1NGN+RNHM3geqkzLzGEer2uBn2hZaRqp1FP7yMkoapqHxyfYsLbUDpuVoZKuRWohdYckhkVjQqD5CNo/egUNnX0opNltP34OXzd2w07zv2bmaEwenYtAkNrpCeJ4cxfqydprZ41RTsHlDWDIsDxkX/szJGUNTZjg4FhTHIyZ8eQAPIc2IOTpw8a91ahr6UJmeipOnWvHuIJ8TOBbbNTJZMHM5wN0fF0DHhQSyLmTxyJvyBDYSytgzWRfUbKYCAjhj5KZHZo314J20QwBpMoZxIyNHjxt/Yq6YcHNo5jytJ/Bs+9txqi8dPzs1qvJFKsKR6wOGyorj+Olj7bjuotn4Jols3A2kIlnAnOwZmYGSrKpmREqUUIAb5i6BqpEYUH07v4AnV9/iaH5mTh+1onffHYIT199EUYNyVQxJWUdWekOfPpNHd7aewJ/um0JHDRLc9EkpMz5Luw5oxRLDPYn6uV5NCVQ/taTiJw7jtrakwjQWXaSme9t+wbXlE/HaJo0TRUdvf2ob+7EoZNNuGHpRZhSPAKOrBxkFJfBPnSsineV/hJwA0wtNCKUckGTFBNqu3x4uz6M2bYuTOmrwmhHBEFXJ9b84QMUDcvCY6uvVzohYCY5HNi37zB+u24z7vnuElxWMQuN3gzsz5mH68enq8nFgtt/k5VoXj2C3p3vIFC1G0h2cNHpmGgtUTq7KBfDYLQ1iSbMBZf7Ib8f6eVXI33W5SoW1NyHEVDHQxtN1kTPNC8t3jnccw7tBz5H5bFTKmPzBgLISUvBnOkTYWPCcKCyBn1uN/wMRYZlpRPMUUgeNw1pxfPUwuotKR8jWiya2eGLZUCGczDjXL8PLq5YfnoKfJ3nMKJ5NwdAU2WqKHFOhClmlCsirKWwgTTVwiF5MYRos+ajY8R8TBuaqsIIw1teKJVUQEq4QpN21x1E/2dvwGyzKVjCNG1rkgVWqzhGi5qEy+1ndxQXziJCFDKW3YSUkoW6dGjeN87P8zmZKDF+dy8GDm+BLezTEjn+KsDwK4n9ibPys28Ls71kppLCvt6+XtiKZyNn3EVqvLKgWp6u9afAVLm5zkyj616fD94QvVi6DV6CYz29E2YG7ibxYCqUIXimMNyd7WhuakO9c4C6NQJTp4yFhVmSJ3ccAiNnI8uuB+wSfEq8pgfCiWau5cgap4L9Hej5+PeI9PfAQkA7qY07TzQhmQuWlcJ4QemQDfOKh1KH+Z15c8bl98AxdJzy4ir206mZ2JcxLyMRlL4iHGfz/s+Q4nMiNSUdDY2t6OjqRV52mlqohrZuRhBRzJpWgmS7DXXnWjBy0XXIGl6UoPlxpyoZUNu3zZzmS+SFZzaJ4DnASMsxRBsPM0xJUmNtbe3Elj1fYVfVKeUJy2dMwj2rLkV2Bqs4UcaHxRfDkiPeTs+WVHYhqaVR4Yk7Ic1+hbwapwYOrod33waYyAhh4uH6duw65aQZhjC5IAOLJhSwn2REmTHZS5kxLb6ZrBYm66HdIDMfrJdCwygZJ7FqBwP37q82wmK1o77VyaikGe09vUimmeczMsmgZU6fUIgUEsdJoGatvI+yJuPS5yGsFAvhp8SZbUZopGmmkfYZ+av+yTgwXLsbFlcHTdqOftcAnJ39Kv7LzkjBsPxcmBm6RAM+hHKLYCoqU3FYvBCgZxUJaWViIULAVFBILOjtQ9+Od+A/U62KDdYkJnyUCsmiRC7FUYaob5ZhRUhfehts9ODK7ITbEiAmBGDn9WHopm6a8qSfju/Axv9GpP4wUuxJcJP6bXQ8kq0NzcqEnbUFag26GDtPLV+KwhkLVSuJIZ7BhXhuPsjMVVSvBqg9KnqFCOPKugOI9LQo4EycpBq4qDcDXDcD30BaPrJnXMLLom/a7y/kxRPZopm5Eq0YoD3OVvSRMdYzB1RFyioFBzIqxCekVBag586+9A4MGcGYUNdk1YTeVKI2xkw8Fo4xIKNDs1qiaOgPoWRrANf01eCawEGMjHTCLPrPV4SWMGC2Y5+9FE+bZuO3s7PxSKlNTVeppS5ZYrwCr+TmrXEzj7MxUW+0IoQHu3dswxdbNuHWiwpRPDwVXo8fFmpJmKLt4MA+3H4Ib37TjMXl8/C9G29CcUnpBQsCiUAaXlz5RtFiMZmgl5kHmd/dDVfl5/BW72KqSemQPJKOL0jNzL30FoykiTsoBdms7qjIgm81sQT2/ztQxQO3sdi9vsGP+w+xbS/bdrjwZnADJvpOc9FM8FhT8XzyVdhqHg/0+VBRGMLfLk7BiLQkLZsziKKvoIDZ5qX5RxlnSJEjcRXluwBZU12JF158EbtZ9W5pbWfqthTPrb4S3raz8NDc7TQPl8uLn7y3H1ur6lSVaNLkSXiBhdv5NA2DoUZ7Wn6smbRW3iLzxTz5x5neMN5h2W9Jph8zM33ooB73VO9GuGozAvSm0dwCZCy8CsMmzkHQ7MAzp+2YlWfDLcUWpNILh8g42kyM4YmxplGnlb5O94Zw58EgvnQKIuy7vZuAAneNc+Kp5D2sknXjU0zC6r7lrPrwIaa1KMjDhHSWF8uSUD7crsYt/kT1xvnU9JkpB3qcGcuMhOJ6sfZo1de4+8cP4XhNDTIzMxW9BeAfXTYfd3xnDqwhN841NOG1rcexsbpehRAy6O6ebsyYPgNvv/lnjBxNT/tv2CKLKtsi7mAEb58kS2p5gdX8sZkhrJtNo2bqd9F6LqCfsW6oGV9EivHdpXPx0Kw0PH/cikdrWakiGFcOB343KwkTsskaZYaKNppf0xkiTkJCnk4WvMs/7cFJfwbZrj3HRBw43cwwz4k/p23DyHAvXjAtw7bOYgLJZ8YwIaC0STgxOiOMjYssmJTHypWKkLReKtvcqGVEkFAc1oIHebld/bjrrtXYuGkrcnNztXhRsiRxBtTIgrwc5GZnoKWjCx0Dbpq6cEJ7iefuYdX6zh/dimd/+2JMN42YMnGiTk7u4cog3q3jD9mG2gaRIjO3QqZaQqg+Rcr4pAYg2kz7HGvFz8an4ncNWjVfMYu3kRbGtrkWVIxM4iSt2j6UkTEoa5CFM+Gt9z/A7dX5wLTFBJFtayZDu+8HWCOoqP8vpAX68cmY7wNDK4AiFsVtdi0yoUNEWwvWWPfi17dfDosjQ/kWqXptYRb4zmsvGcVh3ZvqN2Uv5qe/WMugNVnrUM9ejDF6qZVepnmpycy9JXCXR2JgMgCmx83IyMC69/6GyVNZA9TriOK1tW0PbWEe/dqLF2r4h13NXHPXgoQqMvMlLpw5sEYzzVGBTAYDeX3pNNCkwpUcweEKK6bnEVCKqFF5N/puajyDBx58GB+PZ6G77Gb+xq31KWLLGi5O7MWK0xqY/yz6HjCVmV6mLJp0yreFoDLKWFr1e/zpl/ejuLSMGDO+5WIcYv3tTHunXjXS9zaEPX293bhh1Y04XFXFWIvoK4+pz0efgpYHaxVq475xSwFOdnbTifz84R9j7RNPn+eMxOQorTjaFcTUbaRVQIqUxmroS6KCb8NF6y0be0/GvYSF0cw1gruLo/jDnCQkMbFQQYxOAgH29T//Ef/4xwfomXIVKhc8wHsEMBZNELRT+1Bx6CVkhAbw8ZTVwMxVXFQC7udi2sVkOE5qeHnVS/j5j27E1atuifmEY70mOIN6OilTCLNeaGWFR1j5k4fXUCezFFAaKeIDkxKVFAOiUdLBxEHoRQx1TZ+36KfL7cKUyVPwyb8+Rqq+LSuoyR6ThVsjLx0N0cQ5UNmoi7109snumV7J0jyVCH4iqIlLp3+XZ8jOmiVJmJir6afopIzd63FjzZqf4sypMxgYOgF7yh8HsmjunLOSECudTFMVKnY9gzRunXyy4CFgEsuI3W18hts29lw6KZp5zQZUnP4rrly+GA+veUx1rAXtTGZU0J6w1eshANevXIlDhyuRmpoeK7IqMmiUo3aximRmw7Y0BuosoHKXz5SUqucgCbAQUC/Dqtdf/T+4/KqV5216hSJBXPdlEJ+2EEhKggJUckRlIWJ6g2whZuZ6ri8Dkq/yHOVGIcdQTWoEb82z4LbxEhNqGxAC6Nn6k1jz6FruugwwEkrD1pJ7gdEzAKbMpDH7p5y1HkXFtieRHhjA1ovXwD2eMXM3vTnBhZXbvU38dG7FJWf/iblzZuHJp57VqvGq0EHHb5TgpDYprNy7aytuvPUO7thFVJktVrFWQMoEuLecNxmNy+5kuDCZYcUpFG5/FabmY4zVWe1R3k17NEBHEmQ7r7zwG1y36geK+ZIAiN43DoRQuIkg+gkgtyCULmYxZlQpqK6fsXWJqbHWsKHfwlzRC2ZjrFBQ38guXwT3lZjwh7l2FV1INUmKKM0NJ/HYY4+jjQ4Tw8dhy5xHCT6di/SbLEUcuu3WI1jyxX8gPTyAI4seQYOAGaCZy6Ix3WQJCUM6PseMmvUomTwRz//ni7A7mNpyjhJndnA6WqVdN6MAy1pvvfAEXnxrPTzUCluS5iyU/jALMqUMQf2tf8TvVi1AbXsA/9XElW36BoVv3g2TpJusLqltVP62MDcdTz54Oy6/4+dqA0x0XpGJgO9sCWLJdpqYFE36uaTcY8HwLB0o3Z5jKY2YvL5CGppxhyTfW3pBb8c3GcamFg6NYEOFAxkstEhlSaIEk7cXNZvex18+3oztzGoOLaWZK8elm3kSF6LlKMo3P4GcqBtfLvoF+sev0MBU2s12HGkYf/R9TDz4OhbMK8ODjzyuqkri4KTSrjNTti1Ek0TEvTCf3YOtG7fhibc+QVOXi4wVW6LB+PrRM3kZrlz7Gv5SnowNjX5cu523HBaMfudumI98ztXOUjny7DH5+OUNSzCtYjkiRQvInBSls2EOTFK5t08F8MM9ZIWDbfdzoCwwYCTBFNrGIgdtIWN/xxyPTlkDjFZuSXMPHSS2CqvSI2hd4cDQFK1wK87H234WOHsAvc52vLynBb/OuQXIHa1FBbLKNoLZWoP5m9YiL+LBp4sfRXTcMoIpu7Eck0gJ8/YH3OtxU2YTJlRchexJC42lPb/QoTIRKZr2tSF6ciesdC4Hd+zEY+v247izD3apJxLM8MRynLv3DVyRa8fcVBY2mN49dTKKvNdXI/3EdqZ7achPtePPtyzE1KkTuGVZBOukpdzozFcryF4UM5/mtsiTVbLaHCjHi06a3wjuy0turKw6RkVDrXVq6o5I3eZvmdbCSVbnCphsTwrJSRHUXWrDmEwe1VHb1wzVzh2F50wlLCEfTjT2YI6bzsVSwMXXtdpGzWypwZyNjyHf5MX2JY/CM3YpweRCiTm5ucET8OKTjE+xJI+EY8XdMYFgqhxd27bQdieFl9phIxYyzjEb2EuC9mOAOvPIu/vwWfVZpDskheJxFZpDw7W/4h4699FTonh4jAmvr/snsv++lhmRh8TgPhBTzJdvmoMyVq3trO6YSypgzubAFUCSJUVwz24v/nRaGMG3hHudTOmGkFqSuqnUwsBTTFr/w/CCxtEcYUwfV4LpIU8n8Le6+VvCqL7EhlIe01Fhq3jzs5UINNbQI/dhS7MVN1gZ9iQRQGlT+hMzbzuOsk9/gaFmH3YsWYuBcRWUDbYviyYZEDOKpzwbcF/mcSSx6p4yuYJ7jow92Yd2CCFRM8UzOTVzCLHT5qNVuP/ve1HZ2MWjLhpjohKb2TPQXnYVvMOnAlzxokOfkCHdMJGlxk7g41dMx6rls2HLGwXL+HKYhzA1k817ohSm6F+/w4uPGznAJDbq4mC7KTo5nFA6J6jHtZoN6QjGgFQCriEtGVMXnY8wO5MLwaM5SqoYdh1absOMfPHomsX5CKa/oQZmeuaD9S6s6KRzsTLcyaDmp9JTs9CMjlrM/uQRDDf5sHXpE/COXayZOatgipltXfhpym48MZ6+YcRkpE6lxVG+xEeoU3DfArOzAajfj5C7GzWVh3DfX/fgbM8AkqVeaVgYwYh6+hV4LC4qYU4E0svs4+5FE/DwNfPJzNGwcWvUNHyy8npiFrLLuewLL/Z0cOI8lggXB9vbx4kRVNYRY2ea9ExJKaShnQaock3A7KDW+vjJHUawEKEeZBp6aJkOpmRC9Pi+piPw11chyt3Jdc483G3iYQJJT8WGJSIQM2dkMvPjn2GYxYcty36F0JhFGjOZ8oJHdFh7xN3ZtXgyvxppI4rgKF3BlFIiEA1M53lmrm80mWnmIW4h7Nv7Fe5/dz/P+fip03q2oyamZT/aVq0wRSYRD188DCGumF6I536wEJmji2EZOw+mEaWMQnjqggOXImzZZh+Od7NNOiPFzD4OlgdIlCORQFq9DN1M9O76LflQZ3kIZlAOlpFZAqZIgJmTW2HDFFaUJIqQPr3NNQjWfUPZ8+KH9aX4zMIYkzIlAKlwjNV6lt4x478fJph+bFzxH8zLywkmNUjYLo6KoV9p4BzeT9mAMSNzYZ1yGcNTxtdk/zEOo01tqLEEp6otYuZ0QDi5C6HeFnyyZS8eXc8BqHM88mAiZPFJGTDqOMPDk7AzC3Px2g+XYMRExqIE0zKSkiDVI/43QM9YstGH1j4dJAFzgGDK5PJ0MNVpM2ON4gsV61UWUJjZTkooMMksAVPqBFYezKVmjsuSHF0268zwt52B/9R+sqwHL59IwVoXTZi7oMggox2MMyUDctZj+vqfYDhPqGz8ztMM6hmFiJlL99yf58Bxc9JXeHFULRwjiuGYSmaKPHAsmpkbG2qyfSnF2X4nvfkOhLoa8fbHO/DsxiNxK9OtzZjQBaaoVjEg26M8EvOn2xdj+kWzEB27AFaCqXYhCVIfY9CJn3MXU0CURuQQ7QAHzS1lDGEgza0C7SX6JyuoA2uYuBHGCWM65MgjnQC3nBWzBUxHGM2XOLghqO1oyrwCnY0InNhN59yHP3YV41cRbkGIBcjzapeVC9LVgKkf/hjDaeabv/MbgjlfY6ac/PPQhln8Xeo4gzcLKpE7chTsCkwuhmRAPLjVYRx2NbYPou4eRAimv+UE/ve67Xhl2wmeUzR2Gc83vkRDTDRIqXrbqLEv3jQXly9fgPD4xbAW0MwNMJmlDCGYATfBFHerwGQIEgNTqqw6mIZQxyK6QQ6ITgFhAVM3czY5PjOCfcuSkZOsjVuFRn3tCBz/Ej3U/6Vny3A6jWcebVJWZHvKzNlGdyNKP7iPzKRmXvEcMGquFrQL2DIekYRwP3Ykb8KcMamwTKaZsywnfWjHsJU31yrtql0eGTQf3wZXQzUe/+s2vP9VHdLtWloZL2Mk6JZCVPeiMT7J2fYIHrlsOu5ZyaB9CldwaIkqV4l+9VMGxm7yoUscjwTZHnbMnPl8MHXQVIFFr/gOLnyI42hlSBUhK+WoNGugElJdOtyEDy+WI+H6jiiZGSRJ/Me2w9/ViluOjcHGCDVTymsiD9KOMLP3HErfvwfDeKbvi6uep8cu08GURWfbHi5ybx2+Hr0PUxhDW0rozdm24Bw/n8lCh/IhkstKwbRmM7qPH8CPX9+CDYfreHgplQVhHj7Qa5IGlBJyJG5LqOu8JgXsbrcXd148Fb++80oklV0Dc+6Y2O8H6ICyyMxov2QW7NgrWRC9eQoHPJThihwnVPm5wfdEG4gJqZaZ8KyQAtNBcxMwuT53jo/i1fnJipGGxUUYdfirN6KntRU/6FqCnRjLvhnsS/wo7XC7F4yxS967C0PJvp3X/4FgztHAVM6XbUspjgfYduV/gbmljJ8nMH7WFehID83cONGh+WMpq3EidEDth3bip29/iUqe+7GzQGv8A4JvbZ+KU9EHbexESqXGx9piRUkB/vPe7yJ9AYuxGcPU6opmyjbFldu8+JIeUO2EGWCmcmR5TCnldIhe1tOC2wTt1AevrEEYpTSTDBNmSh2b0cHvS814oJQn79SxGl3ZCYifUUr3WYY23RfhDQs3yuR8vkxMtUUw+1sxd91DTCcHUH/1c6gZNlMrIEucKe3Q3OdE+/Cy40tMnzoOlsIyVRCSsVYxaHeKAzL+6YpRLzQxbfRz26KZWYmHFXVhoLHCxlwGGfq3/pSDDGn0kiN5asySkcfxaAcF5CV1ANlmlVMjcpZc/fsCLqKVg5ITc7qZxIGQX9IRab5IiyokMRW8A9y51IzKonyJ2vNOMSE3mXGxXE/gd8jnRtQ/gIEwDyAgiwct9PK2PCgUo+Mzd9WrVDpMSwqx7GY2jvfIuvOdFfUwQ3LDnJrJKiTrDbrKxdNJ+XdA0nGCWfz/gvb/AlUZpVr8+GkOuRY/dzQ4JjD+HtxyIiyDYTKejf9WqzVoebP2El3X9C32t/qSwN6Eu/FnEqXGeF4PrbVamrLoIzSQTiqk/g8EjNMc8qA+AgFBmb52hvtCZ4UudM0YbuJBrVilXi8MaNOL96OiIP1eHPiEI4Jq4MYhGO1Te8VPvhkmrbaRY6AZh6sETF1DVd/aVrNhBQYoCnMjYEjgtXE/ccdBqzNom3WKmeLNqzvF9+rRSOJiDSbDhe5965o+DdWJfiIt1o4afQIzjGc14iRyxhi0XDZgTJTR8xg12FcZWdl5pNP7HkzEwcRLNBSdTGppDIeo7p//I1lYqhYL4Wb8X7PXWh0WCtYeAAAAAElFTkSuQmCC;" parent="1" vertex="1">
          <mxGeometry x="-1620" y="640" width="83" height="43" as="geometry" />
        </mxCell>
        <mxCell id="m_TZgIiwOxfVfVZ_Fh0c-117" value="MTN-play Developers" style="text;html=1;align=center;verticalAlign=middle;resizable=0;points=[];autosize=1;strokeColor=none;fillColor=none;" parent="1" vertex="1">
          <mxGeometry x="-1648.5" y="670" width="140" height="30" as="geometry" />
        </mxCell>
        <mxCell id="m_TZgIiwOxfVfVZ_Fh0c-119" value="" style="shape=image;verticalLabelPosition=bottom;labelBackgroundColor=default;verticalAlign=top;aspect=fixed;imageAspect=0;image=data:image/png,iVBORw0KGgoAAAANSUhEUgAAATgAAAE9CAYAAACfsn7ZAAAgAElEQVR4XuxdB2BUVRa96b03SELvRUUsiNgQBQsKCohdEVzsgKKgomtbxd4bimBBrKhgQVCwAooiIL0TQnrvMynsOe/PD5OQZJJMBhLy3m6cMPn1vvfPv/VctwMYooeWgJaAlsBRKAE3DXBH4azqW9IS0BJQEtAApxeCloCWwFErAQ1wR+3U6hvTEtAS0ACn14CWgJbAUSsBDXBH7dTqG9MS0BLQAKfXgJaAlsBRKwENcEft1Oob0xLQEtAAp9eAloCWwFErAQ1wR+3U6hvTEtAS0ACn14CWgJbAUSsBDXBH7dTqG9MS0BLQAKfXgJaAlsBRKwENcEft1Oob0xLQEtAAp9eAloCWwFErAQ1wR+3U6hvTEtAS0ACn14CWgJbAUSsBDXBH7dTqG9MS0BLQAKfXgJaAlsBRKwENcEft1Oob0xLQEtAAp9dApQTYnMMNP63tUy+Bo1cCGuCOlrk9UA50IjwdOirKy6S4qFA8Pb3E28dH3Nw9qmxUUmIRH18/wRGEf2mOn2WWcvH08WjQ9VkrDogbbqbcrUJ8PT1qvS8Ko2bJHS2Lo/Xehwa4o2TuS63FwDe3yh93glgtgHdQZTsg5QC/svIDkp+XL27evuLnHyDeXu71kgo1Pau1XAigfn4+de5jLa0Qd3d3Ac40aPAcFRXGrbjXgELl+Fs5/uPh4S74fxVttK79ql+EZ4OuSm/cUiSgAa6lzFQDrrOsrFTYDZKAR6AjsORkZwKIytX3Hp6eCsh8fHyrAAI1N3NA+VGgV1xUIKWlVtn473qx4rO4qFjyCvLV3wqhFRbh36WlpZKRlQktyEAge6A1MbZ/v+NxPm8JwHmDg4MlNCxUgoKCxT8AgOrtIxGRMXWCJK+nJoAzr7cMF4/bVEDIRpgEN476AqoGuAYssBa0qQa4FjRZ9b1UAlw5wIyD4EbAoXla26CWlJWZLXmFebI/MUF2bN8hm7dulZ27d0tKWqbk5eaLAk2gBo9bDkArpdkLVLFabOcyEQXnc6cmyfMScXgNbu4SFuCrgNUboBoIgAvy9wW4+QHUfKExekmPbt0kLDxM2sXFS7v27aVNbLxERkbW95arbEcwLIdWqu67nhqjBrhGibrZ76QBrtlPUf0ukFoWH2gPD0/1WdegNpeanCiJ+xIkISFB0rOzZeE3y8QKkLKUlOAHWpnFIoU4ZlFhiZRaLeIXEATAMo7qDlWKvwPCFJhx+EMLqzyrzVSmOmV+t23LVmNnfgew9QKoeXl7iwc+CYTBft7iC/ALCY+Q6IhQiW0bI3FxsRIPwAuDtjfglEEAxCBof4H1Eohp2tqbrXXtqAGuXmJtcRtpgGtxU1bzBTOIQO3Iw6NmlWX5kq8lNS1ddu7aJbv27JF9+1MlLTVN8vPzobnB7MSPO9DAG8GGAH8fOOU9xdPLG5qfpzJzS4qLDLCqBl4KTPGTA7PVBDsD+AwANP2A3gAzmsfqB0BacaACnwekDP/Gb1KCIII9gPrgPvwQEPEPDJKAwACJjgzDT4R07tRJevbsId269ZD49p0kAFogB31x1cGMIKcuuR5zrAGuHkJqgZtogGuBk1bTJZsPs/m3zPR02ZewS3bu2Clp+H3BV99IQWERzM1cKYGGZi0rqzwMrUuCCJ1XFfzBFwQhK0CoDD/lZQckCP6zmoapLCrN0dygBg3Ox89fHZ8Ap46P4/LT/M4LGiD/Vg5T2AqNsQhmcDkA0ANI6QuA3btnr/gGBUl82zbSrl08AK6THNv3GDn22GMkNq4dtLtA8fX1Vz69+mpt9vejAe4oeRCq3YYGuKNkXk2TrCA/F8C2W1b/+Ycs//kXWfXnGtm+dZu0jW+nAMXTE1oatTOlmbkrQCOYedgAplLDstOyqGF5QqNSBqcZqaVmZPOx8TsrTFqbgqd0JhP4TCM1I69Abc9oJ01cApcnVDbPyg0ZEDGCIkojswVEjGO6IY3FV5nN2TCZC3KzlXbZNgrmbGyshIcGy7NPPQmQDpKQ0HDxh3+voUMDXEMl1jK21wDXTOZJaS9w3Nv70EyTjkDkaKxft0Z++X2FfLt4iWzauFkycvLgzA+QAAABgaWiwj5G6uhoLe/v+RarhPr5ScdOHeWM0wbKBRdcIH2PO6FSm7MgncXbmyBd86gN4KhNch7sI84tTzqt94o1wDWjuafpWA7Tkc53pk7YDz5o1b/LSE+RzRvWyo5de+W9jz6XDERCM3OykL5hUVFKPxyHqpRKD1H1CUfvsDJPBMMbYdOwiCjp2b2TnNi/v5x00onSHr662Pj4Om++DMnObm4HKqPOpgbpC5+kHi1XAhrgmsnc0XysrqlRczBTPswHjdsxArppwzr59bffZeXqNbJ7zz7ZDpCjmRkYEiLhcLyzYoGDpmMh/Fr+MEnrGm4tHAAJ/gSlYtxvRmaWCmC0j4+Vnr26S7cuneW6a6+V8PBIiW4bV6OPrrp0+EKhrDXANZMHpJGXoQGukYJz9W5m2od9/tre3dvk159/kl9/XykbtmyX1JQUJPBmIwJZJjHwRTHPzMOW70ZnfVlpGRz15SpS6V1LdNW8j5YOcG7w51HzpbyY5pKZhyTkgjxEYYMlBFHhzl06Se+e3WXoOefIqacPlpCQoCpTWBf81/TycfX86+M3jQQ0wDWNHJvsKIVIt6AvLjgkrPKY1OLeePVFleKxfgMScHftlJTkFDjefSQqMkqldlhoorkZDvpSmLmFOAYDCAEAPR889GW2xN+aLhQeOvimWrYJS0ALg+bqCz+cGZG1WkpsGmyZZCTul46dO0qvXj1l4ICT5NRTB8oxx/aX8IhwJZIKaynAEfWqLF1DBNc+5YYvGy/4MvVoeRLQANdM5swsr+Ll2D9Mq35fLt99t1g+++JraGNIrbABlZutbonaBbMtClhYDoDzZkABYFWGf/OTKRbMjVMpGbUNFKN78M/wQbXUQZlZrVaY41aVf+ePBGJT++W9lwH0c4pKpBh5fyGRodKnaze54LxzZcxlYyW+XXux1+CYU8jBcjYFfjW4D1qqnFrbdWuAayYzzuqC0LAIdTX5eTmyZdN6WblylSxeukx++20FNLpgVdLEB1lVAADILHigGZjIys6T6DZtAWhVo60q14zRWXx6mFm0Nd3vUQBwDCxQ+80rLJC8/CIF6kxY9kF+HhOQA1D3yhSahP3JUo5qjYDQMDnmmD5ycv9jpUePrnLh0PNU4rCZKG2B9qcjp83k4XDiMjTAOSG86rs6w6NWiCTcgAAkw2J8PO89efWtOfL3X3+rfweHhEpkRJgqoyosRhIsNAyWOgX6wxzDJxxv0NXcUB9aLkXQVFhs7oN8My+TUcSWwFvbrRqwaDNTDzDXDQdoYZ/IoMM9UAru+C8TiY0iCv6b2J6DSo0AH7wgPJk2I8o/WQRtryjfCvPdIuOvGi0XXjhUzjhjGMrS/FGeVooXCcrI1FHr5slrwiWkD9XEEtAA10QC5UNQF49adT6zcisqBAQ0Q9DGzAy1ZUu+l7fnzJW//lqDB9IioQE+0Ci8KkubartUYhELo5wftFN5nNb16QYN1wrfW1x8nJx7+iC58pqrpFfPPpXzWVBcLIHw7XGeoOzC32mVA6juIDmdt4cPTOH6lYM5Pz/6CA2VgAa4hkqshu1Nz5WjVFoLop2s6fQlVRGSTjnIk5aVkSoff/Kp/LvhX1n913pJSE4FsLlJGDPyoYaUQCtjbagerpJAhaSn50JLDpJ2HdrLwJNPkAvPP09OOHkQ0kSM4AJjOMxRpNlvuAiMayFzCaO2QQBAPZqfBDTANcGc1Bfg+DCUFJdUlhKVlFjl++8Wyo/LlsuPy1fAn1Yk2UVwkkMjC4X/iFUNDD7kFltVhFAPV0mgQkWe8xGEsOAFFB0ZLj17dJfzhp4jl1w6CvRNHSpPzIoIDvuqCM6rd30q+l11+fq4tUpAA1wTLI76Apz9qfJQm7lk8SJ5590PZOnS5eIXFC4+/t4SAo2BgQR3+tWQw8aE00I8fIE6TaEJZqq2Q1RIcFAofJv5kpyWIYU52cqv2e/4fjJ0yBky8JQBMvziSyp3JnNJAaKxTMwOCjIirVq/duH0OHFoDXBOCM/ctT4Axzc/zdJS+G52bN0gixcvlqXLfpJNm7eCZDJJOsA08oS/jcm6RnkVknRtBeemo7sJLlUfokYJVIi/H4AKgi5DzltWQYFkpqaLP9hLOoCTLi42Ru649WbkzfWTuHbtKo9QBI3PLOzXANc8l5YGuCaYl/oAHE9TjAjomtUr5ONPP5OlP/wkO0BlFBwRKXExUTBdwcZh49tmNLQE2hvTG/yRpEvmD+Zx6eEqCcAPmlMkEaFIFIZ/lAwo9KsVsVwL4VjmErYFsA09+3S57rpx0r5Dx0MuRAOcq+bGueNqgHNOfmrv+gAcTdJVK36WTz77XH7++XfZs2u3MoPatYuVQND8ME2Eg2VVZNZVZg/yGRhcYG6WSUHeBJerD3GIBAyA8wvwVOwrZBnmy4VBBfrmispLJQvU7b179ZJzAXKXjRktJ5x0SuVR8vLyJBw07Ho0PwlogGuCOakPwM17b658/8MPsvjH3yQ7JUmi2sdJm4ho9RDlIwHV08NWCmTjRzNpx1lwr0ghm+A69SFqkwCK6n1Q7mYpEtIuVSBqEOANzjy8WCh/CzRqb7xsSEEVg3zEIeecJbfcdJP0hcnKUQCTNjSwflTqeg4OrwQ0wDWBvAk+memoRAABIwdNUbON3rYtm2X2O7Pliy8X1XkmcNc2wZXoQzROAkhyVtm8tb9GmJcYGRKoOoilA+iO6dNLJo67RkZddqWa69pMVGreuaCwCkelhR6HXwIa4JpA5uZjUYIAgsFWaxx0187t8v7778m33y+X7Mx0DXBNIGvXHMIxwDEXMZDccNCwC5BKQo2u77F95bqrr5DzLrjokDw4Altt/TFccw/6qDVJQANcE6wLE+DYuIVU2oyWsmPVa6+9Kl8t/Fb2JCRKXNtoDXBNIGvXHMIxwPG8FcgPYWkcGZJTMrJUAOKs006R0SOHyyUjRoEuPbTy8pi/aPakdc0166PWRwIa4OojJQfb2PvgmA6yc9tG+XD+fFnw5deyZ2+ChMN0JbtFXUObqE0wEY0+hGOAI99cBvrD+vh5SURQiPKdEuTCkQfXFk1wbrrmcrQ2HCA9+xh+OT2ahwQ0wDXBPNgD3NbNm+TlV15Gb4Slsh8lV3Ho7xmAjk9MO9AA1wTCdskhHAMcYz3F1MqYugP2YJZrEeQKMK95+XnSv3dfGX7eYBk/YaJERMW45Cr1QRsuAQ1wDZfZIXuYAJe4f7+8887bMmfuB6rNXSSKt6NgtpAFhDWMGuCaQNguOYRjgKN56o3OXoxoE9TYTjEEkVc3RFrZGDspYR+YSAbJ9VdfLiMuHSOB0PI46IsjiWb1fhouuQ190EMkoAGuCRYFAW7Frz/L199/L9989wOawOxWCaMRQaA/whufkTcGHzTANYGwXXIIxwDHdBGCFOc6D3RVxbb6YKP3RYVkw1wNCPCVbl27Kp/ciEtGSZtYo+qhpoZBLrkNfVANcHWDTN28X3Xxgt16+62qpnTH1p3StUcX+N1iJCMtBQ9DiUSA/9+K/KpaedZwUQfqIqSs98JtXTRHB2md6i2gWjZ0DHAMGFATYzMbBhlYh0qtnNHVEku5dGgTBTaYdVIOH+wFw4fJPZPukDPOOU/xyZFZmSzDta0fZ69e71+7BLQGZ5ONIz63InD++6PPKLPV7Hnfkvftk68WfSXPPf+K4ohsHJ8aEQ4PAWtQmViKh4bU4yy6ZxMZVXSPGkkengnAZjNlpv+q3qn8nv9tgUSVTUGsacq9LidAFlhc2PTaB0DlwybWECb9aortWDEeK3ZMleRbQpMS8vchwQG+Z5mc2Z+6tkeJAJiHRGE/rJBSkMZ1ad9Z7pxys4wcMbpyvRSSSRhmLtePBa0d3bw8xM/LUzUOCgs72INDA1bTSUADHLHFJk9HfG7VxU5+ty8//0g+QvnVBjSDcWawJbG7evCMEiF2w+JQrQPxAPqCibYS0Ahq+GG9ahmIMyvw91CYRy25p4IzsjPmD30n6jgIzUsSGLD5DisTyolu3AvyZt6in2I/NuTNOTA7dLHhDJvXOBo8HLU61g3T51pUUSaD0JP1zkm3y8BBZ6jduV58fA6mBNv/W9eyOpJw4/6uAa4BAEcmELJNMHOdj8fvPy+Tl19/Q77+ZqnEtm3buBmw7VXM46I21WyUQnNINUsBeNG8oZnD2lQ+fB54GAmGKs9KgeIBUY1SWnDTGGeEVx+Asz++UtYgSwISZaiakVkJfqQvB8kB5E1WF1WPSu0ZbJdsKF3X4H5+SATmfJSAAXhfUrICuzGXXiTT75kmPXr1PmR30i6V4djMm9QA58wKqH1fDXANADgSG5qxgo3/rpM3Z82S75AOsmfXHunYpatTM2RhIAIPnrcN5JTpCYCjv4fJw/mFeVWOrx5C/E2ZrNQ86tRfnLq0FrEzuzFUb7pjf+EpmXni5esl/vjhi6TSHaAoqcolGGkfZaSoYpcyzLMV35XjhUYT0hd/q7Bp1LUJw6x0oMbHQeDctz8JaUJt5NxzByPp+43KXUl0ajIFm2V9GuBcs8w0wNUT4Pi2NUuwMjIyZM7st2Tuex/KbiTychGbPUkbO03eeJBo2lBjI8gRuCzIu+KgeRoYHKJ8QdQgzW736mG0GdiONIzGXldL2Y8AV9fw82cxPF4DADSCVTk0JwJaCWRIP9yBMvjhPN0kyAs5boiM0k1gQfqHF+bCn2wvaCJd1yDABSNyzggr5zAmLFJK8HtyZrbEhIfKI/+9X0aNvRoF/FWPYvIEaoBzzUrTAFdPgKN56oUHIBeF1ou/XSiz574vP6OdXxDaz3Xr3AkR07prTR1NnxdMm5T0bIBckbSNiVAt66gNFKK7EzU1q40qm0EI9mugZuFNrjhUSDAQUVyc7+gUR/XfHQGclb43AJulGKY/gwhomh0K9mQfmJVekHVudobkFpbA/eANZpAgZWoWFxYqE9WLgR4HeYw0UUl7VWqxSCbaFoaAcp5+vFK0diS/XzDolB6aMU0uHT22yjyYkVUNcK5Znhrg6glwFH9+fqH8sOQbeQfg9seaf5VzPyo4UPlrLPDhODMOgHOMdNlsStyvd2/p06sHQM4HfRpKlC/ur7UbVGPjYvDGWZFoSp6yMpsGR3O1tWtwjmSfBIbeAIBMeGCAhEVGSVR4iEShhC4YrL1+aBijZPz3Wtm6c6fywflB9tSY80oscBWgRwY6nDka9OvR78Z5ysJaYRmXn78/QLVYdu3eIxePuFAevP8+Oe74E9ShTHDj7xrgHEm3cX/XANcAgEtKTJSnn3lK3p47T0rAyd+jV0+lPe3YucvJIAPMI2pp0Njad+woYy8dgWYno6WNLXBhPgjp6emyfctG+XP1X/LPunWyeesuSUGuXQaAMT4WZrIetUrgouHnqznq1bOH9OpzjLRFEq7pB+NO1NDffO1FaObzZD/AMCzQz2BShm+UrgBHidpsEJQKczQqNBi9NfwlJy9XkZXSNCbfn7etp8boUSNk6tTpaPJtVDpwFAMAdVcu1yxeDXB2AMdSK/+AILBCGOysNEfpf6FpyvZ+N980Xr5DH4XwwGDloylE+oAfAI6jLge346mrQCTNW7Zu3ijnDD1X3p71Jrj/O6jdCmEmBQQE4Pwwq2CWmqMcnnC2G/xz1e+yYtUfqKBYhkYoeZKGh0xVUSBnj74kKzTALJhMkaEwu2w5XQRSX5hl3K4Y3eB37kmQ+LiDAEkNRo1K8k3WYZapKK4ngxq2RFdGIdXv+K4IFEJ0zhuygK+LzaaZ2GLL3YiApsTvDigfGB353PigDhOIzvP0LdKkU75Gggoug8DvjvPuwkukY+eOEhEdo/xnOVkZ4GXLB5NuAMqigpUGxM72ySmpKtWjS5fOciaYPkZefJEcf8IA1IfWzcfGpBxzjt8DyHXG/j7Q7BKSUqQTiukd+eAczTEDRYk4FtfNHbfeKE/MfKrKLlqDcyTBxv1dA5wdwBWAqNIXKSA1uau/+PwTefalN2Tt2rUSj6ACHdUFAIoAAFwpaXQQCGj8MOAxOT1NLrn4fHnuuRckwkaQaAKcGcElsBEgvGze6lI87Okp++Xnn36SDZs2QbtbI9sBBhmZWfAPhkATCcQ9+SsTKRBgQJAqBlgSeELQxcsL+WEEKDPzleDA4xufjDAy545RQUMqtvQxJbWDvwteBDZGW1uOnmIittuBzncFfrbveU6CpQJTlfrCjvTGMSv3PYixEhIWIQXQigjWdA2EQ8NSuW24VpbC7dmxA9pve5RKdZN+x/aWE44/Hnxtx0qHjl0lKDjI4dSYOZD3Tr9Hnn3hNWkfHwu5+UlaVq60iQpXAQNnBs1X+vG4Zk485hh56MEZ0v/EkysPqQHOGenWvq8GODuAMxc5wYQPmhk1JSvv9Pvvlz/XrIXmkCNxbWKMhx8b0v9WiGibnxcSbRs9KiQPGlAk/HlXXzlGpk67XwGmtdSi3vh+7PhkG/yOWg4d2N6I+NmP7Kxs9H34FT1Wl8va9Rtl/75EybWgMNx6QILhPCeXGcGOjvMimNgZ6BNBDSgIheGF0P7UsNPazH7t/MobGh+FUqmF2QGhEpaZ6m/T3ChDM8JrgprSAAFkSiuDE5+EkEYen7tsB0BRy/GDjywYzn/mAzKAYnKq8ZoJMmTWVdFOH7RWRCpGCf1d2bkyoP+x0qt7Jzln8GA59fQzYd7H13s2zCoW7vDe3Hfk8ZnPSAG08yAEIBhJ9cUno9fODloHzFckKA8dOlgefOAhiWljaM4a4JyVbs37a4CzAVxJSanKk+LIwQND09Tby10RV747d46898FHiI4VoiGzr3L+05FcmbmOyJmbuzNLtEJSob2dgo7qU26/Sc4fPkpdR1FRgXrICWR8wJngy8Hfy20pJCaw2IMdTa0N6/6ShYsWytff/Sjr/v5bgqOiVV5dOEA0APfG/dOy81QheCRqZU0NTSXA2sxQHtvU7lJg+tY1rPAjcVBLMXL4qI0Z9ikBLgBmJM1ZD7w1CFCmGWyCYPvYeCN1A9oY2TmolZXiGovxHfPRuI/SRgE2BIlMlM4F+qJpT4cO0qVjnEybPAV+rTCJjG6jItDmMM1eP5jjtQ37Spa1a/6SaffNkPVo50gQpTzM+3LmESQYm93RGPCghnjHbRPlPxNv0QDnjGAd7KsBzgZwVpQ8eXgbi5m+t6CQYLxpRT6eN1demTVH9iclKqcx0wqYS8WcNXc8rNQ0VHKnm3MAl56dKWMvGS7Tp0+TTp17qutgp3tfXzCSYFBzY22qWYdafV4LwSbs549Mejv7OjMzU75BneyKlSvhp/tLktA3ohiaW2ybaJhtIG3EfVAzIfAkpqQpMHNXGfy4L7Rqp8ZFIOIxfWAOGgDFB9XQrqhFErAIjrEoNjeAwFYfa2dq8rv9yelKbtQ+WfpkwQ/NTZqdFXhBhLWJVaYnB4/JNBgfnoNaHKPURUVKWyZIE/xIXdQfWtvVl18uZw89H4Sidv5JnIfAzVxCmrF8EdU17AGOcz9jxnT54pvFSh6B0HituD5HQQZHzyhlllOMemb0vqXGm435Ovn4Y2Gq3icDBp6mNThHAmzk3zXA2QCO8qtei7run7/l5VdflUXfL4PZhLwmZTIxJ80iRXzIbOZWU/jgypEmMv76K+Wuu+9VoEZA40NBsGFCqieidPaDYEBwolnHbczBZsT8jtqnOfjQznrzVVn777+ybt1GBWZluAelVdgAhBn+PjiHN0CL2msIND1/P1+Apq+679GXjFT3zmigtzdMXQCMAjmeH99HIPXC9J0dBDkD7DhS8IKwQmZFSHPJycmRdCRL8ycrOwtRxBJZ9cffCrxUAIIaqipTOxisINgWokCdeWpdO3eWc886XUaOHCl9jjlOESAQNFXQA6Bknt/QsOtmUjZlZG+mvvTCc/LKa2+iAXQxOp+FQZMuVB22nBmUNZvVBEGegQgaZSFxmHh+7dhR8vAjj0EbdcbF4cyVHd37aoCrBeAIFK+98oJ8MP8zycnNUdqEKoS3lfPQXKTbiewTfCO78c3c6IEoKoqw75w8UW4Yf6s6SlFxAQDGcNwXFuVLgH+QcsKbwMfrUPWnGH5+NKcNfxxLf6hdmia2eUkJe/fInt07ZRn8c9//+Kts3LhJAQK1udDwCLl81MXK9A4NYX5YpAIs/gQGhsD/5lPZwb3Rt1jDjhRdYUEhXhglkgcZFxUWSGpKsmzbvkM2bNwoG7ZsxzXvkf0gk+zaratExsRIv749Zei558hppw+WsHCDgcMdxykuzIcMPFTQxAyYmOVVqpzNZt7XfP0McBx8wTGg9MB/H5NEMDIz/aYAkWxn8wzZjjDYRphJuRPIk5Ac3rdvX7n+qtFy6823N6Vo9bFsEtAAZwO4Yvit6PsJCEDnJIyU/ckyeepk+frrH6RD+1jlH1KObjj9SbdDxz8TIcpQacAHqMzMkWjU0gI7LNI4pk29VS6/7FqlSRbl54h/UKjSTjJzM8EpF4FgRjG0RjjmEYAwaZvKoenBtpZyCyoeAETeMBft6Zyq0zvx399+t1BWr1yt6J9OO+VU6YpC8KiISIf72R+XG1tRnH6ABAQHUKYErcTReRv69zR0IktCKVxGVprM//ATOQ2MuSMvHi3BKH2qvH+4Fkg2QHAz+OHYHAY1paQ4stXxOp6SqgD307IlMvmu+0BcitSU9u0aBnDkbqqBtmp/Urr07tMTaTnwH0J7C8X6ybUUQn4ixyPq+/033zgoNnN8F3qLQyWgAc4GcMAHdDQ3BJSKXKqZM2fKR199hQVZJvExYdAyWBdaG6Gkc0vLjbWL0VHy0fy5ANMuVQgSGTlkvhpda2bWmP6sSkzqnPSNvSlTpgmRKSYZ+ZAXgzjKUBEAACAASURBVHZ83br1cuyxx0gWgNaRiXqwVIyugYYRj3L+J90yQUaPHo38x47qehgcMc1rk8KpKe6ztR1DA5xtcZcglYKOdY4Vv/0mjz/5tPzyG7UcP4lgjWETpAnUtrhMgPvkwzmICnat5CTj9jRD64oAtrYF64r7NYMMzgFc4310nP/BZ5wi4665Qk47a5grbrHVHlMDnA3gYGkptaCoqExeeO5JmTXnXUlNzZQO8W1V5NIkoHTFStEA5wqp1v+YzQHgaGJPuO4KueW2yaimsSVN1/8W9Ja1SEADnA3g6B/iQl/9x5/y4MOPyo/f/yAhSMJsh/rFHKRwODJRnFlhGuCckZ7z+zYHgNu9Y7tcjWDD/ffeW6W3KlN5mJqjR+MkoAHODuCSk9Nk7pzZii1kz87d0qV7VwmF830HInlhtuBD48Rc914a4Fwh1fofs7kA3KDTT5U7bpogl115XeXFl4A5hsnNejROAhrg7ADuiwUL5I23Zsuf/2xEJK5C2sfFqPyzxLRURL1cl6ekAa5xi7ep9moOAJeGNRaHlJ3zUMI1edJk6dTVSPZmQjTTSphvqEfDJaABzgZwRSXlMv3eu2X+lwtVI5IQhPGZeU/fG0uOzJKdhovY8R4a4BzLyJVbNAeA80XydDKSoXv07CnT77xdRo65Ut2y6suBiKpuHN24FaABzgZwiYlJ8p9bbpHF33wvXZBUGgz2in0piUggLZO2kaTycY7Qsq7p0QDXuMXbVHs1B4BjmtCqFb9JdEy0TEf+5ZSp91beHiP4WoNr3Gy3OoBLSU5EUXaE8mvk5+WgJjNUBRem3HmnrN2wWRL27FWSZBmS4ibDG5RcbXT2umoQ4PzAoDH7jRfllEGDVZoIF7XqpI7fyUUWCMYPPVwjAc5/FsgEQlCWxbFk8Tcy46HHJS8nGz7YCNmNSooQ5MfVNUAH0OiL4/yT0Zl8f9TYYkDHdfvE8TL2quvVMclzR4IEPRougVYDcOZb0D6vzEygLCwqluEjRsq+fUmSShLFQB9bT4RSZZ56exv9EVw1uMC9UGD+9OMPIsH08kNOY5/06apraM3HJcAVoh+DL3vLYnz2yXx55PGnFYFoMF6AexL3S3SYQYJa23AW4AR9VD2xBsigEgRy0GuvvEzuuud+VSWjR+Ml0GoAztTWTFHZA90vP/0g146/WdJyilV5T0xYoCpYJ6gZAOejGCxcNcw3+K0Tx8l/brpVgkN0l3NXybqm49qzifDvr73yEortZymOPjagIVUUCTZdCXAeqqcteAHzwCINyvPBZw6SKZMmyTH9TjqcojjqztVqAM4+3E6NiG9nmqpJiXvl0f/9T775frkUwxwMBPsEyR0JbMVs+AID1hdgR9PBVYMAl5mRjibBF8rdd90lPXof56pT6ePWIAF7gMsDCehTT/5PPvl0gao7ZitANv5xRJfkrAbHIEN5Gck7s0CWYJHj+/eXa68YLVdeM05XsjixalsNwFFGBCmG3Km9EcSYQPnLj9/JHXc/IHngSWNvU4NhFsXzWNxFjF6Bpudw+OCS9u+T0wYNlAen3yVnDDlfTak2TZ1Y2Q3Y1R7gtm7eJI8+/j9ZhpaQHME+fjb6pbpfcM4CXCC4/KxgXy4Ao0pebp7ExsXJsHPOlEl3TJLO3Xo14G70pvYSaFUAZ+YUMWBgJk+++eoL8syLr4Mrv8zgRwO4kRiEXGT8nf1KSbTo6igq86B69egm/71vqgwfeZmao2KYSH4gXDSBWS9d10iAAFdaekDcvdzkt5+XycOPzZTVa/9Vrgl/0FjVhyrJWYALAE+cagcJtwh588jL17d3L5l0200yZNhFrrnxVnDUVgVwJKrkMIkQCRw3/ecGWbrsVwBchYqcEtQ4PEA7xFZwZvMVV+fBlZVZJDoyUgHcRZcYzYFNP6EuuHftk2ivwf3y04/ywCOPy87duxWhKV90/qq5Td1RdGcBztsT51LM0Pw/LAhQPkWjg9iE666UG2++w7UCOIqP3qoAjvNo+tIIcnt3b5OxKIvZsm2HhIP00R18SW4ANoKaQXPtpjjiMvKL0RDGoA6vezSMJsek1aEPjk7miIhwefDeu+QCcJ7xOqlxUoOrHiBxdBX67w2TgD3Arflrpdw342FJSEhUxJlMFfIBUSUZg2sc5H/DOGDHqtyws6tVCdJOpAbBB+dto4MnaSmbRl8Fxt/bYabqwFPDpco9Wh3A5eVmq8VCAJlx71R55fW3JQpvygPwvzmzSAlSNREd4qDqe3bJIs14Zi7or33cQMEUqnouJKdkSFB4sPTr2V2eeuy/cvxJp1aZSV4v2SXqS73duGXQuvdSJirAhToa52nn9k3orPWkvD/vUxVs6tG9G7QrVLVAqyI9PYcX3BmqCRCBDeCEehenhEiNzQ+0+IzebwWjcad2capnRXiQv2wC1XwxGhCRrZg08ly7tEYMNwso3rGvO0hP9ThUAq0G4Eyefvo42HWJDCHTp92NRfyRarJcVg5C8Ea/hVHKpeiWal/kzETnudn2ji382HOTVNiM0raLj5cZU26T8y8aqYDMDC4oLQ5+Gc0H59pH15g1gMYBMHe4eakXz4cfzJF5Hy2QhL37jFQhBBtYuscfDndbkyG+tDhPbs4yfpAOXyWV+0gCXnod2oQp7bEU53v9pedk2LALVVCMrSy5lrlGjOoGAK5q29j4RGPXSvfIHr3VAJyZqGuWvGzZuBaJlPfKjz8ul249eqLvQYnLAc6C7kxW+HICALB8KNLRnrBLp45y3rlnyBNwbJuD4Estk2YyzVT7NnhHdrkcnWc3Aa7Qgi5mPgYXW/L+vfLxx/Nl0bc/oCHOn2Ba7qCa4rAdIocbNX5qbtCeLAAh9uxwZlBzS87JlRg0+8nCSy2KHdKgIaahD+/ZZwyQT+d/bJzX7iTGi9AEtro7hzlzbS1531YDcFTpuSBNsFi44CN58JGZsn37Nunes4/k5uW7FODM9oIMXPBNnApwYw/QS4YPlbumTEI39v5qHTGgwOs0SQ81XY7rHy8T4DJz4C4IjqjsP7vx37/ltdfflHkffy4xEVGqvysDAOxiZjaxoWlZih+venbvqu1uCHDU3Nq1iVDamRtehH5wTeSgnJDtKregSZAXSDHtAc6IspssNxrgapJtqwG4qmq9yGMPz5DZ785TSZzRMbGSj2YgrjRRzYbKXnBYl0KTS0xOkQ7t4mUSGj3f+J+bpQI9HypQrkMtwTRJec3U4DQfmGtBzgS47PxsmIj+eAkaVQv0y83/4D2Z8/582YsaZbOvkOF/81RVL5yvcuV/da6kioCZgjLBdjFo/gOAy0RFQxS0OR4/C2tz5dJvpVvP3lUAzqhRNRtaa4Br1QBnf/PZWRly6603y5KlyxC5jFRvY2sZzA8X+uDYXpDt95iKUlRQoC5nyNlnyN1T75au3XuIh3rKoCHYHhSCG7U39iTVAYbDA3B4xaDRddX+s7t3bZOvFy2SV159y+jVymRxwIzSxFXrSCPqrkDOicG9i5BcHh6EhuP4TM3OQSDKV/WfLSkuRgL4nXL9+Ik1Ahwj/V7emhRTA5xNAls3rZNxN94iW7Zslo4dO6E8JltFoVwJcFa0HfRD8iZxLBvNj3uBLfiBaXfJEHRl56j6WBmmKjUErb05gRr13NXU4GzhA7UX+8+avWYT9+2RkaOuUKkiVnTeKgPzB8IMykdKP5nRNtI5thlbtoktMutmNLKGUshetQxsnHXaAHnhxVfRNPpguhL7yPrj30Vgm/FHVF6PQyXQakxU+1v/c+XPct34myQDndVJMLh5yw4JQcNjVwJcEfxtAfCzFCKSWoCO6cPPO1veeP0tNFb2l/S0FAkPCYe25qkeGjMHjuDGh4f+Q0146LrHV7GJFOWhPSMDDO4K3LIy0kBbFK98bhxDhw5TbQXzoVlZUFLF0mS+gNzZVBqav7MaHK0I5mBaSJOFfExGSxkYI8hxtEek/fNPP4HFEWFEbXFeavj0weXlZElwaKTrBNSCj9xqAM4ECS6KyZNuRUvAVUr1z4e5GBxCTjhn8uAcp4nQpPEBYG1cvx5R2+5IQ5gr/fqfWLl0qmtwLXhNtbhLr0mDq34T6enp0OIukz9/XSFde3SFq4G+1BIFctn5hRJko1pq7M1XN3DxmlOHggGsPivgl/vy80+k3/EH14xxLnNP7YOrSfatBuDMek428Z08+Xb5Y/U/Ks+IjCGBgcF4A2MpudAHRz8aa2B3I6/qnCFnyuxZs6QtCqpV+hx+NMA1Fhqc368+AFeENKJrrr1KFi1aIp06xMMHB0JUgA79cAVWVB042TPBEcAVINAw982X5YKLLqlywxXl0PJUwrHOg2vVAGfe/I6tG0AHfY9s3rxNVRawiN4X/RdcnehLgEtKTZfA4AC5dcI4uff+B9QlFRQUKTNVA5zzQNXYI9QH4Hjshx96ALlxXyqXgZmRxpQfvricTfR1BHAZaekyA0wzt90+qUrf1EJEfplS5ObuXB5eY2XX3PdrNRqcORG/Ll8s02Y8KklJ+xGdBEU0Fqe3rz/8Lii2caEGRxN1B1oR9ju+n7z8/JNyyqmnq0vKzMxUfhUNcEfuUakvwH3/3dfy0itvysbNm5H7JuJnS7IlyDkXQz1oaJpSqG6iEuAuHXmhPPbIIxLfvlOlsPKQuxccGo5/axNVa3CQwLx335bHnnxWcnNzJQhsrdTgWOPn6jQROqL3gvp61CXD5XWwxQYjxwmBVcW3HxISpAHuyOGb6eVStah1AUVaaqrMfOIJWbDwaymxVEiQP5iekeTr6+XjdJDBkQaXj0T0vn16oWzr2SqNoYsKchBBJZ26BjgNcJDA0zMflVffnA0zwyqhoaEIx8OHAe0KaXAu1eCYB8cx4YZrZfp9M9TvBDiWMGof3BFEN5y6vhocr/K1l1+W5154GSV3B1TJXT4iqoHo2eFsFNURwB3Ai5jsIh++O0v6nTCwUmDloNnyUFUUGuBaPcAxt+zhh2bI67PeUWkh/ClCThoZIZxjE3EcRWWaSGxMW7l/2hQZccloOKgRt/Vg2Q8SPIuKQI1dHzqmIwsER+vZGwJwi75YIHdPmwFAQzkd0krSsrLQcQsA5ySbiCOAI50SE40/nTdHTjzldJUiYrKJGPOiAa7VA1xOTo48+MB98tY774MiKVJCUdDO3gzseOqJ0pvG++BIJFKNLqmatHORQ9WvT095FI7qk08ZhNy3NFxDtNoqOytTosBHp8eRk8ABeNFoooK03vYpVT4t6LzmgwL435f/KBNuuQO1ogfED6ZhOpiYfUFz5MzaMe/aZBM0/l01TYRErHkISH352XsyYOBZkgtCBvYUUXRJSDJ210GGGhfPURRkqDkfyJ7AaOu2rTIOdZ/7EhIQuQySxJR0aRMRqhghnH0DQpA2Y4cGp91ZbRRKJahr7Iuk4vkffighoWGSjx4QbA/HekdykOkgw5EDN/PMZspOXZ97d22XSXdOlYVffS0h4eESH9sW7o5SuDicods6eO/GOuKwfdrWD5velIOLbvSo4fLEzOcqu7CWlVvQbhBErVqDa90Ax7fz9q1b5DqUaO1LTJDgoFDZl5ohbcMIMmXgAXOyWLpyYdo/LvjdtkDJOtG7d0/5cN481WuzgM2coQGUVWCB4u2LGoYj/4TrK3AogcSE3TLlrjtlwRcLJRIU89HQwi0WApwzPlzFPFvt3DUBXLmMHHG+PPn0C4rRhEOvn7qnrNVocAQ4dky6dgI0uKRECQsOk/0ZmYp/y0LywEaniBgCdrRAWZDdu3cP+RAaXEBAEBrKFKLMJgAGBthYVYm3BjiH6NIMNkhPS5Z77r5LPv38K5iIYaC6D4c/zHpYAI7NaC4GvdZMZAH4IrWJo7S8BI2RaAHo9VPT8mhVALd5479yzQ03yd6kJPB7RUoyelBGBgRIMRI3fZgN7sRwBHBUEHsjzE8TlYuT9Yyk5SHZNesd9QJ1QviHcVf2x5g+/W75bMFC1aCZboZi+Fedq4Rx/IKkiZqH0rARw4bIzJlPwc1h+GytZcXo4wCWGg1w2kTdsH6tXDNuouxNTpXY6ChJRb+DCDT2zUNEKgCpIs4MRwDHZNA+fWmifojCeV8NcM4I+wjuywL4+6ZPlc+/WKQ44PyxfoqLyQbtTC1z/QAuAxxxFw0bLE8C4KJj4pQULKVFYBP21QBXy5poVRrc+rVr5Orrb5S9+5OlXVw8SAVzEOL3k1wU3QeiqsGZ4QjgSC3dG1HU6gBXfgD1jHg49BvYGem7fl+WY/ElxfHfGdPkw08WoAqmQvG1FWL9OEe3VT+AS0HB/3lDB8vTTz4p7dp30QBXj2lvVQC3ds1fcvV1EyQhKVXat2uHrkUAOJiLWfCHBTtJOd1QgDN9cNqHUo9V2gw2saeO/98jD8j7H34KOiP4bsHxlwf6KwKdM6kijtYPTdTE5GQZes5ZSFZ/Qrp0662kUmItFF+QXeoXZM2LpFUB3D9/r5arrh2PIEOqdOjQQXLyUa4FCqMMtGQLdZINwtEC5du/dx8EGWCi0vdWhHMyUZQ+FKaJgAGsGTzG+hJqk4BBLmk0pJn5v4dk7gcfKzYaT3D4ZYFqPAhMvK4GuASU+hHgnnziMenR6zgNcPVYrq0K4F5+8Xl55bW3JAc+twgQTJZhgTI/zR8lN+V4GzszHAEc38A90fv0/fffx8OACgo7gFNccWhXp0fzlYDZ3Yy0W1PvvF2+/napIp10BzNlEXxwHnD0uxLgCKR79ibIqQNPlueefkKO7XeyElZRMdh8/dA3VwcZalw8rQrgXnrhOXkVjZ6zkJUehWRbOozJsBvENn7IhXNmOAI4DxAj9ujVXT4AwDH/jb03GU1lHhMbmGgNzhnpu35fkzCVa+auKbfLd98vUwDnAd+qBjjXy7+xZ2h1AEcNLquQABeqqgjyobkFg01EcVA7MRoKcGaaiM6Dc0Loh3FXsxk3TdU777wDDYuWA9zwYmITIWhwrg4yaA2ucZPdqgCOJurLr86qBDgr3sZ5+AklwB2SSd4wgToCONNE/eCDD5QGZwULLNNFdB5cw+R8pLY2GaHZke3OKXfI0mW/qMCCN4IMxUj0dXO6lrnuSgYNcI2b+VYFcK++/KK89OqbCuAig0NAcmmVXAVw3mZFVeOkiL0cARwLwXrAB/fBB++rUi1TgzOLqrUPpdGiP6w7piQnyqRJALgff5LwsHDV9aq4BAy/GuAO6zzU92StCuDeeO0VeRGMrLnoCB4aGIIomEVpcMGMoLpYgyPjAwFu3vvvocQnsrJUS2tw9V2qzWO7hD3bQRs+WX5ctlxi2rRBuZ0//KkWlyf6ag2ucfPfqgBu9ltvyHMvvi554IULQS2qFQ1n8gFyQTBRDzjZ19KRBsdobW80eJ43711QlMdIYSG6kqMmVSf6Nm7hHqm9dm7bJLfcAYD7YZm0b98OJJQBYPcFwDnVlc2xBaABrnEz3moAjuJ5e/YsANxrUlxYKP5I1WBzXQtSRXxgopKKxpnhiC6pAL02+3Znu8D3JTIqppIuiSwjnkgTca6Owpkr1/vWVwL0km3bvEFuveNOaHDLkEvZHi+pQCkGwEGF02ki9RXkYdzuKAI4x1LbvnWzjLniGtm8aZN0694NlEX5ADf0t6T25vQCrZvwsgRpKGHwvT331GOV3eytpWXonu6JaC663tsamDi+C72FayTgmE+QjDS//bxM7pz2gGzeukPiYiKhuR2QHJRqBSN525nhyAIwNbjRl14oj6LxTIeO3W2nq4APEH1ZfYOcOf1Ru2+rAjiaFybAde3WFQBXAIBj4xASTjtTLO2YsrwM5/CHv+ahB++V0ZddoRYUacu9PN3QvlDE2zk6uqN2gR6+G6sb4IyGNCJfL1ooDz7yhOzcnyKx4aHquzL4cV3tw2Utc8L+/TJ29MXyyEOPSFw7s7NWBUxktJ70Maos9KgqgVYFcHt2bZUxl1OD2yidu3RRZiLD/GUwT10NcIxhuCMx9OabJshkMMJy0CpG/q9uOtMsnkrHAMcX0aw3X5OXXn5DkvMKpE0wu1kZQ4GcE8ORBsdE8VT0f7hyzAh56OFHQLbZxna2CpT7WcTf0zkN0olLb9a7tiqA25ewS8aMvUo2bdwonTp1kjz0Y1AABzpW5+huHGtw5Hxji7nhFwyTx594WjV75iCXmJ8f+bz0OLIScAxw7KPx1NNPyScLvpI8azmotnzFCs2cXe3ZX9eZ4QjgyCfIgNh1Yy+VGQ88rAJUhv8WPSQOlOtSv1qE36oALiVpn4wae4XywbVv30HycnMUG0Qpu/g6lcdUD4ADY3A+kntP6NtXHn34v9Kv/4lqSnJz8kBeGKwBzhl0aJJ9HQPcti2b5aHHHpMff10hAfDdMnk7GykikSC+dDXAsUcDk43Hj7tK7r3/YXXHRrI4UpwwdB5lzYugVQEc6abHjL1SNm7cIPHx7QAu2Si18YaKD1ZdFwMcxV8AMyYGOXCTb79Jrhs3Xs1Idla2hIWHaYBrEpBy5iCOAW7lbz/LjIcflw3btklUWBQIGqyShkBVDJLGSxGRd2Y40uCYR+mJ0rDbbpkgt91huDgMyi3DNNUApwFOsjLS4OC/XDbjTdy2bazkgLJcARyimW7oTNR4NgjHGhwbP5fhDUxv31WXjUJnpKc0wDmDCE2+r2OAm/feXHn0iWfAy5Yq3Xv0khIwwiThBRUXGSFWJI87MxwCHExgb7QnvPvOW2Xc+FvUqYxcygANcHUIvlVpcFmZ6dDgAHCbN0ubNm0VwHmC6JJpGq4GOEZR3eGHS83MkstGXSxvzpoD/4ngGnJR2RCiNThn0KFJ9q0b4EoRYHjy8UflkZnPSxkSxXsff4ICuH0pGdIhNgbUW8iFc2I4Ajj629gD4t67J4HTcII6k9GZzYieag1Oa3BKAnPeelXuf+h/qoaQDUPywHPPonfn2r451uDY2d7PRovOAMe0qZMr8+HSUpNV13s9jpwEigtzxQ+Oe/bHtadGsljLoCX5gxy1UE4++WQ49pHug+227EqQLh3ipRwd2cjs6+q2k6TV5/jr9+WKrjwPdPusada1zHWvmValwVEU899/Rx6AH6UEPpMQ+E6KYVp4gFHXua5IjgGOUVQmhTLht010G7l14g2VfjiCbLhdysGRe8xb85krlB/NioATy6/cmb+DYXJ8LFnynUy8GR3t8b0n3Br70nOhuUWj3K8YvHDuLi/1y0e1RFhggCxd/LXKgcsnGzWqcTTAaYCrIoHvv14g0x54VPbvR29UkF6yXylWrcsBzhukmqS4TodJGgWTdOSIC2XKlLukTVtDc9NpIkcaXCskB1RIPmDHZQG9SY9kAtyNE2+Urxb/gIRaH/W3PCQxRkODykKqUSi2d3UenFnL/O7ct1HkH19Zy0yA4//YGVWPQyXQ6jS4tX+vlPsffERWrvpDQkF66c1KBgQZXJ0H5wutwFJUJElp6eKD308/5QS5cdx1cv5FI3Wib7N4MiskH20kg0KMfqPkfQsLZymWSEpykgw+9zwpwPz527qwMffNG+VZiWmZEhcR6nKAYxR1xMUXyP33z5DwiGjFCM2XJjJVdB5cHeun1QFcasp+1PI9LB9/9oUKsYeEhEhufgGCDc5w6js2UQmk5PVPR4MSVjR07thBLrrgHLlxwkSJjY/X798jDnIwUREo8EKHKo48gF1wCDR8/P7OW6/LbXfPkPg2MeKFJkW50Nr8QDdP0zQhOV3iorCdi9loWMnwINoVjrh0tGpWxKBDBX6YB6cTfWtfPK0O4CiKF597Up5/+XVUMJRJdHSM7N2XpIDOlWkifBjYW7PiAEprYOIw4NCrV0/kNU2UoeddqAGuGQAcL6G8HOk8CBz4QDvi2LhhnUyacresWvuvxMdEKXcG/bbePjRjyyUVJVsRAX5Ot3xxFEX1QYrIZx/Pk249+6jr8/bysTUuwnVoE7XW1dNqAM6+ce/CBR+BEWIG1PwSiUMD6I2btyqgcyXAMQ+OTUrUGxdAl5SaLm2iwuW6a66UKXfdLcFIAdDjSErASBNhaw4zwMB/P/3k4zLz2ZehzQWplCIrIqasSfUCwBzAy6ocO6juWk5euiOAC0TEf9WqVYp9xuQS1HlwjoXeagDODP1TJL/9vETGT7wdb+JiVdHwz9r10jY2zgmAI2FhNbok0C8pHnTbJ+tdvbA4AwKCkXdnkS2bt+Fv5XLdtVfJ9OnTpAfIMDlIKkKzqCGfjqdZb+FIAuyWxaRv+84IWzaulxn/fUQWLV6qXApWRDLT84sl0B/+N0TeWR9K0KNGxaluinEQ6GwHtB04JCxMVv+xSp2CKSKk3spHHlyQLQ/OeYhtiqtvfsdoNQBHn4oX/GCMkJFXf/yEG+XfDRuRSxQi+xKTJCIyyimAM6aWWgDf5Yd+lsH0ccdidXfzUA+Gm7uHqmWk6coEko14mDjY/pll2w35NIGx+S2v5nlFjIKq6Lk5MCfU3ApAhBoUYlQGsHb+2aeekA/mfyrbd++R+LbRtrl1zT0xfagc6yIEprEHk8+txaq+ldokNcU3X3pW+h7XH1H3WHUBJGs1zGj0ZQPA0oesx6ESaDUAx0VQiLrBkNBw5UOZMvk2WbxkmarvKyopUx2SGm+iOl5aVjiECWUeJqjRrCG4MQwGgJsLR3YfLGCTZYRHtICxgjxgIIxwOHSSgEMRVW5gD240Lwl1ObmFEmgDN2745YIF8ubbc0BsuVW8ADJ8Ebl04DoKYP56YT344UVMi4AAR3Dj+vjqs4+kU+fuyH0zKhdMjZMAx1w8b18DmPWoKoFWA3C87bTUJImOMd6As157UZ4FfXkaKHCovVUAflwNcDyvJxYyHyqluZm/YwGzY/m111whZ509tHKGcnPzxcPDowro1baANcA1/tEmwFnQ9xvM8Wqs/P13efKZ52T5L3+Ip4+XtEf0fM5JJQAAIABJREFUtBDmoCsHk4dzkfphQdlgGAIKngBVghhff6y6WfELunhFRKh/c5h5egS4YtSk+gUw6VeP6hJoVQBH0zQquq0CjXVrVsnNt98lf61eLV26dYe2xFw4172lqcFxUIuj0maCHL+jDmGFhjlq5HC0pJss7Tt0rJwnOrTpv/P2qvvaNMDV/XATEMwXSvUtCXB0C/AzLTVDnnnmKfnyq68lOS1b2kaHCXMYS1B/6srhjjVZDECz4DqD0EzaHSZ0GlKKokMDFL3+twu/riRHZZCKpivvR2twdc9KqwK43JwsVYbDnDSaqTdPHC8LvvxG2gFQ2LzXlQDHGkYFcLZXsHrYDr6PJREU2P1P7C8XnTdExoy5TIGuOUxq87qmUgNc3Qu9KihU3ZYvkQrMS15+ibzx+ssy/+MFkpadgfI5g5I8OR1Jv0gFceUoxvrwAcgRszzgny0B11tSYrL06d1TkTM8MONB5ScsR4CKYE3/mwlwzIdz9zB44fSoKoFWBXDVJ/+ZJx+TN2e/q2pRWYPoSoCrm7Mf6QYo/fH0dEedYTu5cNg5csP4/8AkCa/3etUA13CAoy+OZiADQJbSCvn4k/ny9twPZP2/myQuOlwiYtpIfk6ObN+1RzrEu5YMIcfWn9ce4JJBy3TOWaehj8f9MuDkQSqYUFGOwn4AISO+JsAZd+4666Pei7AZbthqAO6gU/bgLCz99kv57/+elnS8oZ0rtnc8s2ox1tBc2ojl4Y3MxE10RyrDNt06d5ZLLr5QxoC7js2F6zM0wDkGOAKD/WDqEOuDyQf46muvyU+/r5J/Nm6CllQh4aCUJwBS86Y/TKlWLhwWJA2zwqUA0dQQgBfedZKLSOnF5wxGD4jXJcCX+ZO2SLyNCMDww5kXpQGupulpNQBnlt7YC2HDur/knntnqBZwzjH6Ol759smj3LoykqdAD9214HcphNmchlpV+nxO7n+cXDZ6pIy4ZDQaRRv1kXUNDXB1y+egU97YjvIvQfTRgh/yAQ4bfilM0TS8YCokEiVaFvjcdkNzC4yMlmP7dJekfYmOpsCpvzNtqIgMwWlZEoHSrwgwh9D0vHj4eTLzyadV2hCHPczypc3UI6aVaA2uZvG3GoCjes/BxEz78cmH78p1N94m8e3aQ49yM8wAZqojfUSBEH6Mvg3G/rUNc+G5Y6FyFKPRc16hVXz9PCUE9Yt8wJiSwoVscIjBNMKxfRC68/KGUxkBDgvav3F/anupmdkSHhQgY8eOkqlTpylac/thhUlF0DTbqdoDHK/bBNDaHOtOPY3NcOe6gghqPmyMu8yDNMeWjWtl1ltvybdLfnK9i8KBzLzgU0tMz5J26LVKwNq+bSvM0hPkxWdmynEg16wJ4IxD1kzU2Qyn6IhcUqsBOPtSLb65fQE6HKtX/SJXXnsjOl4BgLyQOAmk4sNCYFNAgf8RdKokhtYwVSqehbe/Ch3YIlwHlAmBPDZoZwVgf63Mp8JxrTBJCHCMqnrDuvAC0BFcPQCCNKUycgskNztTenbvLgNO6if33H2PigCzQY39gPIhJcUFEoIO68yZMq+zujl2RFbXYTwpzU2+vKprypxL/s2cb/OSNq7/WxYtWiRLl/0qW3fsVKSnLvXBOpAF10g2QDgU65Iv07yiYhl5wRB5+MGHlF9WA1zjFlOrATg++IZTVlRvhnCYHhw5AJEbJ06U75etkojwYGhc/krD4kPBwXw1FlWbmlltYmbkqwwOYEbDvLGPD53ACJmWw6digalBTc0swaoEQPp4mICM/fyRTQ9+CBVJY5SX11uEWtli+Ie84JAZM2K4Ks4/e/AQ6Wor6zKvhSVnQbbmI/zO/l4btyxa7l4EtHLI25xr/ps/JsBR3n+u/AUBhU/l519XSWpaKlJ0UEHgFNmC8/JSFX34H9dKMmjQu3WIk7vuvAPBpgnKLNUA1zgZtxqAM8XDhz+fdM/ws5jjg3ffkVvvfkgCg3wl0C9AaUL5AA1vABS1ghKYk95mFmgtcqbfrAJgZprCLAsjkJUUFsC3kyPt46IVewnPr6JgDPOzVyrSAUphztJFrPRF2se2onxP9mzF27wAb3ZqmO1RL3vqgP5y/nnDZOCgs5DVfjB7vdyCpFCWglXLujcy4Q81zRu3XJr3XtTSi5D0SkAjV5q9OcqWkaTKWvP33/LjTz/L6r/XScLeBFXBEh4B3je8YI6kBscXYxBerum4/lyw25wz7Gx54blnpUePHmANKZEg9GBVL9xDpkCbqHWtylYFcHwAFPPDwdCTkk06nMtDhl0k2eiTylIqD4BZAc0abMd8I/K4OdLg9uzZJ/4ATb9Ab/GCBucLU5PnySoskpykZInv2B7HhGaIsjAvbw8J9fdRoX4OlceEfdw94AMEoGUWGB2awgK4qN2ksMwq+dl5qpaWbMCdO3dC5cNJMvTcc+XEAaepUq4KHJtlXdXvjYBLYK1uojVvqGr41RXhRcJk2er3Sd8b8x8/++QjpH9skD9W/4Pa430qqBMcFIx9SGOFnqMurmRxdEd5mKeIwGBJAxU5x8QrL5NHHnscvR5YXF+A4nqjREsDnCNJVv17qwI4mp0H84dYIUBQQLtAyGTS5Mnyw08rwNCajoXmh47l6BoOMCTAMZXAUZpAAhJ1e3TrKh3axyKZ2E8FFHwQPLAAePLz8iUVWhy1i1zUw+bmFkFTgzkKkAvw9YJ2iDIx1RaOzYRRogPWCgtAiefnA8hYRxi0jHwAcHJGlurH2S4uVo47ro8MOuUU6dWzmwwbemGtM1+MiCATnI/mUT1KynvdtX2zLF/2o6zfsEHW/rtFEhL2yh4UznN079Ed0elIzEkhXmy58H06Q3jqvGSZBxcODc6Czw4dO8q9d94uw86/UAGaBXVk/j5GGEkDXMNk3aoArrpoDM3MaCKycuUK+e9jT8jvq/6RNpGo6wOqlMP35oUk4FJoUI40uDPOOFXOOuNMGXT6GagdDVKaGE1RahUEyN/QNDgJmtwW9GTdtG2nJCful+zCYqXNBYJGqQTbU+tjxJb7Udsk6HF/am78JO9/CTSSrIJidfwoBBwioqMlIixIrrtsjMQgAtepc1eJbdexiiZTUw5gw5ZJy9iaNOP79+2RvXt2yy4A2Ua0h1wHYEsG5TgBkGDGhOqQ0BDxxYuL0Wtqt8yDg+PgiJqo1OACYDmQL3AYEr3vnz4dQaUopLEgEo8cOO2Da9wabJUAZx9x48OPNY+iam8Zd8M4WbDoR2kbEaTSOdh5yxOLzooggDcaQ9dFhzRh/A1yySUjUTd4sMSqpilZ/cefsnDRVwDSv5BbtU8RJnqqBFQEHEimiE/+mwSZ+fCr+Xh5SAAAbgdysqLiYpCAGqy0TguALp9doKyI3MJEzYLZ1bV7FzntlJPl7CFnycABgyQOmoAf+gY44pdr3NI5/HvVRbmWmZ4uf6z8Vb5YuEhWULbJKYaWjOALSSI9oQkHINLMn0KYs2lI7i7Iz5c2MdHwx4aDWy3/iAIcm8rQmxYB+q7/jL9Obrv9DiXgtNRUaRsTUylsrcE1bN21SoCrLiKz2PozlOrMfOolWbd+nXRoFyehMGEKYV7u3LNHOraLr0JgaRJZmp+nDjxF/jNhnJx6+llVDm+10OFtZJmzybMfujb5+HrIxvXr5Znnn5UlSFPIzsxUJqc/Hj5qjVkwRUtglkTC7+IJXxE1QDNYUNv0GkUSCFIArfMAfBE4Vo/e3eX8IefIgEGnSFhQmHTo1q1Gnjl708c+nYbf26fUNGxpNXRrXDd8ZdSmSGll+idVGrQRd1EF8eZIBoCtX7dG/vlnrSQA3H9YsryhJ6yyvcsDDOZN4JPpRHxJUTMnCFvB/RaMXqvr165B9cqlMm/ex6psj64Nau6B6MuqR+MkoAFOwYIx1vzzt7z86qswJ1eh2NkqAXj7M+qZB23JH0BT1whEj8qh55yJzkcXSf+TBsH/drAsqLgYUVJohD42P4p5nLVr/pJ35syRH5b9IplYzEEwmQhoZllXBR8GkjMyn84BKRyfH0MTJFcY8qhKkHqC84WGhMLXFCbh4aHKRxiLNoUR4eHw83SQqKgYBapB6MkajEYm1WIv0HBylQlHwDHTLhq3zOqz18FoIAMDRdCoCgvzlOnItJmVf66SnJxc2Q8zP3H/fklMSZcUJMbmZKRLDvIag6slcNfnjIdzmwJYCkEswVKBJaYHISkIL7NCmshICI8M8VHpSddffbk89OhMdWkMnNBlYYL94bzeo+VcGuDsAK4Y1QFff/WpvPv+h/L3+n8rtSguMpb01DXSMnOka5fOcgzKes4fOlTGXHFV1bKaMlREeB5qYCQlJsoniPC9+dYcVb3A1JLY6EiV5lAATS67sAQPuLtDgGXNpBe1AgAkQdkKgKaPryiPIAV/Hh6wEBSPB8Kf44f7CUcPCn9wnRE4g4L8JQp5YKx/Pe3MIVVSaA7XQi8pYnpHuWRn58i6f/6S75f+IOs3blVF8GGhQeg/WiQFeAnko6NVBsgpiy2mjxPRatxDTHDz1nIYtPIlwDGoxSJ/BLyKbBRa5OLNQiT/TPhxp0+dJKcPPk+J3aTZrymAcrjmpaWfRwOcHcDRBEoHAeaLLz6PRNDPZQ/8XjHt4yUSGgwjoHUN+ssCARx0Enfr3lVGj7xYzh12fmWxPLU4Pz+DVpp5TX7IazLhjmkA06dPld9W/Cnbtu+QdrFtoVWFKA0qF/sFgwCxPrXeZi0/AyesiFApIzYtkKYONcFC5PcxeZgjKznZsP9gDo284Dy5DqkJQ4ZdgHMbNEEcjDRT+6yeftLUC78gL0sCcV72qGUi7huz3pIFXyyCrIyE67adOqo6UdZc+uFePEFO4MlcQxuHnwWVIs158IXFIBFZetWwTSgDSj5YM+y9evekiTLpzntU/h61N0a+qTkzGGZ2+WrO99gcr00DXDWA4yR9Mn+ePP/qLPnrjz/ENyBAAY6ZwFvXJNKUoOZEIIlt314GnnS8XD52rBx/wknKDLaCgtzedOWxGOCg9UlzdfY778h36J6eBcCLhNZiAhYZXc3KitrOTzOO2xBoy6Et0jz1xYNDYOPg36kh0Z9H8OODw5QVVk50QI7emwD1Hr2PUdvy4TJTavhvHsM+adYVC5k9COiTMovGFy/6XGa/94GsXbcJ2hrKsGjaUSAEb9b7sjIEgRj2By3ET3M3UQMQHCrECysP8g+m2WnrrsaqCyQCSWxsrMx85F5o0AajM+n1AxCN59AA1/gVpwHOBnDFxahW8DMSb7ds2iCvv/GGLEHPhuT0TPixgtBFqSrVTnWR00Q000NSs3IUT3582zZy9tmny5UAuUFnDFa7mBFN/k4iS5q+Zh+G5T98L6/Nelv++Xut5EBzI8kiNUICjCMTmcnJfFh4HSyGUNToSFomJtCpnQMTj+YvtwsNgObDBGJoFF06dZLzhpwh90y9F1qCcf/0gbka0KrLLycrTULRSd4EuIz0FHn/3Tny8YJv5J81ayQeLwwGQPLZnAVyw4SohGpTs2WKRXMedB3k2gr+Q+nvxJzmgQY9KwsJyuiudv/UW2TixJvAJGJETO3N0uqBn+Z8n83t2jTA1QBwBIjvv1kos999T9ah4W9eiUVCbOZlbRPItA6z52kpzLoSaEtFBSUSGxUhPXt1l1lvzpLISD7AxihBfhNZI+z9cjRjF3w6X+bAB/jvlm0wTb0rE41ZxlXXqIAqaADYQXPSZBWxr02l5sZtLNCKqGkOBgDfNWUyosSdEXAwmhnbM67UxMLhmkWMGlJFNnCwOxRp5Z969gX54qtvJS4+3tDWyC6A4Q3Z+eCHMuR9W23g4Zpra5qjMtAQwARwpO7QB5eBfMZwvGyiotrIB7NfkR69+trWxkEyiNaQpN000q35KBrgbAAHxQDF7gcDAclJSfLyyy/KN9/9APrqLAmyaTe1TYYPWSBgfuRZoJHBnPJH2J+NSpIQ7QuAP+2qMRfL3VPvkVg8qBy5OXmVzCCkPjJ7LuzetVOeeOJxWYbIKtUTvvlzioocnp8gpsq92GYOx6c2RxOODz+/M8rUSJlu/Js5dAG4znHXXy3T75shpv7DOl0O+uFUjiD2OzxlXhWq7wH5VeyrLl547mkA/kfKTFWF9GR64ZwpEoQDitygBH67SD+jVrM5DwYavGleYyIy8oxyvH59e8gg0CI98fjjyidLQKM7xPSDkgwiNMwxH2Bzvu8jeW0a4GwAV4K0Ci+UTdmDzTZUHdw9bbp8+/V30rlrF8U0wmADgSMI6RcMAhDA2se1VflrdY0ipG5cfdkomfHAw5UmKU1Uai3MVGc5jplGsvHfdfLwY/+Tb75dKmGRYdIJPSOYK0cHteI9w4kIXPydycFMNQiDr5AamWLPULRJxtUYJhy7eLEbOyKoSAtJSU9F1C5Trr3qMjBW3IVOYzESEVqVb+5wL0oLKJ/ol2JvAZNplz6oXTu2gZT0Xlm3YYvSPEmC4EvNDVpQNvxUDDywxIlEB815MMiQgYi2PzQ4P7wME/aDxQREC7f853p59tnnkUheUxlWc76jlnFtGuBsAKd8VQABRjhpxpkRz2effhIRvXdUykUUC57xNwINHfWkQioGQBnNQuqmtM7MK5RzBw+Sm24cX6U1oOmTs28sw99nz3pVPvr8S0kE4wUDB9QgCVzkkCOzCIOH/qiuoFlM1hHWr5oR05oALh0ao3+grwQDGKhlRiBv7y70hr3+hglqpR55D9bBPDgF3JArAyMFBYUy641X5KU3ZiO4AE3UxsZCILTAzLNiW392pHfwgjnSjyNrk1UbQFu7yFKsnRg0cZ4ADXrChPEqAdu1pOhHWgJH5vwa4GwARwXAzfaUVzcZX3jhefnoi68Bam4KIFQBNBYr884IdKQzYh1pXSMDLeA6xMfJoIEnyuWoGz3tzLMrN7c/n/kl01Xmf/iBfL7wG/TE/E3aIl2FQGrWxNJXZlIrEVyZ5EuwVN8rss6q2hs7pzNxuBzapwW+PlKiPzXzf3Jsv/7NBuAIUm7uRkK1WT/Le9qw/h8ZMuJS3K/ALwn5435BAKJMbUVOymGqrEfmOXJ4Vq4ZVU8M4KZZ3S6unYw4/1wZM/Zy5E920gDnUIKN20ADnA3gaKK6o5LALBiw16hYQjPprnvk383blCnEFA7mp1Gr8odpWABTyawiqG0aCDAllnKVxHvx8GFyx6QplUEHBjXMdoL2+yfuS5D333tXvli0WBLRtNobnGU+AFKyjjAaSkd1PsA1G1HbODQnJrAZD7wZkDBMU2oNoeERKjqaAzOpCPc67OzT5Blw/beNiwO7Sa5EINH3yA7DB+eB/DYj3cZiEH/iokoQ5Ol7XD/0Kc2QWNwnB9MtQsDdR0BnVUCzb7miNE9PyYH27IFJOR/1wvTJdu/RrZLQUmtwTb8CNcDZwUGBXTKumZ9mivyZp2bK+x9+Klu2bZO4tjEqSsoR4svII31epolV8yRxcZuVCqeDy23a1CkgrTzjkI0t1XLlGHRY8v1ieWvOB6Awz4LPL03t0xZA6WsrJTNNH4OyXKkztuMa3HeKA48F/NAcaKr6IR1m5AXD5NFHH1e9HvJRdB4WZORcHblRoQgEvHz8jUAJtU045Y2GKiLnnHee/Pb7H9IOWrA73gap4MyLgR+U1FFMjWkJAMe3DV90bUA9f+MNV8mN//mPurcCVGaEhiCp98gJ/6g9swY4OzgoROoGo4YBNTT53b51C9q3vSRLf2CDEmSkA0NYEUAtjn4wR4nA1EaKqEEhH61Th/YyFs18x42/ESkCUZWLi8csKS5RCa/26SMZGRnyyUcfggRgvWLK2LpthwLUqNgYBbA0k62IilYW3NvMU4PcE/5BnGEHKiTckTAcgogctchLR14gN99yuzp/GdDc10Gtq+ufgEOZaVVAxVYge9+M++TlN+dIDACZ9br7MnIlLgKRXrBwcIDMuHkPTA7vJQxU+afDTTFu3A3Su08vdc152fkSDsorDXBNP4Ua4OwAjjoZ89M4GNmsPlaC0+2Nt96WVQAZ5rpxEJT8ABzUNuoaTKw1ueFIidSzZw+5+vLLZPiIURKM4IV9AjCPU/3fNJn37tomv//+m6xctUo2b98lGalpRuUEHx4V5DB8b+qBt0sJ4T9YgN+pU0fp0rkDfjrLgAEny3H9TlKpKrwH7yP+dB0KcEbTH8PM/m7xN3L9zbchCumtotl7U7KlbXiQFIDunekuqu17Mx58Ifkhwfe0QSfLhBvGS/8TT1BXCz5U5iwjMVsHGVwxfRrgbFJNQ/MRFqAzmpUDky0EKQqMqpbBb+bpg85Y+L4UQPAGSppem/2OFMNE8sTKrECTYHZEoi+orsE0kVAck5HXRFD90MS8EGbiRJgpPXv3lRzwmUXYaXM8Fqm0PcBZTR+UL+pRzZEIZtqlS75DR6jlsnHjNslF7hqjdHzE3fCfCvbKpNFG+nXmXeHXawCmx59wvPQHqEWiLMjLRj9UO5GiK5Zb7ccsKwX3HqOh6L5iEpEq8xpBBypxO2Cqnzv0fMzBAQmGHHcnZUhMWCB8WhaJAOAd6SiqmwMXBbVRVilcc8VouW3SJCWIXGhuTBWJionSQQYXLTcNcHaCNbWmuj5Tk/bL+/Pmyty582XTlo0SGREDgOole0FeySTayvAlaZbgzA/09YSfK1IlcCrqcwxqJoUAvM7Ib7tnyq1yKZo7U4GqXp7DPDsmfPJBr170zn9b8XCTr40+uK0b10sOgh0lhRbxAPtIDLLjo+ErDA+Lhl/LS0KCw2olvnTR2mrgYWtunmJanvSPRrVpi/I3I+ewHEBIXxyTfTnouD9Sg+AWiML4NFA35eZkKxJNBp/K4MIoRlChEIww1PAf++99MvGWSYrrjQqn2cuVL7Ejd/VHSmqH57wa4BooZ/rofv9picz76BP5beVq5M0VqgRVJGoYVfPUomx+IwKaacqSIpugxKXMdA2Wf8WBbnz89VfJbbdOMhrHlBsA6G5fV2nL9zBSKKrWw5Kdgr43RhGDQ40yMIIdR8vjEGvZAOcBrbncRm1PKnSm8JARmiDmA5/qFZddgibeY6XPsYZpag5NhdTAB7CBm2uAa6DAuDm1sVW/LZfPv1woy39ZIZs2b5QOHboYji87GhyajQSfbNYcgnPN7K9KDS4HjX1D0ZxmyNlnyOWXjpSzzz1fXYlZP2pPT2TPLFH9cgm41A4YxGjZo2UDHHnq2PmKmhvnIzs7G6V6hRIPJujOnTrKXBCbUpM3X0It7wXUMleXBrh6zlt1Rgf6ib5buEDemP0uyBmXSKeOXZUPjCMfnuNSVB+wxR+1uxLUkrLMiC5zpotwsL6UoydKwE7o1wc5ac8r06W24ehN3/Iby7RsgMsBoEWjrI59VvMAdon7EhW4DT5zkAwdMkTGXnW9mlpSUREAzVrT1tyku56PnlObaYCrp/iYeKo6cNlRYycm7JbZb8+Sb5YuB38+fGxk1bXxfCkKcqSQMFeNVEeMcipuSfKz4XcWj+ejLCwaUcwY1LLOfPA+OeHkgbXSFJk+OB6nprKwmgCwZdHstGyAO8DGRGhuQ5mnpCQrF8HAgQPk5hvHyfCRl1XOGbVxprmQwJLbcl0dbmqqei75o2IzDXD1nEazSoCamP1Y9ftydMhaBf64uZKA6Gg0Wr0FBQZKMVrUEchIVmkpKVEaHGtEzdw0vsULWW+J6gQSUw4+7RQZedH5cuGIMVWOb4IUPzlMcKv+ab8THxoW4SuGEbYdxANlD8z1vOXDvFnLBjgvNpCGDy4XlSKUd69evWTMyOFy+VXXKjaQml42fGlRo2M/D1czJh/myWw2p9MA14CpqMmcoD8uLSNFpk6dLssQdMiHqdIe2fYEGA4fmCzkXjN7nVKN4+8GGwjYQZBkywJ6PxBqDji5v1x1+Vg5G02cveGo5rDC3OV5TTJKfkdN0D7fTbn+GnAfzXPTlg1wvpivEjCiWBkd79wFlPUXyuVXXg2mllglbrPJeHXZc/1Qo9M+OdesSg1wDZCrUZJlAJT9YKLCP3+tlseeflrW/rNOLVaCGjU2RtDIeuGN71STYYCaD/xwfMtTwyvHA8Eu9ungn2Onq7PPOk2uv/YaOXngGSpewXQCvv290B+1yjmr0CEZAEfNzdj2oMbGf9NEZves5j1aNsB5Y35KihFRhwvjdCTz3jllCupnT1QiT0lOlAhUMHBdcD6K0T+CWps5HPlXm/e8Ne+r0wDXBPNj5mr9uRqmKph72QYwBVUG8SgM94e5ylFUUGBLHyGjB9oAImeO9D8EwTxUTzCiagHY0dRpG98O5TwnycUXDZcBA0+r9QpJ7VSEh6UCAY/YOINIs6ZBUE7Ysx1kmx0rNQU+VATEw0NmWR8h1w1wRewTC946Ftsr3xWE7mVLm1EarItLtUhoSgDLzC9RN0PadzaLUXWzuJ4dWzfLGWeeLjdef6Wcd+HFEok8RA5eq1kPXB8p6G2aVgIa4JpAnuazVYJyqu+//VI+/PgTWf3nGkkHy0dwCLqps+GLrZzKJKskhxtBjtpVPvsywOnMXqwMPAT4+6B/aayKrg46ZSAoz3uhtOfkOq/0ACoqoA8atae1BCKa4FZdeIjmDXA5qBH2R+UKadI5b0w2ZuE82xeWI6fxWLSLPG1APxkzapT0O/GUSp8no9uck+pavwsFqQ9tJwENcE2wHEyAYxiAifU/LvlWPvrkU/lz9T+qcxUKjsQfvji+zel3M/oiGOki9M0w2BAEnjlqVfl4IHIzctR21Fbi2rWTtjERYN+9UsLCwiQquo3i8A8ND6n0uxE060OYSE0ucd9uxSLcsXOPyjuvzT/UBKJpwCGaN8DtS0pFFQUCSKgI4TwVFuRKFqpGvFHGFwKXwIxpk6VP757SF4m8pjvAJO7kXGuAa8BSaMJNNcA1gTAJcBnpGRIWdbCpDAvzP//OXtKfAAAgAElEQVTiS1n28wrZuGmTdIF/jXWoJttuGU1EdFPyd/dUTmZVsGCjNuJ2eSgiL0HHcw6WWnXv3EmCwHIShSY20Whew+70IeBwC0ZXen80xOl/7HGIPKCrFvblD6so2KSFvxPYVqxYqfyCm7ZshXbYRu6Zdm+lA7x5tKVr3gBXhJcCyTZZL0sfWkYuakhD/KRLt67IZewk90+fhkTe8Comf8utKmmCh6KZHEIDXBNMhL0GZ3+4NX/9KW/OYp7cMiQBHwBjBBqq4AHxVuwj7FGKfp94u7MpTV5ODgxM1FdSu2PTZnxfAYDKRQ+CfPh9LFnpoC3xl2BQBIVifxVIYKd0Hg8RWE+AG5xBCtAIkOqTVQ4kASChJnP4sM+mjRvl+P795YvP5kuHTt3VNhxHXsNo3gDni1rTMnbCyi+QnJRU8QkIlgEnHSeXjrhIzkUib48ePSvJUilPrb01wYPVBIfQANcEQqwN4HhoanJff/udfPzx56qvg4+fl4SBNocgZgF4UaMj/1tpablkwzwtKbCKj78XGqn4qe/ZSIY1p+lgL/FCZxIf+HMIluxFUAqmE6XhwcNekp0ORzuCFzZqYPtkYDL6+qLrVDTYUghwffr2lZ+X/aDYLVis3zwCDc0f4IrQJS05PQdz6Cd9enaVC849W1GOd+vaGdEEdjUzVoKRM2m+OPCystUmN8FS04dooAQ0wDVQYDVtzmWt0jngDKOpWZ07Mi01VZ577hlZjYbOG7ZuV4cIBeAQ3IppQkJr80ZDiCI2lSGVMIY3UlHYgYl0R2zgbCYIM3eEUTuan6U2DjoYuDBfA9QDZmxntAY0o3f8jtn1nTp2kl9++UV6gf3k5+XLJDwiSjLRYctsNtwEonDiEM0b4MgaXAzQCoWZesyxfWT4Beejjvhc+EhjlS+UQR66CMx5MkHt6KkVdmJqj+CuGuCaSPg5MDEDQ0OVs1+9u/EfeNyQ84aIG/5JXrlXXn1W3nlnnuxOTJC2EZHgmUMuHN78/Hs+fGYBCDSwvRw1ACtodvJtycLs4K5Aj42dbdoAo7IcyqQlbRB4xVSuBGiEKmCq0ixF+xnFD1eKKynKLZLj0Gjm1+W/oAViJ1mO+tl2HTtLwu4dMFW7NpEUnDlMUwAcj0FZNfzTUZpJShr6kyKw06t7N7l8zCi56pobMFfGvDBdJ5B9WZUGXbWemH440lqxBaIeh18CGuCaUOaO+OSysjNk1a+/yAeffCTfffMjGsBkSQT42thzdQ+0PPrjmIbATw7VyR0PSLG1DCZr7Y2NkU0HLYJnh5lEgMPTWv2TxJwhEeGy4Z9/5Zj+x8o3CxZIDCouiK6qPLYJ5dC4Q9UNcPuTk+WswUMkDQ2TY+GHTEatbxRyDEvgF/OivCqgPVEGuH8T6O0/FR8lNVzeqVK5bA15AIgH8L0nXhSMJlMr5kuDCbtM7zCb2uzZvUduuXmC3Hvv/dDa2qtbJCGpakaNffzsCEkbd/96L1dIQAOcK6RaxzGzMtJk1Ypf5NvFS2QV0kjIJJyTWyDtOnUBdxyLr0skhzxy0PiYghDK/gzQ6pgvV+uAmuZhe4Br28aKY0dAa1y/bj2oyo+TRV98pjpqmc11mlNfVPt7MP2bdQMcEnF4I3WoYdSKjWEAm+03G70VmmWDnJI09aw8Ib07+2cUIDk7ECDK724DuA1BMKFX3+PVvmZtMjU2Alzzr/U9zAu9mZxOA9wRmoh9CbvkywWfy4KF3yKF4w+Ja98BNanQ2mzNnZk7xz6o9MG5w8zlQ6cBrjYNznmAKwZnX1CgH4I/HjA5i5D2ky5tQe1+0gn95MT+x8vNt02uZP1QlRSoHmFvCEcNv4/Q8tKnNV9neBO5uMhFy9owZ8oPScXISE+Rj+fPkx9//k2W/v63lFW4I/3AUyLgyPZBpJURC9KWp2blS5uI4FoFedBErV3WWoOrW4Nzp3WLIEIhit8LkArSpk0bOeP0U9AgZpwMPO1gk25KmCVuBgGC4TbQnG7N9xnXGtxhnBsm1DLfzN6cycpMR0u/rfLcq69Lwv5USUJvh8x8sP0G+KpaR5o/OehHEIpk3rqG4YPTAFebBByZqKUot/JEbwQ/5Lt16tgeOW7HyzkwSU8eeGatOYLmMemHO/J5hIdxIbegU2mAO8yTxbwz0ovbR9sITbv37lEpHAu+Wiir16yVFJQGMQG4DSJ3PjCFigrzNcDVGmRw3kT9f3vXAVhFsUVveq8khCT0Lr2rKGJX1I8F7A17+aJiBUFQimJDsaNiFzuKoKKg2LHQew0h9PTeyz9ndie8hLzdhBDIxx1//gsvr+zemTlz67nbtyai5rejnDzoeLkYFPLHn3RaJQ189UoPAhujo3zkXDpm6mHeRHX4Ogfg6iCshnopAU73ZF2+ZDEo0BfIH+CW25G0Q3VtZ28Hu76rdtfmmKjWJmr3YzpL7x5dZMiQs5XW5joKEHAgkBkNfkpUHTGrQqiJO0m8divvyP7dAbjDJH8m1EYgsVZvCG6UXHD38/Rn7ls50hb8QJnEwYDgpx++J++jc9ffy1ZLxt7d0qZdm3pdqQNw1gD3/dw5iCo3ryyUz0GvWXZMCw2LqEIpXlPvC/rk/v+b/tRreTXaNzsA10imRm8/3S+TDWjY8Hn+11+qov153y5UV8o6Vhbd+/n6qwoHRldZWB+I/qlMJWENKsu1+B8DG2QLJsccBwkX96amS4/uXeSZqZOlb//jKu++saeJrFq9UoZffLlsSdwhnTt1kALSwKs8tXLJRNPopv5G1zJqvEUkGUA0OtDLRzWB8UXQhnW/GThQ9u3cLZ7QvrqCgurM0wfL8GEXIQF6gGJUdsbRJwEH4BrJnJaaXeyrM/iWIkF304bVMmvWLElITJTVazbI1q0JqoY0LDwCzCJNlGN8d3q6FKBelSM8LET1edDcc6x7LQUIEgwSErZJ73795NUXn63CMdfYAW7jpo0y7JIrZNuO3dK6RTyK3rPVvYYB2PwA+Ns2JYDNI0SCUCeqNGLW6gLUinHfhWzjl5qBSpMwaRoRLu2gDQ/o21sGnzRIevU9ToLw/iN//41kIR5ll+EAXCOZUPp5dHclOrWpbbn6d6iNrVu9TL799lv5+bfFALltqj0dy4BKK9DJHmkN1N5o8tI/xBSTQmg5mSgjYn+Iju3aSi4aomzeuEl69u0rM2e8KD17G02IqT0aHSCO5LCuZEhI3KYALmHnHmkVGyMpKI3LBRNyaICvRIKmKC0lWfwB5EYTbiMthwSiZAImWUHrli2kJepGCWwnnDBQunTrCeqp6EakwR5J2R+93+0AXCOZ2+qsHq55c66ElHzd9oRNsnzZMgDdb7L4z6WybtMGaDVtpBibmgDHTl7kliP4lcDXRxLOmJhmkpOVKZs3bZaBJ50or730gnQ6povy92Vnpkl0ZJMjLAlrgFu+YplcTIADsLdu25rcxZKDeysA+0pIqJ/EhMBEL8qXdDRbzoI2S/M1rlm0RDeLkybhIXL9iKslDom77Tp0lijw6enB+8/NzsBrIo7w/Ttf3xAScACuIaR6iD9T1ztW77yUmLBRFv2wUJavXi3ffLtIkrNyFIiRKy4QKSYRML3ILhsK02zlytVKs2NfziFnnS4vPf+8YgsuKmZWfr5EhBzpYnBrgMsG1dTQ84fKLyALaA7y0CAAGn1reQAnVISCM8/oS8sRgRzCZggY9OzaSQb07y8dQEp5/Akn1TgrLJQvKsxrBAB/iBeN83FKAg7ANbKFwNwq1c/UhZVCsYuQHBNpCdUTSqnpZWWmyycffyTrt2yVNes2oMFMkuzalwLtJgd1rH6qyD515y6JQnF9NBhPzh1yhowd9wjqLAOVeUqT7sj7oKwBjtD14AP3ydyvv5PkzBw06IH/LcRPsnKKxMMbtaQAuBbxMdDQ2knP7l0BbP2kT9/+0gIlcK6DGhs1W8qUfHs+3kZh6pG//0a2EI+Sy3EArtFMpLHB2S+BGls52XjJbAFTS+VcwSfHQZZfPldZMa6eBSMG/j8jO1c2rFspq6HRrVy1WtZv2Cy7du9RGzoChfa9enSWNq1aowTpRDlxsFF+lAfNqHE42e0BbtZ774CgYImsWLNe1sJU1Zx5IdBQzz55kMTHx6IvwjHSqXNXaHAtqvDylaDQV8uU4MbDwtfPu5JFxQG4RrMRDumFOAB3SMV58B+WBUZe1jaSGlsP1kZ6mK3x1HOqccOBxEalYArxwoallqP56MpLKtALYpmsXbFaduzdhcJ9Xzn2hGOh5bSWpjDfyFNXiPel7N4FLadlo6dL4u2z4xg127UItvz86+/QvrzhV4sFoB0j3bp1VyLS989H3l8xALywtEAiw6Kh6VX9O+VVVoxoK9JMgoMCD37ynHc2Wgk4ANdop6buF2bHR+fu73X/piPzjtqwQiiqN/zU5fHI3I3zrYdDAg7AHQ4pO9/hSMCRwBGRgANwR0Tszpc6EnAkcDgk4ADc4ZCy8x2OBBwJHBEJOAB3RMTufKkjAUcCh0MCDsAdDik73+FIwJHAEZGAA3BHROzOlzoScCRwOCTgANzhkLLzHY4EHAkcEQkcNoDTJUjGI/p4opmx7sLu7s71e/h3Mmzw9fs7t6PbFJI+Xemi+foCkBRy+KFO0eHJPyJryvlSRwKNRgKHDeB0LWVDUTwTAPnZLMGpzpHP0qeG+t5GM5POhTgScCRwgAQOK8BpDYzaG7U4alwsFleFz+QwMwf/zuEKVPq97ubQlVJIv4bAxuf56A+NzhmOBBwJ/LskcNgAzlWs5LXXWpWmAOK/NajV1KWI77Ea1amEamLl+HdNrXO3jgQcCRx2gDscTXL5HSSGJFA6mpuzyB0J/HslcNgAzg7Y9u7eoUxVDj5So0M4wpgZmLNBQUZndzLV0p9m/HhVBh7Yl8AZjgQcCTgScJXAYQM4/aUEr9SUvZKemixZYJ8tzM+XYpifi376xfDJAdjol+OP4kUD3zafDwKdjZcJbOwTyh9GSflDTY1dyP3QQSkkLBwc/dESFHykGWqdheZIwJHAkZbAIQY4+NHQAEU8angE+VZCwjr5FUD2wy8/gUIbzLM7EiUnMxc8ZhUSA0LG4gr45orBXluKRiolZYqCuibaG08vmJ4+/uLj7w1eM/Qf8PWWjOQ08QsOkPjYOPCDdZCBYHQ97vgB6KDUSYIBeqGh4Ny34tA50jPRWL6/rlxDh+r1h+T+Ldafu3Wpnj8kX34UfMjRJ79aAxy5/K21IgqnVEoKisUn0A+/k3W2TLauXSMrVi2Xhx+ZKkWlxVKGpiC5pYXi74F0Dj8P8fH0kwpv7BIAW7knWomUo9dlnR/RHzQf34tIKU3XQjDYlqOjUgD6DISD7TUsIkImj70fbeMipTd6YIIet3IxVkB7zMnLVSDI91JbZMoJNUMGLvjvvNxsCQ4JAzGiEeioHtDQH0aN0+iI5aM6XDEnj6bz/4UfkJ1pSKbJPEUSbaJ7u/IO4J4zoWn74Z4qmIbD3EP8jXFuhoWwgKSMDLl43vXfHnAr8Hm+jo9BkJ/lqCXIUMbpackSFd1MfVzC5vWK+TgOJJ68Ii8AVhkO2OqPhWipGB4dJVmpaRLZLEb2JSVJWmaKdOmO9aC+24jcH81j756d0iyWchLh73noytamfWdlUQWppuPu5VeG7mShUZGyZc1q9J0tkq49jlX7uwB9QLzRqtHHt3FmKdQa4FzTMFRDYaRf7G9tB1ZUmJo+AQA2LmgAzMa1K+WHH3+UX3//UzaBXrqI7e2w6UvycqChgXYbm8nHDy3ezIa7FWBfrc+oKAettz++H4u1DIT9+Xl5aI6M5ithYRIYEIiuUk0xif4y+MSBct5550nLNh3ECwy6epQwjw6b2F1yMMGNYFfXDuaUEwfz8xr1cAE4cHuD+nY/wGUD4M4+5zwjzxDA7wk2YB3pLkeTA8rFC/NY6UM13Qquidq/Ll5sf/u1BDl2nQ9Bo2u6OV5/7RXZhpaC61ZvUBvU3SjCgReGQ2z3nj3SAX1R09MzJD4uRt54YybWgR/cG/Dx1vL77W+kcb5iFyym+BathS0qp0wcLytWr0Nf3QjZtTdZAZWV/Lx9vKVV81jZuTdF2raKl6lTn5KIpjFKkfDEPpYKrO9GKL9aA5yeMm7YQgiIuWrs2GQsdGpvBJZ82bx+tfwIYFuw6FdZvW6dbN+2Q721LRZVWVmxlNLnBoDzhQ/NE6Yldg3ejk3CDVaP4eENHx0+U/XExAYtyM7B95Wj1yhOlwB/Sdy2TX36gAHHym03XCNnnzdUoszTjM+X475oKrtqZzUFRqiV5UPjy8xIk+TkvapLFa+9BPfUuk1bad+p6wEgmJ6WIpFN9vfgrMdtNtxbbQAuCouZA9CGQ4D/b2g87GhFPynb9Ln+WwWKdJAIfyipzfxabBBuSmrCrilEm9avkpGj7pOfFv0oXuwm4/J91QXFj44ID5V9adkSHhIgmTkF0qdPT3QlWyCBaMTTWDfooZxwfTDs2L5FLrtqhPzx2++VHx8At4+V/OAxghbvgWY/FdKxUwf56N03pHv/4433q7ceJQDHhcZGuv7QivaDARYXQOqPRfPl7ffel0W/LAagJAll1jQqHL4xno4eeAlMVPDql/PEx4mgtbdDAXDU4Lz80SxZJRFXAEjBxY/ThcMX31UKrTMF/TJ79uwl9955q1ww7FIJgBbAkQuNIBi/66gtNxG11Hxom2z2ohsy896XL1ksf//9j6xCY5ct23ZCE0jH5cO0xgbv2KGtHNe/rwwceJz07X+CMk85qvc8PZSL9pB9lg3A9ezRC/OFQ8kb0WsmYmtzlqCirFsDnZQM1f/MiDi1Ofxsg0loOywAjjJkzwpXgNuZtE2uv/FmWbBgobRHr1SrDVoGt0hoSAQ6jm2TuBatZFdSIpo/d5cfFnwn/qFYn410g9rKrA4v0Lmn2VkZcsGFw2TRokU4lFsLgS8C2q2V/ErRWjEQ8tu0cbP07t1DPv3wXWnVscvRBXA6v4xmnDbVKLTkvTvk0w/el6XLlsoffy+XbQmJEhzoq5ru8rUEgLIyVBTAB1cK85HmKbU3T2/4uHjOQ/uprwaXn1eqTFKanR6eHurz+LkET44g+OF2JCZK/+OOk/EP3C2Dh5xfuTTy4WMLVCBsdETnoF+Hv2utIXnfblny1x8y79v58vsf/8ga+BZpnrkOX3RVb9WqlXTq1F6GnnO2XDT8UmkSbWg+jX7YAFwbaKcENhXBppkKGXNQeyuHv43P8Xf1HP6to986gTslK8teBHU0cTgnI0feIQt++EFC0QIQs+b2O3btTZdWbVrInqQd0rp9e6yFbdIRzWq+n/81fHKxRz3AEdRYn81DgoA29IILofn+JN26d1PdxvLSUy3lFxgaKf4w5VevXqs039mffSjxrdsfXQBXvQEx/71q+V/yz99/yUsvvS750HBy0lOgLTFvDcXu8ImVFRap1nQhEaGw1wFy+Bt9OPybB9sccTMA+A4FwPF0p7bmBa2L2mEl0GHj5WRmShbMyVNOOVWemDxBeh9frREwc/AIjNT+TP+i624ZN+Y+WbN+I4BtvWxF/1E9WrRsISEhoSqgkJ2dLRn4Hl98f/8BA+Ty4efLVdder/xFjX7YAFzHDp2UaerLWl+A3H7XgqG9q+cwKnigmIeKBjo+vzMlxV4ENgCnfXpF0OaoHdPUGnXvfThwfpcAHwIcDjQ3IwW+o9jmLSVpWyIc621l5/b9GlxwZORRD3C0PrQlsg9d1s4acp6sXLECHdVaIF0rQ5rAV20lvwK0pAyKiFQuJ5qocz77QNp37XX0AZxrTSh9IO+//758/d1Cydi3FwCGLuEwC2mCUkvTDnv+2xfaFf5QaZ56+cGfgv8qKpDvdggADh4CpbHRFKU24QFtiuaU0ihKyyUNG4yBjksvvUiefOIpadayjZRioxDM/KG9FQKg/IMMk5IBBW1+0zTavGENfBbXqby9lOQU/M0bPrUm0Bj9YMJ6K0Bj/l5pSYnkwj+3C02WCa4DTzhB7rrtJrn48mvsN/eRfkUtAY6y5QFiB3Cu4MbfdyN6aTssAM51TvTnJCVuljtG3o1g1g8SQ5CyADgeoAHB4bJ50xalyXGjdu12jCyABhfNCOy/wETVciPADTl3qCxftkwB3K5dO6RVLLRYC/kVIAodHBkliQnbkYbVUT6b9bZ07tVP7SFGURur/OoUZHB1uvNE+Hnht/L086/IDwt/UD6Q0sJcKYLG5o+O6X5+wSrqxiTeApwQyoQxKxW8/XwQsaQ/Bf6y8tJDAnC+AWEAN5iVysdHLZFBDKQ2mKZqmNoAIldccqE8OH6S+j0dJg6bIjdDZImpIEGhRioDmU+88H4C9JaNa2TB99/L2Ecmq9f6Qk2PQs6eDwCUMkjanmSasv4SG9sMf/dH2D1Z0tLS1WfdcvN1cu+oUdKhs9G3s9GOWgCc1pApW1aUcGiNrboGpwGOjxz1BTjtIHeVX1rKPvjgbpT587+VWDW/7k1Ub5hnAQFBsm3LZmnVtp0kox9sx2O6yNw5s/8VJqqr3GjaX3LZlbJ0yRJp05YR5RTxVlkM7uVXWlIqIQC4LZsTYNZ2kY/fe1M69ugjRbCKfAIDsdeRkVBHF8Ph2At1ArgM2OkRuEn6psbCZPv4sy8lH1FRIn+gF9Mg3AuIGlsxhJEL5z8rEkLCgqEJBACMEL0EKPnQB8YcLP6HfDpqY+UUuqn10az1pNnJSClNW3Oo10J7ys+Gfw/vYQSVEb1gCN0buT3aKZ2TkSmRTaPlu3lzpAVyf5jfpXK9cC1MESGo8Xfm+rkC+U8LvpZbRt4DM9vgmXM3mPum35cDUzU8PEKysrOkSWQTuX/UHXL9zf89gMZp/z0YpWnqQMB10E9yKAcXdNOYOOuPpPuMpqUJXFBHjXxBzEka3t+qVVsJhzPeFxUl5TjElN8NJzc11fJiY748mabDj4ErQpXUwc/KaHYm/G/52CC2w2aDcN3x0NHaHP894NhjJSVlt3hBS7daf0xD8saayIMLIQAHMNcW/UqrVixt1BqIrczq+AItw1DMZVRUE8nD/mUOXAX2gJX8CrFvmzSLl40bNsFEbS9fff6RtOvSA/ObJQE0bxupBlxrgOPG04GFP39fJFOQB7N02Qo8R00mxxbgyrDAFUhBq/JEl3WapxxG1A0mJEw/Ah9NWT9sFAKil6ehRRGkqG3xd2qC9JVxA3HRUiukWRoeFWuWdhl5WRyczMLcXJX4W1RYjMhmP/ng3TcVwBXDJPUlhZK5oYugjXnhu6lVMiiiTdSZM16Uhyc+ZssnR+e7BtNMgGlUVBQWD3LxoPFdffnF8sikqZV1s65r0or1ZEdSAkzrfcjfipCmWFxWIylxC/xSgUjhKQAAlEhb3KNOzGbysS1oOgDXKDWQOuKX7csdgHMjIp3oy2TBJ554XOZ+873kAjxC6WCHaYqQgfUJCu2AgQVPVDCUIROameUlAD36swholdqM6aCm5qa0AROsfBC0YO6VhwcrJMyjXrEDs2a1VJL3ZKjXq8+Db4ybXWln2PD0C9J8veqqy2TixClIUGxm+A6oKZmfxTw4JvoSDBhVohOb4DJp0iMy/YVXJb65NcDwu33xfl5vGvxNsfBp0DxPhe9vyJAz5cMPP1Hg6cpCXEkqQG2oWiIwyQe+njtHViIdJSQ4GDLmCet+GJx3/srPyIPg1JMHyzlDh9su+P2Cp7AdDa72Avv/fKUDcDbz9v7br8ljTz0n69etR7lMFCKINOmwMWxUXMMfhogpzJdi/PB3lW7CaKu3vwTB3GH0lWZmcXGe5CGzOg9qMRMLOZh2Qg3PoCxnTp0uzGdKQpm063CM0uQMM5VaHEqFkJ1YBC2KGlxkdLQ8/ujDcvHV11e5Q6XJaSYS4Cb9agQ4aj90Yo+6936ZPXuOLcARYKitcQGlp6Xh9c1xH8XIB0yUwSefLN9/N78KAwovwgA4g1SgeoXEiqWL5alnpskffy5RycopNlHIMPgPvQGw1LRpLv/nnDPl/gdGS4yN5ucAnGOiOiaquQtWr/hHJk55TGZ/8ZXanM2awakOE9WLgAONyM4HQgBS5T4o6SKoMdJKn1l5SaHs2GmkEdB17e+PEisk7dJXQj+dCkbgP5q1LsobtCW8F9UR1DxSkrPN3LVytcGDERENjsCmZ7CBdZJ4zay335A+Awej4gK1pqafqzAnS/x1nSQAzlWDYyLpfffD1/jJ7FoBHM1Ufk92VrbExcUBWAtle+J2OfOsM2TuV3NtAc7VDbDkz1/lzntHy+I//lAyjo1jlMv9SEIibSCAMC8PJXO4/6uuuFimTHlcYuNb1k7VcExUx0S18KEf9T447pKnpk6SV15/SxKRMNuEaRLQWAzNBWkDNhpcSVGxSqmgJsdRWlCEIvd8BCmQVoJ/t2wdC9MySKKbREpcbFNp2SJeWkILYg0pTbTdu/dUcdIrOnIXWqXPv/oe2lehStPQda/F/HwALzXGLt26yax3Z0r7zt1UkXEQCu85yqHxeKokUQxVa27QMxEUmdv22ORH5DmYqGEo2rcb1N6oYdIHFomoHqscGH269urL5Olpz9uaqK6pEEzBuWrETcgx/BsBgqYA7GDLr2cKSwgcx6kpqSoZ94rLh8OV8LQiCajVcADOAbh/M8Bxw90Lk2fevG8BbpHYOCHKBCMQ5OfnSJjqeeA+isqAgE8QONoAALmIxmZk5QG4AlTIvmWL5sgXu1H8EM0Jh0M9Etn/UfjxhOZiOeifM0HOC2kpjIzu3J4gG9atkWUrVoLFZLWs37QVAYp9ct7Qc+WZZ55V5Vl5mekGwPH9usQIPjqd6uD6nV9+OkvGTJgkOTksRnY/CCpM9KUfjBoX/YA7d+6AJhcvkx8Zq3Lhauor4QqorsEABhiGX3KF/P3XX9KlSxfZuWun5feHIZJFU4shjVIAACAASURBVJbRXs7JReefK1Mee7L2vHgOwDkA968AODf8XvM++0hGPzpF1q1Zg9yZtgizl0ou/FU0Bffu2iPNosG3pgTEousDH4sKSyUoLFQFCTJAz1JR4SG9+vWREZdfKkMvGiahTVDSBPoVTbPEx9KSAilDCkJJeQkAFYCk/86ERLy0BOZpBdIDSuFvCww6sFogGwXxqUhqTE1PA63OZrlsxM0KJIqh1TGCyvQQH9NULUGyMetJq7OJrFm5RG6+/S5JStpuCTA0CxlcCAoOUkBD05iabudjOsu7b86Qnn2Os0wTIfjlwlwODobGBU1yN8zjocMukWXIVerdt69k4h6sqNfSU9KkCdJgssGSUQY7/9KLLkDkdhI04HiQAiBNpCnSRHQ9dfVHfWdOkKFWyu7/84saJMig8kfNYvuD5QdsIKFWponkZGYgNw0gZWo1NN2yYcqFmywYbWAu0pTUPGCuj7y2EGgQ6cl7JA+mZxh8Z57+TP4D3Kn8OPCFoe50R2KCFMBU5aa/7qrL5ZoRI8DoQR+R+ck1EWVaEhVqgj71FdaElnZ/ryZgRo1LoKHSL1YGMD9u4InK0Z+JPKpQADV9bNTSKCMm+zZDki9zi+gnTESdYz4CJB07dZTbb75eRlx/E0xcwyR2OzSZiov8WVnRDKauByoHapK763z4wk2wI2mndOjYXmXrj7jmMnl15rt1WzYOwNVNXv+Hr25QgKuPPBooSbgS4EqRTsFsb5UAy1Icl/Hnz9/L5VdWjT5WvxfWfjJCauS5gXSQjLzMySIHHKmIECGNjo2RNq3byInH9pGh/xkqvQcMVLxjKkWDaRINdJMHI3f6+OgTY/kVC+/vvusO2Zq4SzZt2giywL3KFI0BcaIOYNDvl5uTa+S+Afg6duwoZ54+WK684nLp1deklakjwFE7jgLAqdIom+ENgNsNgGsLgEsAwF3tAFwViTmJvoY4DhvA8aA2U7yY58qsCZUnqn5wXOuEctdZaoD9vz/Rl3lnZP0AIHnR6W76pgrAPDBq1J3y3Xc/Wm4xlb0f3UQl5xIY6ODX5ToUaiY0nZMGnyzXXjZMzhxyrqoF1YNJtn6gXzqSAFcT95smF+DjulXL5C/4w77+boEsXvxXZSkWAy0RkRFIsC1U2h1Hr9695dJhQ2X48OHgh+tmh03G32vQ4ByAqyo6p5KhdkvJ6lWHBeA0uAFPKn3MOpBX/eLMlC5VVdSgAIcNppJfcSEVdLibWsNuMDacdc5QyUXqg9UoQMlHGCKr1HYy4YsKBMmkH6KfHCqyiPKeS1EHeveoe1Xtp7GpSWmEsh6lvRHZ6z+BB/sJdl2/+Lmsh5z/9VdIcv4GVRyrJRk1pxxB0LQCWRqGQEPz+Dg57eRBcuGFF0lb5OZx6EVleW0OwNnOvwNwB7u697/vsACc62VqLU7nd1W/BQ2G1OgaYP/v1+CYIEvtDU53lSdG+hug6j+//YjCXHs2jBKYaEFIpSiCmZaNVI0mMTDfcFMF0OxoYp0/9BwZdsF/ZNCZ/6kEt1xEM4PpoDTpsRviBuu/JKp+An1yZBdZtXKlJIAlmPRITC5mDlqrli2hvfWS9gA2zQPnjn7pgOtyAM52gTsAV//V3GAAh14qhpJSM0pReTKS9JGsrxWa6rfTkABXAYe6YogA2Lj64d56ebpMfOwpW8nSRI1AZUMJTDWmWzCamI2M/j1wzMeiiuCbr+dIu47HVLLoFoK9g3a5ZtU1VD3brzksL9C1rK7ssTXR9fBiSFnO9I4sRGxjm7eq0mCGUVGyi9Sqj4MDcLbz7wBc/Zf/kQK4Wl15A+z/KhocogMGApvRNGb533vv3fL5Z3OM2k6LoQGuFFFSFq2zbGgnsvgD4IwfOOgEmTPvm6rvhilbqbnpvzTADdZKsC4vcq0PZdoITxwNZHXptcqFpCsT3DWyqXJtDsA5AFfXxXoQr28wgGOaiB70q2F/G32NDbosrSzoXFDXf6tsgAYKMu4HOL3BXISWhhyyq64ZIb/+/ItEQwuzGqTL8QsJViYqgws0S3eCc6tHj55y5603yLW3jlRvV9ohQVQXl8MGT8b3NGUDmEYCcPQjavoiV5BzvX8uFDLLMp2EoMg0EFY+sJaVOXGaxZefQ645W1ZfB+Bs59/R4A4C0aq95XAAHPc4D3emWdF9w7rwXxf9oMgogoERoej/EIZGP0xLC0QdOIOaKh+1AfZ/FYDLQhu2sKimiDYYXGCr//lDLrrsKiGXmp0G54ugwvaEbSqtIQQ/WzZvQtMZT5A93iGTkFFfWQ5lNUcNcIO1XRK6MYzuZcrOWewaxkFadjvCymKYqTRVCXRZ8C2SNy8H5VPbt22R3v2RDoNB8GNghdz4BEcCIzVdLoQgVnm4VFYs/f0nRdP0y08/Ky58lmHZHTAMvTOtJQw8X6ecNBC5cFdLH3w3Zc+8RnXAmKVori39uAD9+P2uA2uAlSokIsgEq0pz0H1b8cFRay9DtQoPukoyTPyeZ7K5kBvP3dCdLcot5l/TV7mSka5fw367j8pXqPONVwewdSWNJR9cmZcUlnBTFlUeRuwXmrBlI1hv2+A5+5K3PK4ZyItuC/ZA6HhMj9ouP3VQ8n2u+ZK8PwJSB5QX8rqsBueKlgKVBa4zfrfux1u95SdfV1c+OKZ/eaPJesLWROnevat88ekHRtMZ9j2BS6ogOw/ksGjs/uuvsmQ5+rJs3yV79yUjNxY/2AetWrdG0n6JWvckyiCe+IFbMBjy8oWV171bJxmElp7/uWB4FRlQQWAXPxLNcmjWHdd7soQULHSz/RE2IKKEyidmAtyir7+Q628ZiZw2CM8mF4s9SfeCqjsauWHMEduOXqjR8MndA4C78/6HajfRRxDgNGe9BjpGTEmZRIFOmfiwfARyT6sRCWLLAmzmsNAQEDxmg+gyQhEEMJo8E703CXiqUgG1oa6+vcrPNDW4DCRLJ+/ZJQsWLpTP53wNBtqtABlUXSAKbQdw9H3SVcCa3GYt4iQeTX9Y/8uaWOV60FOtUpQ0uajxxfPnfinNQWqpTnjONXujqhXlI7ymFoh8WwEcyS1JDV8JcOTrw6YrQPCJbC5ZihjVZljMP+eDsuMBpA+exISNMnbcOPlyzlxpytZ/9QE4k7BRH3BcD5/MekcWojELwWDlGvZddT9C4XMuQkOl0NAglfNJxpsrL71Yzkf3Nn6mbaI3PpqHKjcy2aR//2WBvPn2u5K0c6/ENYuSBACG1QiDZuSPPViIdcJep5dfcrGcee6FB7zlYDU41pIHQOMiZfngk0+U119+XjWNXvzrj1jXOTJ+8jSV9J4Bn3suUsT8UK5IhiB96PqHBqt+LMy31W0FfJF9wAPeE4AbAYLYoJAgaQs6+ZMHDZKTTzujskm1vgmCWk0WlVUGRBUNrjK4ABONPQreemOGjH9kCsqoIhRrq9XgCZ6bmSWh2Nj0W+0B2LVp304mjn1Qhl56ld3SNv5+BAFOg4/2m+m6UHLCXTj8ElmHLlpWgwnN5MeLwEYjXTlBvhAcbh06dJDff/tZdWIneOrGH5ysPeB8K8ZraBKvWrJUdepas34TSqvQczUtVfbt4mlcqMrh7DQ4L9DAM8HY6HxWqMhACTrpIBLNBbhEwizQ/hDlZ2TypaJrMgDuzddfltPPOgepPtCEXPyw/NtecAC2b9/JEuCY6M3vVJ3MVKQMwSr8zmspgvaRRpB1M2qjweVCAwzBPVDb1QC3bcsGuX/0aPn88znSGk2cDwXAGXRTvtC8N8nkKVPk/Q8+Uc12tJzc3QPvk4N5kUxsZ23wSPTjuP/Bh2pPeGB+OAHx3bdelyenvSAJCQnqWa4nq8Hvp2uERA9t2rSW21BBc9c9DxwQ4DpYgKMG5+MdIDu2JUinLl3lthuvUfRls+fNlx07dqEN4y7Fu8g1Rb97WFSk6lXCQcAvA2ejWm/AESpMWp48CCoA6FwfBZB9IA7zzqCSP+PUQXLxsGHS99gTK2+b+4dUZnr+awMqbn1w+3Zul8mTJ8rrr7+Ngvg2UoyNZjtwwySvpLqcCvX0uIEDZdKE0XLsSWfYvlW94AgCnOb8d6Us4iXRbOjVp4/t9XPhsCA/HADHqgYW3LP7FhfbyhXLD/DB/bzwG+TTfSuJaGNXCLbhbVsSwIGXDbV+n5QBfPwBVmEgNCBFuKYFt7qIfWj6E4lT0AenJitIuHD88H7VtlGxnDBYYirrSnvjPw0tjmPMPXfJdTfdVqMrYQeA5JiuPS0BjqBW2abRBDgGq2iSUINLh2/WdtRx/km+Ouah0fLFl19JlDLh62GiQoMj6PPgYdR7N9b/uIfHyltvf6CAg+0grQa1chKcclPTHKfcCXBjxj1qe9vGVBi09Xwff3/vrRny+NPTZcP6DYqqK0CRWVgMs754N/zesSgjvPXGEQrgXBuZ890HC3B+gawjF9R0JwCEfKUvusYVoBzx77+XqovqfAz4GHHA8bDW1kEZNFpqdyxbJCNOZfUCgxBkAwIYU5srwk8WtD8SeNBHR7Cm1tyrZ3e54dqrFHEr5cK5KcLf2JO5VoE7QkqliaqbjpjRzUQ0W/nvXffI998vAJlkBymC2mk1iMq+UNNZyZCyd4+62aHIfRs/dqxqTlGrUccFXqvPrOWL9MRXBzguunbQRFPgS7AaXEhc2AQ4DnLlEeCao4Z33bq1ijJcBy7Y6f6tma/Jm+9+CM1wrXp9ExBs0pzVfQ7Yg5TqOAdJMRmdthpcSMokwGAeIimiuAh4mvoDbKnFqc+qprlpD8UzT06Rm9B7onLongx4Yk/SVmiiXawBDq9TfTTMhj+amYVgS4BLzXCvwen4Srm7ZFB8NgM1oTCRaMbRx0dNeOWyP+XZ56bLb4v/Rl8P9syoH8AVoSsc5UHfFf1v48Y9JJ/ANRGJdnk5OOisBolfebBTi96HQ4qa1B233ySPwo9aG42DBykHI/Vcgx+iqcu051+VRLQ3bAvGHQKX1SCzNkskk6FYMCB4+y3Xy52jHjDYflz8yQcLcNTQvaHBZcCi4XzGxMdDVrBaMqBZo+dwcR5Zs1GeafbeUGS2cI/oQY2terc7NoRieWcJ1gz3j795mHOv0Qoioe7xxx0rxw/oC0193AGs1/zs6vu1uowqAU7lweFLmJ/GNnpb161UFD+rV69CAXdHKci1brpiVDJEqgXC3pMMNowYcaXcc98DEmnX8ERf1REEOH0J2jTVC4G+mHZoFGxnInAhUYMjiOWg0Qrfs2fPbrB5xCj2Y5odPN3oR8pEztyMV14EwM1SIMjNQcp3Ol5patJXQW2ONOVGJytGn6oFAarNJGtRDTYUaFKsSsF3lZI5mSYjhp9qieheg7vz1psUwSZPWQYkVDjfbMrD4FN8fAvbpjO6NE/5VcyOZkwaL8J13Har+1pm6JfqGkEw43bQ/GmCNUU3AGXMnhfbkIb040+/yRYEAuLw7/oCXCmakzPqR4Aj2emDox8A2ekXqrWeNkHdXSCbL7GjHDUVMjpTY77zvzfLuPETlS+3LoOm2DszZ8i0F15BJ/lNSBxvr+7baqQDEJoguERGm3hU09BEvfeBsQrgXDuSHSzA8d4C4SJgQyc2cS8GLRdBPAC+tYCAELhSzN7GZooZW3aSUYfVPXxPKiwM3XKSrhNXPzR1qyAGZwryQGiRquaAhBbkQFTWCz7zSzSa7tH72CoiINbw4GPQrrqmWgkpWoMrwQT54FTMhnYRCj8MNbizzrsQUZMtEHBHKbTpKkUNIrJpU3WCJyGa2q5jB5g9d8rV6CZV69EIAE4HG/QjfXM9evVWAQSrEQjZqcnAKbaNzYVh1m+DHLg5NqxbVxlZpOZBsHvx+WkyE+ZPamoKNkUMqkcQWscPDxp2p+LJxu8MgE/HH4GLIqj5VoPy54SzaY8/SuQ04YHOadRAx3+7tvTTvpDx4x6U20aOMkr0tPZm5jDlwcEfExNrCXCufhUu5MoOW9gYhWRlgYbvbmiAs4qicqM0xfqiI5ukBvHQILgRtm41mnAfCh+cK8CxqfRdKCv8AuzVZIqxGzwAVT02tBmCIV0Ut910HTSPh+3eesDfuaHfffNVmfrMC+hitUGxOWtN292HZYAmi68jwLFb1o3XXa20Hm78Q6HB8Xupxfn4BKpryUpLxpziMMB6Yx+S4Ihoo88x/qOfja4JanMEWNUwvFotKrXwyubs7LYCEMxE5DkHc0s/JrU3AmMmIrAkcb0OytKE8ePR07ajcRiaATPuJVZduWuqVKnBsb8hT/l0+nJimknS5g1y6llDQLmdpE6QQnSnNxrDUu2s/sg6zWz0l4SjF5OTuH279EL+2+OTHpbTzrmg9hN80HRJmjbpYB9xiThGSnAyMZRNmqJSqOHeEDQfe6MbF2txK9jNi31Wa3jcB068eIAZta3t4I6Lj40H+0iCNAcwrN2wtpLnjUpUQWG+PDVlorzw2kw0tklVfjr63NJgXuQD1MiWTE2uFDKnqcfrsTtggnHiERCZ0qMHnd00dY1OZYb5qvuYVm/M/OTjk+Sqm26vOldYRCVYqNwgdhocAY4AQUItX5zepMuiRlUOHsDC4gKU8ZEv0B3hFkAX78PWUI2FanpM3ZsqMQgkJO9NVuZ2SxCJeoHavqywBDyDaMqTZd1Y2pJNRMnGR82LN+TlA7BK2btb7oZf8lNocC0xP0VokkSePS/cQk2PPODSYYYH43BJS01VkdDbYCayLwYjqO40DFeBs4ES2qVDjkXy2Qfvy9Rnp6MkcDXYruNxn3DUeyLCjZKomh6z03OkWfNYyUrNgKwD5forr5IHxj2MFCOsZXweUzyweBV/ogfmJzwkHMSyyN3MxSEK4tmKImsLzdsPLRcBQLrjHVuAshEUAw/soZKGlgF0hwTwcMXn64i6PmCZZaESf7G/6HtTrgzIWpmtWOP7ILOY+GY40OFDxrpNwTxng0g3NDAEilMTRG8TEfR8ESw5N0PTy8EaQ617INw+YC0yWonWrB25BBkgwCK0zsONcGG+9vxz8sKMN1TqR1AA2vyBz809oaUgh6gCzkJQdWMy05EHlokThdRB/jhBlD/Gio+NkFlaiJAxfE4m0eWrz0+XAvRq6NG5iyQhbSIcZnMZJsgL/HAH80iuTE98Pgk0C0uLoCmh0UuQn5xx+jnSFDleQC1jrZkqtiIewMJn6kz3Pn2xwNALVG3fmrepF043Rjz92NaQAudnAQhTQK2US+2Ppp9JC8UINcPsLyGAsxX5ggHwz/FEahrXTKn1rN/lJg7E99Pco0Zgl4fIE5PRKj+CGUkOSHAArY8+CqVRmRQ1nAsuwMrTlv1Ecc+PPjxarrnlDiWC6h3HGHBq166jjQ+Oh557wlN3RKiuz5djA3tiA9f10co01QBSG4BTB4BJF8Y2lXffcze6oX2qWKfLMAdW818BmebDyqEGl5kB0lHMxS03jZCHxo5XvkPbAXArA4GrF4CovLxYPnxrpjz+LDS4dRuldTs0VccaspKLBxRkL/jAC5DJEBQRLjddc6U8MH5CFQJZRRhbio3o7SFRALhQsP+UwvVE33lZkbWFkJaWgUh8KKyJCNPhDxq0EjAGIUBmdL4zWxHAglENofDoGq0nAFEjC1AtQY2IsLYqFD7gnq3uLycjT+JatZSnJ06Qs4ehWxxwgnLy9AQuGZutRhGbAEfNh5MLnw82FMfL055UG5AdwEMiQlUKgLtRjs8uL8UJiERJTnAWGv1mQdBMfGQemTt03f95Rn5MGYDHD07W39Bs+cGHJ8u+ZGiTEU0AsknQbGoRxbVYReFQ20m+qZrcsFENRmhIhAw7f4jccecotBJsYby7BoDrAYArtclDo7rNe1Bd3zlhGDRZkzXAscEOwIaTyxK4l1+cLm+88wHSaXYid7CZYuINwcKkqk5NqAwLxwuNdzj4u06edXeLlR3m2QRIHRQEKiN3jp9DZzDngWCnesvyVhk1NBfkpEfHVQYZVJ8KVpqYZWqpe3ZK69btLABOz437NWIxNYflTwcDcPcC4N4HwJHB2ioPkcDH+cmFD+ngAM44ZJA/oQ5H0vB/8Pbr8sS0l2T9+o3SFgBXXGDtg9MtAahlhWDP3HDN5fLAwzVEcPHZ2Agq6hyOYAQ1MV/sOTuAC8ReKSjIhqaWrnxv7MMSgqAAXSG0fgLCjEonHZV3zbk0thV7GJerdchm00x9IvsQR1FOpjJXrQ4q+gCDcFDcidYGI++Dr9h1qAhyzXySVQAOO1DdPMc0mCwz3nwfeVR70VQ5Gqaa+ygqAc7TM1Dy4VBmNIeaWzZALtcmMLH/Gg2A1Te4cO5sJAePU8y0LZpHq45bkWHWtbB2uyQ9C8mHPka7QWi1ajSPi0JDmCtl3ISJ0NbMSoEGAjhFQWU67RnIee6ZJ+Wt9z+GSZmOMjWYFjQtCSgMoZuBAW1GEoTsNDiVjA3w1ODGqgIO/psnJ9N8uIhUba2pzasT1tTg7rn7v1g4YwzBUAZsBWmyvNgn+joAd7QDXHBYJBSWLJiORve7KOS5MXWEVTAlaC1QmEv3BI0WQ5NimpL+nf/mGvZHCgjXZRbWvA8OUAYleegW4cC3AzgGrdKRH3reeUPQCGqSat5eOWoNcDrMjoXPHqIz3/sQNn0qbOBm2CDuw+QEOC9v+EEAcPRBEOHp9E6Fw7N2wwQ49F7gJifA3TN6AiJZico8yIRD0zfAuquU3fdU+iGUsJFZD18F7+umEVfI/eMewbNmsXADAZw56+qBvVgfnzxB3n73I0Ra4btr1QIlK2zuzNrWUhV54sRT22Q0jn69fJs8MsqbkdbKkik49lXCLfPTcE/0gRDYaJrqqoZKYgEsuvvvGSk33nrH/h6xzGfC+xh0sC/VcgDuaAc4alD+8Hl5o/Md1yY1siIc1Fk5RjS1nCCggc0kqdA9jPmYA/M9DJoiSXHphqGfTVsVQeGocuB6tUjz4f5nmVjHTh1kwph75JJrbqgHwGFhTxo/BqUi78HczIGGEY8onnvCSw1weUipYIKear4MxGavgtqNqhrcT9/MkTvuG4t0k63Stn0HIH4qANPaCWr3PTxRAphnRlp2eFPotGbv1euuu0Yee2Z6wwOcC0UzNTg69d+B+ZOEVAc/gEgkuPRILcXBhcA8oiz44hhRikF0zK5Ui2k6dPBS+6IviIP+uAIsTLIpB5tsMGrRATQJnirDnMmZ+P0dRO2GXnjxfvoqfI7WCh2Ac0xU+uCaIprs6xsAn3AO+n/sU2uM3pDYFrHSr1f/SoCr5H1jqhHOU/JCrt2wVVJ271a+ZXJFciQjjYprkMEF+n2tAI7a4lYkwxNG/3v7DTJt+ouV1qbRTKk2JqoLgrLE6o033pJM5HTFwglfGw0uBz43lqgwVYIWJ9MkajeqAtwfP34nt4y8V7Zu2oRyrw6qCxf9CvUZaYgOM5oYCAD28fGXIvgTPPF4zWXDZfyUJxoe4FzIAIvycuT9t2fK7LnfyF5Ei6hJsZyJuW9sih2GXDkeFlvRCYyDfHp2tcA65J6XaeTPsSa4CepjudiYWrHfD2rmnMG00HQ2KnMeANe73/FViu51g2w63Fui4Nx9Laqjwf0bNDhGUKnVZ0PZ8IG7o0XrtnJs/97Sq3s3NDc/V61Vgw7J0OYq1xyeW7Rwgcz5Zr4s+fMflTZEfzOT10mU68/6XZu+yt7+yJND8DIF0eLTTjsFB/IMidHM4AcDcJOQF/XKq28oDS4OTLW2PjhvsE4gsMCGx/Qd8eYSthp1dPaDDlb6jPAITWfBV5/L7aMelMRtSaoh9J4de9Av1TrR1f47mPXMMhwf5awsgdOWdv1Vl14iE594puEBrlqTjfXL/5Y1aMFIzYtAw4OBicJM+g1GVGv5ylUy5+vvUeOHjvXIg7NLtGaiLxcMC+tD4MDt1qunnHzicfBhxhvRXQQf9ILTpin9ItS2+f3nX3SRxDVvbRTkm1RWOqKYgprZNm3aOwDnZpH9G4IMDJhlZhhWXMvWbWTgcf3knDPPkAHoNtcUSeCVLh43MqKG9svCb+W9Dz+SP/5ernzPKl8T+6I4j6zfdBG5D1LxAGdC8aaNW6RT547y3sxXpPfxg5Rp68nG83XV4CYjbeCll2aoBs3NWyEPx4KuRQcZSIvCbHOVEeICcFbV/oY8qmpwpAq64ba7ZMPa9apgPxU5SaFNDux7WhtQ06/xRYJiIZykZEXwZ1kNGyQjAnTlFZfJlKefO+wAx+sqIXec4sEy/WIuJKC/o1Z1ylPPKS4+b0xuuMojcz+YHU7tjYmScfDp/efs0+X2226T9l171UpMjOz6Q3PUWpt6k3k99sX2jgZ3tGtwVAaSd++DdREsgwafJLfeMEIGDxnqsraqEl6SjUZTcvFRp4Ys+OozefqFV2Xxb7+rvLngiDAUF6SqGlS7SpQYWJLLlq1E8nyMzHzpBTnl3AvgB0T+Lqt86gpw0598DHlwM8EesENatm0FG9m9D4wAV1qCLGf4uDi2w6/Ut18/+fLzT6S5S/cs9zvNDJN7GKVEP3/7ldx+zxiYqJtVkuU+pKo0i2+uGAnKkcrCoZL7YJGXo2EzM6eNKIz1ILFeKTQmgkEpCoE5Roy4+ohocG6vlBoUnbg4UOrSVYv+MgJ3LnpE0Mc29ILz5BFwpTWNh/Zt5vTZyUenyKjX6WoGXE8aTNRWoFKyMlGNNBWjLIzy9WTeJK6D86Vlbfv9Fi/wQl0j54+Nw5kQqw9cPufpCRaNQvs0Crd8cGaiL7/eNQ/OSRPZPyFlqEoICm+CYvutcsKg4+X9d9/EQdoOKU8o7UTmhJ0Gl4vyxGDTzbQJHepG3vuA/PjDD6D0ipVdqF1vbsMGk49a+KhmsEbyMsF0VCjXIs/v8WnPG0sVa9Xbu+aufFXTRFxUxOefelxeeBUAh0oGg03EOorKPDj6j2gOq0oGlDd9/vEHijPKfhh5cN5moYD4nQAAIABJREFU3hdN1JEIMtCpyBygTNRC0umuElahdfE0UdFBmFfFaDTNWsdgcEnZDQfgbCRkRpDrC3A8bFTrSQwCEbXmILvG1zaXpvPAaCrRjeHphdpbgB3LgOjzKcjdX8FR00c5eXCmVA4yD66+AOc6J/TpPvDAffLhrM8QoIiXfCTT079npcHlZOciEb65mmcGHK8BwD3zwsvmUi2GVwX7v4ZiBrcA98qzT8mzL70uu8Bm0BKpGjTv3A2d6OuDMDJtakZPjwF9ygfvzpRuPfvZ4Q7+jtMfoWZBNjjHoq+/VFHUxC2b0ci4o2JpyMEJQP+ZFwShNDdqc0iAZRF2KSIxDsAdWQ1OaT/QpjlUvh3mSgEcTlvOUWpm/aLgAX6ky2GWvGAdeKG6BmU60C5zUUJVDNcNcxqthgNwjQfgeCXTHkep4itvIL2M9a3ewBcqUO59cJlwvzSDry8vM00FPglwL748Q0VSyXbs48vqnQNXgFuAe/Ol6fLk9FcUwV2rdu0tT0htorJmkjlcSXCMt27TWl5/ZbqcOPjM2gGcS6LvL/PnKg1uy8YN0hqsHMUAP2pvOupXhjw2rnRVduQB5go6Km0yvXkRjgZnMxX10OA0wBF0tJbNOdIadp8BVZkgarEoqrwkFHWPRSRLxGeShscbmls6gloJWzah90eqA3AAfx/QzjdUJcOh1OA4sV+DHeTeh8ar+utmzeNQ651hCXDp6VnI5miB/NV9mPc8ufrqi+UlAJwfGEfYLsDXD344W4BzqWT4+J03ZOLUZ5UWVRsNjqVsgYh0kjVgB4rNY2Pj5Gmg9AUXX1GLtVw1yDB/9icyaswE9HUAlRDqRXPyisAi0ELyEcTIZlMbVCOQnjkM38fwMX1OVia0vgAH4BoO4OgyKAefWiXA4WQux6ZjgmghXAhbAET1GYrXLB9zD7cEWzGSDmr1smXy2Zw54INbapmnaYBvmTg+OGLIwZVqHTKAM33MK/78Va66/mbFlmKQeVhrcAS4uBYtVGUVq5Iuu+R8BEFfQfARrUprq8GVwlHLRFiObz7/WB569DEVyWzV1roWjhpcbk6phEWGw5b2h4m6HQXGYTLx4TFy02131mJduwAcTugF876QiY8/Aw1uvQSjl8HenTtgf8eo6gOV8gBwiwSdigfINZkbk4bcmDgbE8XR4GwYYSmgemhwCuBQS0wuOyZ2kmiANYp5mC+aqNk2dFO1WCQHvGT39q0y7Zlp8iVaUlpF+R2AcxHdkQQ4HEokhWCDo50Jm2TYJVcgKrpUUYuVgMmlNiZqJnJi6e646IJz5ZVXXgbzUWztgwxFcOCx2J2DBe+jHhwvK1asRkcc+zSR9HRkKDeNRq5KgAI4Fo2PH/tALfmwTIADQygjiHtBNjgLdDGZiAiSOigFGf7k19KcbMwV47937d4jfy1ZAWbXZeBUs/bBOAB3+ACOsibIMc+uEAEGAlxKijUjsh3AGZG6qiC8YcUSdGybCtbdrxwTtbGbqIzKo0SrCFo4AY4sPRcNv1gWorlS23ZtYYFZMzIzyBCDTAoyCjPZ9z/nnS0zXn1ZohF4YNmYp2fNbQer0CXlg1MrMIwVA2Xy96+L5M57HpSlS1eogvcKVWvmjg4HZRdpWSjBiFZtwLYlJuKl5eDLv1fGjB6PigEEB1RTadoK+Kn+yIVLLjh+PmhQSOuSDJomH0RVI5qgjAPFvN4+2KCkezH/zsedSZvkzRmvy9xvF0gqOj/ZDcdEtZHQQWtwbBWIygilwSkUAsAhFQcuj3zwtRXDdM0tqgWdUrX5rT7fxeAsI/+XPyPmmP+tm1bJ41OmyjvvfXxEAU5piCabCLtDZWRmKN61m24eIWPhZwphDqMVXRjXfiNnE6mviaoYasz2lbqF6CXDL5CvvpgLctz2qLVmENN9kIGRU0ZR6YPbl5Yt5517lrwKVuyY5uyVQeFq2qSqa7xq0xn64MgbDf/JzoQtcvWI6+S33/5QPQmKEA2zIrxkkTd51ENgPgajRCgJ3YAGnDBQ3n39VWnerpPBksEKB41xJj9ZlcuxIrwk3asnbgQyKMdGYHAhIyNZnn/mGXl6+vMSBdJDu+EAXMMBHFN2PP1JEwXfGwguPcDT5emL9A30yyRTa34JDzArRjWynFCTd/9YBv4vL3xueQWJPJH7Bg7B4489QVLT9ogHNQSL0ZA+OPW1ADiy6ESALiwDfHAeOOBvAB/cOPDBBdrywZnsLY2YLqlWAOdOgTGfZ4VTPuuiQX2eg0Pg4fEPyRuvvyNRTcMxf6aC42YOmWdJ94cfeCFJf94agc8lf/+FBGKDRMIm0ZfgyS/gCw2anORdSXLjzbfIt9/Ol9bgw7LjQ2NyJ3nLyNYZhMYr5Dnr2r27vPrCNOnp0vpL80Sp76rOwmlBWa6rIXTrOzqdM9JT5blpT8kzzz0v0fD52REfOgDX0ABn5L6RtZU+Oa6JAoT0M0GdlW82I7G8AhvKet1PQDfvKUFy87HHHQ/Wmj3iZbdBGjDIoAGuCADHBiw5JuHlzTddK2PGTjj6AY4dzdxUElSfbzbXYWMdNsYe/zAA7s13QU8eIR6qLalF06D6Alw5il6V6miW59B5f//998rMme+gRrG5oUJbDJW9DjO0CPWU7AxFAkd23pmImtZhV46w2Vnmnx2AM2pB/+8qGUCtpDQ4B+AcgLPe6rrXCQHu4XFjZOZb70k0fPeIPjQswOmmMxrg+Pgsqhlefv0tdQr7UBW0GEzuZFfuQjBiFMNcYCoHi8SvuXy4PIKIqNvBDc0fFyLGml7raHDWC+fIlmo5AMf162hw9noMtW7VYhMK1Fj0tCXAxcbGoCfEYQK4yu72uNb5sz+WSU8+i3SNjejtaF0KZXTc8VHMseQjIxcZo2gDTxwoTzw2Wdod0+NAk1SZxCA5JrEj2WMdDc7R4Cz2iGOiWugJRzKKWgcTVc8h3UtjxjygGmvHxcc2vAanTVSySfAifBEN3bhyiYyd8Kj8vOgX276cNFFZ9M5gQz6IGpnwS39cNMgar7zkItVlm/WknmxL5+p7cwCu6qp1TFS3u9gBuP9fgNMWmJ5DNtYejb6zb779PrgG4xreB6eCDCx5gqOUvQbDoppKBrKGHxo7Wr74/CvbngAEtpS9+xDKReKd2XCY9YjFYAFo36mTzJs7R3WIIvDpMLGersp+BY4G52hwjgbXKJvOWEZRa6HBGYwfaPoE5YmKzr69u+RBFNy/895HEt+8mfiw+3NDBhnMpueqs30uQrlRsc0VX9lDo1n1/6mtD44Atx35b23bocUaTM5SsHz4BAagljVR0W4nokcoTVjVhZrVEq5anM6/cgDOATgH4I5KgGP7SmXVmUC3B1ka9wPgPgC2xMY1FYOHqAGjqArgTA4w8ofxQvyRc7J26Z9y7MDBqANrrthfib5UN3NR6MwgAisKChGE0K3y3K3Prt27yt233yyn/2eYegl9fVnIhQkJDaskw3P1wRl9FZEwajaw0M5Jvlf/Tjv+pReek2nPvyBhqsTMum3d/0WaiOZhw2Mc2gkGohdlIbK47YI8qgQGboWCXIMXbciQ02XqE0+pREgeWpxL21GPRN//+yhqBX3A+09YdhIjpc/b784Cg20r5X6xGmRmDkZfDTaA3r1jhzrkH7x/lIxGmohmSHb/fiNDIS8zFWzTIHbFdXww81V59PFpoP1PBHGFNaO22hMmkStTVMKaNJXrr75URk+YdOBXHmSpFisJIprGgF07SU459TR5c+ZrqoqgAm4oDzLH1CJNhKAWjtLLAMho7aqlaHI0Uv5cvBgElrG2aT7sCdENzeQ3b1iPHiMFMurOm+WJp5412pzWKg8OAKcYZvHlrn64xI1r5FKkefDG2Js0BOoou65z0/miLyK1siKYoXZ9O/ke9j+4/Y67lHaoBjYxqZAKge6h5Atz0eCY61TGVntsGMsSD/gG/QFiBDeCH39PT0uRF194Vp6eNl2akNXzXwxw9IFSVpwXMq+cdc4Z8vjjT6BWL071YSVbr+34NwMcGk6rSL7pAyVn2YMP3q8ArgUo+636AlOuXN/sWEYtJRnNVagE3DPqDnkQlQyazdYO4ErAucj9xzELPQcmPzldNV5q37GTarxkNRoa4Jho6xcUJolbt8mpp58q770zE/s4vk4Al4JDI7opAgoYS1Bsf+vIe2TpkiVoKt5GyoA9VvuXANe5S1fZsmmjIt8Yfd8dMhG9VA4K4NQVmBNNJs5nn3lCpj//qmQhSU+3/iozGXF1LwC7zbMTrLyDBg1SIHf6WWdL87YdK99SgGY1RgACrK1snKzakhl9HayaRjOX5pmnpsoTTz8rseix+G8GOM4DM8WzsRCCkIc45LyzZMqUxxXA5UNO9tn0EN+/GeDKcLpi7bky+tIJ/haaczcHTY9dHqgvZF6E7AGyWqclg6AVlscd/71Jxox7dH8rRrebxNDgXAHuvddelqnPvig7UdfdGnyM2dDujiTAkWiULQOpUZ58yiD55MMPoNE1s+2JoK+ZFmE+9nmoWdUx78tP5P6HJsiG9WATQaVUKWpUrfYv2UTagDotYfMmhQ0PoynWA2MerhvAuaaIuApz3bK/5AJU/m9D+ZUvusPHtoxX5V+l+ejkrjrt4B82icAEONITd+3RTU4/eZBceOGF0rpTt6pzZuGDK4QJRhBU3dnNpijU4J584jF5atpz0lK1Ivv3mqhM0yErchbopNh05mxocJMmTcJcocwOVDQscLYdDsBV0rvTRH0IeVrMtG8eh/VuM3jA7E7aqRoG0cIIBNCNGMGm4pNrBXB0C1WAbEJrcDRRH3v6BaRoba4VU05Da3C6szwbQZ166sky+7OPUbHEGlvmsGLj2pioDFwGwIWix3PPTJXp6PmSCB99W7AVldu0DWTzK/LBbU/YKtHorfoQtOubbgdTERvV19ZEVQBHP4QJIJVXg4U/7MKhsmL1Gtm7Y7c0a4GwLl5XjM71njj1GC21U+G5AHiysbNV+44d0JHnVBk+bBi6P/XbvwBqADiq+hx58CNRu/PEDfmxUQvG3j075dlpT8trb7wp4arv578X4PRc0RdHM+n4gQNk3JjR0rXvcXZ7c//f/80AZ/rgmEXAFKks0OSPRQbBmwC4mJhmtjLk+k7ctk3CwXqiO7YPO/9ceWTilFr4P6HBKd+rwWjN8el7b8pTz70s69asVn5uch9ajYYGOPZEaAJrYBe4Hk8aPFg+/eQjsxcDrsoCYGq6ZkZQJ018VOZ9+z388CDpaBJha6IWQpkKbRKNFgoAxA4dZcr40XL+ZVcZH18bgKtQnaXpwC9RfjV2NFfozNItAN57r70k7378uSz9+28IO7zSD8eGyj7wxdk5YaOaNlXCSUFbOw7Wtx7Xr7f079tHmoPI7pTTz0L3+gAkFAdbmqVaYAS+zRtWy5tvvSVfzJkHsLUmzOP7juYgA/1HvmyfhlEMhzOj2SNvvk5p3jS9ajX+zQAnBsW61nZZqjgOADfzzfckKqap7QHuhz3APrY0Z9khqgAHzUnHD5BH0finhW1fEl0GaRzQbIX3+isvyDuIMO7ekWjr31b7toGDDPz8GFCGp6HDXceuPWTmjBf231cdAe6r2R/JizPeBAnqFsXGzUR/Ow1O79/dO3aphlZPTJkgA089y7Acwe5sW2xfhmbBdIaS1oQqNlVl/s7wLiNw7G4+YcI4mTN7rvL1+MIMYkIv2XT9QF9jB3C+UNkZjEhHlKcIda9sFhIJFZeJwAQ/trkLwsJg28EINIUNRM9EBhKYYsLSjhw4yvPg40hLTVWt8Rhs2Au648V/L5FVq1bXWkCNvqtWPaKoYWA35YLZA4LQsIhIufii/8itt9wCwtKOtXB0c2cZuZBq1Kmr1tFTqqU1OAZmVDE4arEj0Xi7DJaH1QjE2t2ycROaIbdSnIibN2yEU/wYGX3vnfKfC4bbNN0xAK4CHcjSoDku+3uxvPPBR/LX0uUI+EEjRz9QO8bqhgY4alDxrdrIZlQ1NY2Lk4lj74cv/RzlNoqE68nORNWyW73iH3n+xRfl2+9+UE8FQ6HJyEyRQLi+rCwwKifsoLdvT4qcdMqpYAt/FNYJaPCR2YEu1PYAR/ZVHSYvx+L2pJkKLYlUwjrF4Ikpj8jrmPBsAFsIUkRykB7iW0uA243IUhwEExYZoRywmSC8S0J7QQ76jDIBXjRGgwBqASH+4u/lLxXeFeLNkxXX7w2anPzCHMkCF1QFaHWaNYtTGksBeKJ2wL/XqrLtGNsH1sxb58V2gfkkFQAZY5HRaHrEiGvRNnAafjc3trnJdas9EvN179MXTCngOjNfVdMjm2cotmH6BFRLQ77YQ1L27JVcstlWa/zsdrO4AFxTpImEIk0kF5HRAAC9u+/nZ6UC+OPQocgTLMdb4IjlOOOM05Cac4v07NsP6SJt1P0a91n90bwaNwCXgohiG7QNDEYEPRCaijqg8FovbGRq8KVs24iF5qEaAkGbABh4834h7yKskVSwiRTbsYnYMInwCg9HJYMGOD6OGzda3nnrfdB/RUg5NBgr6bEfCeVOfx15DLclbFNCHYnUqEtRyXPsSdA2LFdQmexK3CIrEFWcv/AH+eb777E/9mDevZTvya7nCAHOF3syLx17M6qJ3HjV5TIa2qMrf6Li1ytlY28PiQoJl1D4skrhZvKl3xDvd8/3WIaG4jloG9Ba1q/fqO7r9luvl3PPOh1Es3HS67hB+zMg3NFd4auTU3fLt199JdNefEVWr1oDn5yfxMe1gGm/VeKhJVt9v7d/MPyjuSBOzZAzzjxdnnlyqrQ9pivuB7PCVBH1vQfuqv18cPpvFsR8mzaskufBvfburE+QDJwjx3TtqrYLedWjQFfka/ruWIPqg8XvDd8c2TZzM5AzZ1PLSq65ck/wvCFcX9fHqrdFc4w5Swc+eqEbkwFwngA4g55lxIhrAHDPGh+hcg0NlbcYoESTORd9IHoC4EgXVYab9cKfa3r0AWjns/kFWtl5kFmFuwE+lX279kgezBVqum4JP/G9GWC8jYjGJJN7AP8x5eDRCWNk8uQncXK2kAo2XHHz/bx0L/WFNd83n5/9yac4lIKRh9RUHU5eaLtXiEY9nEc6gIuwUDp1Q5No8/55HSU4MX3Q33THjgTp2P4Y5HmFSjA0+0Joz1xYfmgEowAN4FYBAGME0QMHZRFAGq2AlBzyAXDpALhSApzJC1bj44Frs8ozdEkwEkdtXgMdU4dIl5ScvNs+UdSOLok+OIB1FpoQUxPm/b/y4jQZP36yRILtohBAYCV/rCjLDfrWazMkEsAT27w1UiUwz95+qBrKBuVXBg4wmMPjHwFD9T70CN2pqPmDkSTPJjJlIHvNzsxRc2c18kEEGghLKxvRxoioCOTBXSEPTZh4AL8eiTg9sC7DAXCR0ZHImyyQgOAAFLvz+t2vHy8/vIb9aPOZ1oX1jIM0ENcUGBAMjdVPnn5sArTUMIlF79IwsHAH+OIgBF8fFZA8KCazP/5MFvzyq6yGVpoOf3qT0HB8Wwny3zzFG9jA1DRj1Lx/Q0DEu379OvHD/E98ZAzSzUZB8QpSPXd1m4XaAZwbKXKBMZL5568/ykuvvSE/oj61AGprTLMYZRZ5Kg0QZxQ2CKN5atOZwQD696wTgXUSpXWQwHoPWLOdqOshAQCu2QNOWy1QRrpcAU5zjfFeaSLnQIPr1bsvaLfRyctisJsYKdVV/1b8zqHMRdCq83n+bjU0TxZNb0aJGcSZ8dJzMuXJaer9NNXdD9QOq9l1n4yalpopEViQAWGRqqM4Y0nsVlYI10Q+8q8mPvyI3MColMvQCdXbt22Sjp27K20yCIuRGhzlRFOMgwngBB19jcxt5P1SDgTQTDiS+Zr6jAYFONxHWTG6r2Nd6HngtX756Sy5H4m6dI1Yzx8OdJtSI7a9I/CEhkaiOzwOGGj8uQDNHPwUFdAiaoL+FXloqpKscujCcZh4+yEnFR3kCtEa0egbWvMg2TabPgVgfjMzDJr/EVdfpiK41Yc+HEKhjUcBcPOQoByEAF2Fmfbl7jt0Y3UGE8lcQ7Yg5sEy4OeHgywpEQGWJlwfYaphuQ/mvhDrhLmzXA8hAKN9u3ZIKjTMyIgQgGMoyjjzFCFHEFJHDIvK/aCykbB1i3RE2ee4B0bJ5dfcoHzLOndXvbNWGpyb79DFsvzz5x+/L5Nh1q1Yvlxt6C5du6gTjkMtRPLwAyCM7lf+QFg/Gx+GA3B64blusEXfz5N70V1s1cqV0izWKpJnD3A7dqaIPzRXagb++OGgX4VNYfLRWHQE+ky+/NpMFYHVQ5fX7N29A+ZJ+6Ma4IoL0K0Lm0iXElEGK5Yulv/efb/88dvvqJe0ShWxB7jkfanKpRICUPBGUjBTqxiZ1H1dgwORx4jnfAB8TDHxoXYM2vdy+OXYetHHDCDVtD0PB8Ax0ZdKCvPhCHKsXKHbhc3evfC4HSlkfrivIPRG9scP74/rKxc/hcXl0BhxiOAzwiNCJQAgyB637JClwBxASzJxq8GD0g8H0MATj5cH7hsl/U44Rb2cAOeN592xER1oolp/j/or0zOegg08e87Xsgu9Ezj5FZgEzeJK84omndI8oDUZNr6Vk9YBOC12JkMyksyRsHm93H3PfTIXXaPsNpidBufjZ0Sn9Q8XltFnFnXDoADv2a2PfDp7tjIBucnZLZ6lctQmM5HsHQOf59GswZUW4V6raclc56NG3S0fIXvATv52GpxfYKjazMoBoSgQSeEPoFB+OQHnYq4CBi/0HqHsy8tLVE4eLSLO05EGuBJoYywXZMUMB9m7y5lhgcF2K76BXF/av2UoOrxH0ssTDH39Q9RzOpe1qAgBx5RUBehM/ygttNbwmUfbtVs3uWzY+XLdDTeZvRgYcS6CTx7VToql6EDwOiiA48dsWLtC3n7nHfly7nzlg4uAWsobCIKPhvWT/J1EmYy4BsDnYx1ldQBOLRrWCWJwEXCwUuPRRx6Wac+9ZLvB7AAuD74QaggK2PBTpjYOwvN45NFzzpBzMZfz1PfSt6VzDfWB1qp1u6Ma4KTc8MG5Dvomn3h8kkx96jnQalt1bbPX4KgB0Q9ZhAAMNRkObm4GjxQbtg/ADUhBcGOJYgn8o8wZZdkdtSSrPNPDocGpWme4bOjmUWsV10bQ4/5m8ISNuMvLDVdFqdn+gM8pl425ngvweq473rde4wRumuJ2JioB7rxzz5Hbb7pOTj7jnMqEaF5LZVC0PgCnSy38AWDajNm2ZYM89czT8tW8+cqpnI5IHqNqUagq4A0UQT3VReDWlQ4OwGmA0xPPfxOMPpn1jjyODZYK57f7YW+issyGwQvjc40mJ1yQnBfqEX16HydffDW3xq/YummddOne++gGODeZ+PPnfi5Tp72InK3NlvK30+DYoNzQ2hCQgczppPf0RLc5liiyYQ1rTc1esvRLMXBDPxZTsLy9EJAA4LkbhwPgatLgyPfIAbzCdYYC7LCSsKa4rpQ1h8wHgjbvL2XPLuVvowVBN4kv+jJ4IiBXWlpgaq8gGbAYdHNdfelFctMtt6rqnCrDgo2o1hocTSeCHLuK0/muB4tmF/30k3wxex7y0tCUFblpdHIy743svhSMfZ6cA3Aa0HTtrTZVdyHRc/r0Z2UWzKT6ABz9OCoY5MKYwQXHE7cYAHf6aWfKx599UeUrtBnLNJGj3QfHPC4VNaapg6GDTCRmfH3GK/LSjJn1AjiWGnFQ/pxjKgKuc8G/UbPWr2GyPX11nohiexAIYNIdSYCjmal8cEAz+td0YQADdl5IOykmPqArGLVOaqi0FpjrqrU1BhXYqN1Y56wzR5SdrqxaAlx3lHiOvPVGOWPocGN+yJBDYgLWD5OUww0jeK0BTjvB+eGuv2uhX3LBUFmHurkk1JYFw5EahLQRBhsYcXF8cPZR1OqLd/fO7Wj2w56PInM+/1A5u+sDcHQRcHGyrI7Oa2OhGQm6JTBVzzpjiLwBdlXXzc1a3/CIJgoYGSE9mn1wBLh8FHxr/yfdA7ow/OeF38iV191cL4BjmgU3tQFw9G/SVUAgwPFiOuyV857aHebIC1qb2mtIE2EqhBeTWd2Mw6HBqSADMwFYeYDrpf+NZZrUrAhkjJgrlwd+SBWlNVW+B1BeWeNL7S4nI1tpcwy4sA0gKdGKC6yjDBecf47cOXKktEE0n4OldMHQGpmpQYw55D646rIm5flfv/8k7836SL7/8SfZDqDjYIE9oySMsjByoh2NYcj8ZjWEYZIhdwokm8xL4ymmnN/maUbBug6l+qoT0EUbwWno4R2E047PMd+Mxb/0M7EEBNUY5FZr0RJVFOmyIylJfRzDzeeheuLKyy+XHgNOUHY8NzpNai7sXGSyB4NiiJ/BKDFTIzh0SkQJQt/0Jxi8dRXKR8Myt3yE3aOQR8Xmv6lwovbs1Ut++nGhAor6jLffeFk+R0nawoWL1Pe1QsY8axRZBF0KzYMldRVovEzmVXaS5wnKoTWFbPjgPLEQGYlilI6y90YuFhcnF20n1PfNnlPVRNUF0uTx6n/cQDUvHPsDFDC5zOeCFV2VMYzghfGja4mZLlPfwY5MdI+kofkvE0wZ3b3y6hGyNWEjsqegWShvIq1vXCe/m5qGeX3+weHQLpDUClOdzYNTM/Nk8MknyuMTx0n/QafaZuJT/h+D2Xr+/O/M9dNR8ZplI08yCSWIbVqCM64CPimz4oHRxnKsdyZ/FwKgApH8q9cu1zavi1oao6U0QVljGY5609DIaDxPsCjH+/JUThw/owtacK5fu0aKSiqwpyIlNCJalYNlgxPRE59dWuSB90ZIFq6nSVSUjLjqMrntv3eqdacVEm0VMO3nrCFDZSOqEjp17ow+rukSpFO6TOIMLUM1nwDiEwYNlN2oItixa6fK7eRaYroLU0W4b71QiYAdVwlslS7jrOLlAAAOZUlEQVQpMz2KcvFiIjgPV3xeGYIDTE421ijSqVIyVcJ/NPDCH4dpDkovc5DyQjbw/n17yPOvvGG/fOrjg7P9dOwnZv3TZP3xp5/ln+WrZQuyuXeiWqEICNsFXE5EdtfFX4LNmQkgICi0AWWKEWFyiTRpmmE8R5TnMKKA6rfKmlX+e+smkzEYG9gXJyAdmzwlqDLTn5HPvDZsjs5dukjf3t1k4IAB0q9/fxTudja40syaNp0aoQGO/27VujXyeBAFMrJwzQiRESUyYGT/pmfDHS4wOpQTAOqnnHKKfP31PLUZ6jPSUCo364N3kWT9qUobYW4RB4GV+UylAGBG5coRb6/UBKixmSYO89dUQIEcfNAKmHytUxQY2jhnyNky75tvq1yibvFGM/nEwUZYXgOWBjv9qHP/1IZoIIDTc6MvktHd4ZdcCtLE3yUW1D3cYMZFcl5M8DUBjhosUxbCUXZVmJ0l6chLOxv3/MRjj0oH+BftSo34XR/Pek9eQ2XDsqVL1ddQo6U7hmZYCQIS5cWF6mBWWhodUxjcxAwsBAHIuMG9PLnJDRlxvoB6ylQLBVgwZywTJjHBl4OpFaz/bILSxRFXXiJz5y+UJX/9qQ7SEAAhI60ECi/498rRGJ1aHg/VKKy/a666RG5HXmOT6BgFcAQRaqVh4F3ckZQgF1x0ibqPTgCQfB4cZiBAJ5obh8N+lqDXXn5O1oLa6Nc//pRVa9YpYgEvXHssWoMGBQfCx7Yb921qeWoKEFShAkAfLx6jmrGM0PDJmfqHukfDXEf6UlAo5iQD4LlbCsyk39Zt2sjQc85EJchwGTDodPvt09AAp6+AHHLr166UH39cJD///pds2boVDMCZmJhS3DRYgXGTRGnFUkuEh5qenp7JrWE6Yg2gUwKmsLhQquUBMm2WgtL5s+07dlGfzckvQX5RIQDA0BahPmPymqKE5phO7eS0wSfJKaedJq06oszD2LHIR8pRWeCuYWadj8aIYteu3SQLm8J1VNcsWR/LiWLiLHPWaNJtB7gT4N5/961Kc9N+lty/gmbr5599Igt+/FlWr1mrqGbURghH4igTMJWD1wBeAo4/IlRMPSDIZaamqcVE7cAXf+Op74lqBjp6KyDH3j17gvvsPdWUVw8dTaUG17GzIS/DUU4tWx9GBuhRm1TBC/Wa/X/XgKg14IO9f34Ok6612cjPoQZ30cWXyeI//gCbDBlmDN+Pvkb93VxHSPVTIyQIUUsSg+JAGAKAm4DenN36g3GlFoy06TCLPgTIzZ7zjaxavcroHoc8Tx8fD5RIZSnzjMOb0VGAGbVlDu3rZMTUW7HekGosX7KxTnlQ8ZojkdirchJRKeCH8qwWrdtIr+5dZOCx/aVL504ycPBp8sL0aTIDxf+kLOL6D0TuHNe2b5A/qlJQ1og5TUlJQROXlqYGNxLpPUjhguw493Q5RJKRY/sWuRYm96JFiwDQkUhkzpcAk6mb16bn1kj1MPZgLuRFAoLl/yyW7xYskD/+WSnbtycqLcsDwKaiveQMNSPCXFcu7l4k6Saqa6as1Box9zYTnn2hyUY1ay5p8N9nwpKjJteiVWsZeHw/uQGllDrnzXbtNCTAZSbvgzoM0kkXqiUm4a1fvVyh/ctvvA1VOFOZicmoz9QZ+4FIrvT394bK3aQyJ8jIE9qvyfHGGDo3hnEXrpoc/70XajMBlABHcGka10ziYmKleXyMREJ1v+O22/AdEZjgplXoa5hHk4vTtzqjsHYy8zquu/YK+W7hT5Xfq7PaXR+5gZnUzEzyCHxfAAIxjHz26d1bnpo6Wbr17Gc7P7V5Ac2MxIRNMFUXyjcoWF65ahXyEvdKx3ZtzTC9YSZ5MhSPnCoCHbVfBogMuRq5SaytpZbJ070Qz93935HywNjxirNLJ7vqR1LD9+nX31iY5oJ31dL4fBDepzVc/Trj38YGSYA2X5/B76VWHYISHz0IcHfdfZf8+vvvEuhLgDPyylxNVHUt0CJ8kYdWnJulKjlotrOKY2D/3nLrzTdKt74D8LloPlyLeljK5O/Fv8gPP/4o/yxdKevWbZCtOMApfwNYGSE1fFLeirzVEAEtCEN7QaKscp9Q9nB7mBHAHUnYP9DYyFrbu1c3OX5APxlw7HHSrgvabZrjbTCMTHvxNVUPGh0ZIiHcM/jsUpZQMY8PoEqztRnMvOtQyXD1tddXcY1oq4R0RWNA5jn3m+9VZQpBNlDnAJqlgpUaHL8b17ht587K6yDQrVj6lyz84Qf5/S/s7+3bFGu0DjJoLZaWFCsw6FP0g2tgfw6modVxUFZUQjas36S4Jnv26S2DBvYHsB8LivIe7tuN1rSYGhLgVONonlhuqHkolF1JibJ8+VJZsmy5bNycIDsBSrS1adrmISlYn4CuJ7BGenbkMgRiRqFcolF8vrAIpyBUc6rnnTu2hRnaSwYOPE66dOstwdX9X1ik9KUps8oFkOlr0KDlGkj55Ydv5bMvvqwUqY50ujIO830seclAWRJPcLKipIEaqnWrVght/7fSeV2fTe76XmpXi3/5Qb5HYfYG0PRsXLdJHRr5Wem4BjTfdlP54oNTNgQmBTuw+8HxTc2L5tRzT0yVk5BfxEFTkNFEbkTeF2Ux6ZGxleCmT3bXE16Xbe1PRTE0cA2Ij0yaeqhuvcrnfD0HJju0Kdje3Imm+0A/6rQYsFaAnSYLNbHc0LyfNNSAdgYv4dnnnCNN41siOwCaqwXAUXt0BVc2Ll729x/yNXxyS5bjkEHCeylqL8mwUwizlOuLh0AJfGZVvcjG5Xvhu4KhedE/7YMcuGPhZ2rVsoX069NHevftK81btzfIHF3GX78slK++mqdqe6OxvgKx3ujeIVGFRwWsIvjDCFZRMJuHnH229IFvmUOvZdc1zTK0n379VfnA+RNhJpdXndv9Gvmdd9+ntHtNyMnPVUC35E9Zu26tzAFYsllVKtZ8+r49lWa2vnxqb9Tw6JvUg/yOuvKhefP20r5tCzkVXHOnnzVEmrVsU/f10pAAV+mM4mWREYNHlxuwo9a0c/tWBCK2ottWkqTBpJ0HbUT5JDhM1dh1g/DpSmAxQY7foZ+7/qor1cQ2RzChBZJSQ9DcosbBYAIbZZAZmKCprxGLsQA+FKbAVKdM56ldqDjj9w+9cfUzDDqEgv6JZkAZFjd9H/TbECgi3F1L3afwgHfQr5KWskfmogohD6Z2alq6pKWlSUZWrnJu81RVixGldOQpi44Mh1YbK23hV2wFU4a1xEzEjo9vbxSZYxA8ed3u6i9r2gSMDBpTVx1cDJBxTRw+2NuungjNzyGIZKYnK83cjvA0F9aD1lD3QfsLDW8Cnxzep0gAzOYldby4ZKTQ7NuTJJ8iuJYHSyAbmzwnJx+aFGpI6f+lMx2PLI+j2UaZ+uKU4cYmLVgMfKisC73uhpsVIYUrgKj7w7riweVnAhBbebK6hM2ajHmFMx7RX08PuCPwfvpNywHgsQBtPbQ14nprlBuvnUEbzk1QTYzPpvat1ERcNysrqHkeyA5dLgnrV4HRZq9iUaFLaiesimykxnANcr3sQUtR5vV5w0VC0lpvaGv+SIMJhm+SxfoPj0WxPnzhDIpU6WFhUp3XinL/cAEcmYF5grlqONaNN7ApyFBReQLv96MYmwb+BVPTqvxMbeDrRzhvaxpUnfNg1ul0B5Uvox13nDgV1jY0t3KWfJinpmtNYh3XfIO+nGYGTU6dzmB8GRN3+bhfbePG0E17VGcy0x9U48VV2+CuzvyaUoIa9AbdfDjnQ0XFaW5iU7omRNd0/3W6xnoAXI3y57oyo+tGMEGbYwbAqfWn16DVhZokBsqn6pJ7esBbbK6fstO9Ttx+nY6W2QlOg56rg61SRzXWXxH2Ww581oUAXq3Jtj3GSO9wPwwLrXIol4pZeQMZWt6/flNDAlw+Ti4KUTlWq2luTMEopgaE51WScI2Ti0VAviqo2nV/xB2SD+pgB30iWER60/AUNHK/DGp0amJ2aR46b4o+Mp6YdObyMRn0N9Ex8fWOovI6dHpG1c0NqiX4yCJgsiiAq6v88BZ170gZMfx0xqLS1Sr69KcWoa/BVYPTPjaeyq5/11q4fs41eHGw0+T6Pqaw8HqNVB5WB+BAxUbzQDQRR5Z6LGdUj/RW+M/bwwfdmLLgj4XGhkvNQxS53LMCvqcgmFUpEhNn5BzWdWgHvsH1dhDyN+eL10P6KW/4TWta//lwOwQiEOE6v/l5meKP13vCf5YJIlmdEkJ6fybk0wVDzZrrxbXtJu+RstO+WaZGMSKqgnL8G10T+NGP6s5g9YRDw1cKgstQfZQxF4EIaHn4eKrr8QAtWd3WIYIYcBn4Q0v1JtmD4Syu3SFgAW78U60TfWs98TwJ1IlyMI/URJjHVtfHg/0+l/fV+gYb8wvrKjf9+sZ8T3W5tiN9/wf7/fV9X11kZPPag9q3eh8d7H003P499AB3CGXtfJQjAUcCjgTqIwEH4OojPee9jgQcCTRqCTgA16inx7k4RwKOBOojAQfg6iM9572OBBwJNGoJOADXqKfHuThHAo4E6iMBB+DqIz3nvY4EHAk0agk4ANeop8e5OEcCjgTqIwEH4OojPee9jgQcCTRqCTgA16inx7k4RwKOBOojAQfg6iM9572OBBwJNGoJOADXqKfHuThHAo4E6iMBB+DqIz3nvY4EHAk0agk4ANeop8e5OEcCjgTqIwEH4OojPee9jgQcCTRqCTgA16inx7k4RwKOBOojAQfg6iM9572OBBwJNGoJOADXqKfHuThHAo4E6iMBB+DqIz3nvY4EHAk0agk4ANeop8e5OEcCjgTqIwEH4OojPee9jgQcCTRqCTgA16inx7k4RwKOBOojAQfg6iM9572OBBwJNGoJOADXqKfHuThHAo4E6iOB/wHzxM3oU8rJqwAAAABJRU5ErkJggg==;" parent="1" vertex="1">
          <mxGeometry x="-1440" y="623" width="75.79" height="77" as="geometry" />
        </mxCell>
        <mxCell id="m_TZgIiwOxfVfVZ_Fh0c-120" value="" style="endArrow=classic;html=1;rounded=0;exitX=1;exitY=0.5;exitDx=0;exitDy=0;" parent="1" source="m_TZgIiwOxfVfVZ_Fh0c-116" target="m_TZgIiwOxfVfVZ_Fh0c-119" edge="1">
          <mxGeometry width="50" height="50" relative="1" as="geometry">
            <mxPoint x="-1527" y="810" as="sourcePoint" />
            <mxPoint x="-1477" y="760" as="targetPoint" />
          </mxGeometry>
        </mxCell>
        <mxCell id="LeaFHVRSJQb7PgwXPhTS-1" value="" style="endArrow=classic;html=1;rounded=0;" edge="1" parent="1" source="m_TZgIiwOxfVfVZ_Fh0c-119">
          <mxGeometry width="50" height="50" relative="1" as="geometry">
            <mxPoint x="-1260" y="720" as="sourcePoint" />
            <mxPoint x="-1240" y="660" as="targetPoint" />
          </mxGeometry>
        </mxCell>
        <mxCell id="LeaFHVRSJQb7PgwXPhTS-4" value="" style="whiteSpace=wrap;html=1;aspect=fixed;sketch=1;fontFamily=Times New Roman;strokeColor=#3333FF;" vertex="1" parent="1">
          <mxGeometry x="-1240" y="587.25" width="148.5" height="148.5" as="geometry" />
        </mxCell>
        <mxCell id="LeaFHVRSJQb7PgwXPhTS-5" value="" style="shape=image;verticalLabelPosition=bottom;labelBackgroundColor=default;verticalAlign=top;aspect=fixed;imageAspect=0;image=data:image/png,iVBORw0KGgoAAAANSUhEUgAAAJ8AAACGCAYAAADDwlizAAAgAElEQVR4Xu19CZicVZnu11XVW7qzLxBIQkJkh8iiCDwuqI9X8eJ4XRBnvFfEQb2OC7iNM9w7XEAZRFB2nSuyOXfU61W2AUQ2QRYXHJU1CSQQIIHsay/prqXv+37n+/46Vanuru50KiT5CzpdXfUv5z/nPe+3nu80DeAl6SvtgZ3QA00p+HZCr6e31B5IwZcCYaf1QAq+ndb16Y1T8KUY2Gk9kIJvp3V9euMUfCkGdloPpODbaV2f3jgFX4qBndYDKfh2WtenN07Bl2Jgp/VACr6d1vXpjVPwpRjYaT2Qgm+ndX164xR8KQZ2Wg+k4BtV1yMLjYloTU34PRDe4r/wTv/A5/qPHWOfjepeY3BSaGBos7UWKSX2d2iwth7Pw4/12Aa8UvCNtJM9+1FxF8AVxnUgDCHH1ADpWBzpLRpxPOdN+Ilaz7bzs0Y0gBhP8/lG09OAmuKOCCwZxjJSwnu+spnMaC7a+HPwEGwxJ03KfI3v/vruqKLIaEGhFmRTkGJ5sAXAVspIJpuRXny05JUueXrJFlm5bpMUSoEqG8UmtR4oTlUfKBVxSEaOeN1kedvrZ0qLTx1tYGDBwIY7/pUy33B9bDpQojbFepOK15KyRy6TlUef3yJX3vKMPPhMUV7Nd4hwnJNXYwZ08McxCBbR2uYs2tYtn3pDu1z8mQXS2U51oUmynGCmRgzXLWPxfQq+enrRlrnEungQVyA8MFsWjHfFnc/KmT9fiUGdINLSCdnbblf2I+u50Y4+JnqCJsyMdSvlq+9sl299+ggQewm4AyhT5tvRgzCC65uUHchgcEoUtQATVbpSFsArSTaXke/d87x87vrlIh1zADpAslSINHdq8A3W5Ad9vMjsJfjwPJP6VsojFyyQQ2d14nmg+yVGyAj6aJSHpsw3XMcpcZkTBYMjGLSBDH7ngcHmjNy/eJO886KnIHfnGsj6ATygk7SYuDeq3g93z7H+3jGnkt/Er5q1+OldK/d/aa6ceORUKWIy5cDijXql4Buupwm+TGCuEsRvBoNHVY4cuK5P5KPn/1HuXzFdpL0Vx/AbsB6p0YHXSMfZYM+SgM/eAGQyABFL8PWtk19/aT+AbzLAh5anzDccIhr4feLXg8ClPo6fIkBIhjj7x0/Jhbd1i0yCuB0A41EkK1iNYNQVY23dmfZGzHy+TDthvnVgvv3k7UeR+aC/En0NeqXMV0dHJ+vqAaYS6IEGxu+e2yzH//OfoePNxg9ZBHJY9cNcAKG6Kxo3kEM+RoXYZfPI5JghBNrWdXLvmfvJO4+ekoKvDizs+EMivVzfgu6ojCuowBgb+gbk1PMfk/tWThJpawmDuQ3LjQXwYvva9bVRXHcw8LHNW4PO9/ajUvDteGANd4dkvD1mq+FbfRWLELewbi/62WL5h9s2i0yYCcMDih+dzGQRRjjc2PAYaj33q3lsNfCMSLUxVMyGu3D0fYXYNRBrO435zgLzpeAbQYfuyEOrmI+3UrcKxO1/PL9ejvvmk1JoPgBohKily4I6niUZ0H2hf48IHc5q8UPFpnKtz0eAvhh8iQFl4OtdJ3cDfO8y8GUwiUZw5e0ahVTnq+6+xK+HNxwolbTB0ljfl5FTL3xY7n9pChzJ+EFoTZpo3ZrbggxWb2TekhISWvUhT4DPe+LStEr1+vzCQyYGzHrDYMMwXwy+1ODYrvk0ipN1cAw4DJmZVKNHQq1bIDCXy8q5v1go5928UaRzX/Oo2AHqCxxMFEY0qgTnQKKYrvpO0UZGYlsiPdLb1xR0Tn1ZNkr5ae16tQBZDT69vtI1/HwwOCh2zeBImW8U+BnTU5IxBhAL8O3Bmfzo0o3y/guelrVZAI+6nfvvksGuR0wam3HQ48p0ahjzM/zQ2RaD0r9jpoxlzZR9iDzHntzbU6vi3WDgo56aiN3gaknBN6ZIGu5iLir528cyJFaqxwSfrYe0O/W838p9y/eBuKUrBUYG8kF04DMUvcxqCaQ1+MsQ4GBJEk3xQQE3oO6Y65ZJzU0yubVdo3R08azbOiAb4UrEl8GlAwbWV2J4mJ7AmztbVjdiMPCZwXEXmO/dRwZrtwmAbFSMI9X5OFCmhA8wtkmxy4gGUqRKAEWmNSvfvG2JnPOzTYjdIpJBWawnNJt4JHBUDhIRNQDgoMNvjZTQMuZvgDffg3N65JCpbXLQflNl9pSsTBjfLi3IOqGtTTDQmO7a3C8rVnbJn1/ZIMs2wZndOtHuTX2TPkaCfxRi15jvlwDfe8zJnDLfcGQ1pt9HzIdcN/j4VQSqMznXJL97aYuceO7j0pdFFENFW3S8S1plQDKlicxt9C4/h8AjWOni6JUDprTKia+fIfOmd0hz01aQH3IDcX+mp4aMaBoYA8iAykq2tU3W95bkmRe2yC+eelWkH+DHZwHMPAz3DnG/bV/DiN07Ab6Tjp6Wit0xxVVdFwvAUIuWI87MFZW4A7Ip3ySnXfg7uWMpmKZ1PAaZSQMEp+lubjwkOpqJwxh8lpigqMjQIQ0q698ibzl0srz98L2lHdkyA/1F4LGgrFuk2LPzB5glbbhlo/h9tq1NNnWJ3PPoi/LHdbhfC9rGFFbNUjGBmTCxdcAw4EuZry6g7KCDGKFQfT6IrhKSA7LZZrnwlmfl7J+th3U7AwOLwc0yhDYusF88wLHbRI0CWrSxNevhNoCvuFHee8x0ecOhkyTT1YM0LVjSGk91GgXIoPDpOhDqYApaiuAM8NWsaQ2tbTnpA+P9+4Mvy2PLIXrHkQExMUpgQ723tUG7KxLHSczZxX8wOFLw7SBcDX9ZirjywLsz+fcvIHaLjJWBDKxbDmDWmJGGho1pTRmnQLYBT1awUSyDMXt65F1HTJITj50kpa4uXJLGC9PWgxUyAFYNHpuwHCl8GP4pQa9jPiG/LQ1wcgCG2XHyk7uWyNMb8Xk7AFg00A8WXUnyCvc48Dn3J+ae4aI88MMDZYyP8CZpiqjpbHjfjUH+4Dcek3uXMSuZVq23OWK0WLQ6yyXxXTcyyEAEHiin2CcH75WVj751rrTmNwerkoRoQOORqm/qD1tj4EsYNIAwBP2yIEOIaYDple4WufruRZLPIs5smchJLyW+QO9jD//tSeCrxlstDFWsIx1jkFVdTqFBcoo/13y9IlKKsvKd256Vr/50S4jdFqBgaRyUSOFvgGMwl4ZTVXJh87/QcGjaJJ9610Fy4ERkBPb145JgOVynSUUk2RfWNWR/Ef2gJDtI9MI0hGCUIGO6vb1T7ntsjdy5CApgOyZLPFFczPpz7qnMRx2Gq6LCzI1Z0HrIwwr1AHWMsaktstjtn17aIMed+yfJ5/ZXQwRe5rL4U31+EKU+aROR46ROHyCSTPu3yvx9s/Lxtx4gnb3Q80B5gB98eWQ4pT8FX8HiwmFdXGS2mtGhyaz8mG6gHNtVkI5CK3yBrfKNexbic6wdUblNnZQHhjUZ5WiIXcgjHHuEq0WfOVC+drb6BAqqa5VKLaFv9EWG2LEuzgTbihEVtgAeXBlo30YA6z0X/Fb+sBSD2DoZXwA8blw4XbJ9QzGf6WjheSx4379ZPnr83nLM3PHS1NunIpcMx3UhOVBZsHMC85Wjb9v2g66Uw/WDGzJkVTcVmqQVBsdNjyyTh5bB6ODipSZm2gB4JeiUSZKDTfrEQqeLZk8wOGxAVIk2sUA3QoZu/Ib504eny0tuXSxf+79rYD3Cp6eikoOIAYxLX5TTlAe/IJlFDU46f4mWbvnKu/eXGe0AHvyHTSq+XQ9zwxiABAADxquYL7kTAUrwlReqsx/bW3Py2POb5cd/wOq5ZrheyNY6oWn9mrrgEmePAx/5Q9mCLMPETObFZWVNT0FufXApsoI3hfURGbgSNIJggll1rbGXw2WhT5cGLc6CdGc75f8thH63lcwBy5FrMZidrI2OdL4EfIMwdKy7ku0BtpmdA3LGu+dJRwl6JP11NJ6pgijrZZR1aemWKE65Sk57IBK7Br5qSKpPGddoQchv0eqC/PChF/AJ9T62l6leBD/R6kDfU8Wu6R4DGAyu7H9s6Vo57dx7ZeHLCDHBZSAZSz93saXB+9qDMDyH1TgiGbloABTlxr5T5opM2QuYMwvVnckZLoPU2WOra1zs1mqFzq7AePzNuC/+P2xms3zkLbOkJd+tWphaskMyH69dG9yB+YIrJpAYIjEA2cu9zXLlfYtwP0weuoMYSXHlM7nXngg+G7tgdAzIKsQn3/DFW2TFCvTeeDhwVRSX+chkVrnzRoW2qpP88j4Q/JvMkMdPB0TV5Kl4z/WQNugOyvgyOhlqMXE0qM58en2IbVzy9XPa5ZQ37yO5rVuUyDO4hxpfFhlhn/CtwoXOZCp1NeNklRSIxGoFYhbqy8t9AN+9MDr6OJGxYF0ND+rZvNSezHwKvhAo56qv7//8Cfm7K/9DZCoW3/TRIgTrJSoQe8vin2MBOr9GjG2XaBoXxUBNBePRCawk6KKKA0elHT8JGAgyM4oqMOjgI9vhvZGnM9/h+7TIhwC+1nyX5Ag6/AT3HY0GE+loC8EUsDI0+Fw4uBrDPn2xOydX3/8s7g2xqy9TWXyV2p6s8+mCqWIBY5yVL1/5a7ns1tVgPbBNgboVRa47pTjog0XItwON8Xgm6hTuOZlpUmALDYvhb/NOKEUReIneaS6MephPF5dbSC1fkgOAh4+/Z640FzaHjHv+Z8xXwm/WSAnMF2qmDAk+Az0rYmUg3ovoq2aA77n1A3LNAyvwCIhBU99zF4IaPN63e6rYRaf7ssPPff9e+d7NsMw6IHJVx6JFybE3nYlx1DEtM+ae/eDQVTdEEfcYB3E7EaznLEZQqr7mQON7N3qcmtWM3Vam6zkEnNGXSujgkG5C2tTfw+CY3tGP2/qaj9AUOp/CC9auSohhwKcOaT8D1wbQWzra5KGn18tNf4FB04wCRYzzqthVek3FriaMmCP3C1f/Wq66GWlBynzsoBBSSnQTF23bQXQVp3KwlPkoFvG7iPs1Q9xOB+sl4lPRjx9L1gx4sH9imV0H+Hia4hzXojupr1dOO3a6HHXAOOmBk1lamqBqFqWtkIGfD85lxtnUz0fPDLNaBhG7xJG66cNEYNZfEfcYaOuUnz+8TP70EqRIq1dOYNPZt/Z7Txa77ANnvi9e9YBcSeabAPCRCdTd4a9Irxor8OkqINOtCDCmHk3dG2tuYRmaayeQj4PPLd5IXLlS6swWh7+SlCpjPj9W8QwAIsJx9PSSnPLO+SAluHOgepTA7M20/F1BBOiYF+DGcuJbVMvYlcFAZA5NYpZAfmlzM+K7S/EHJhSznfV5+TyuQ0R9m1yP+i6uvSdktbAviuhsKsdnQee7/BbofAo+U+w9DMTeH2uxG699oFY/YVr44b0dRMo2BFvINAmvxDKJGJDCsdoNQlrHsZooyvcuqv1YXDO/Xs44YY4cCMu3WICzGZnMTfAjZhhio7HBeAtPVRPE3DXaBvCc5huGZtG6BWFKM7OuEdstdY6XW36/Wn67GCK3jazHc+y5kmgM22sqh6sRXrFgTwGfM9+ZV/1arrh5VQAf1y+Q+RJRM4bMF/vcNNpAfQs+sBmzcD94/xPp5vocB8mBFYu+WOwmcroGL1MuGjUpdumk5n2o0/bLIZ15OfWd+0tLtkuaIS4zFm6koaHhNoOIQ0V/a4Z0+Z4EH9tYgsRob8vKklUD8r0HXsScIYubnqcTmfenzmrvDcj6xR4V2zUuaTj4Yni4NTttDkQVc98YmCcoDDBhtGxgjPFiu8KBXKHE2w2SZFKyOK9H+emAdhIliHrk+HltcvKx+8Ln1y2tACbxkof8pMjVl+UDqk+bbIiPqKJmKKLpXFYrGQfncrKpPyM3371MlsDBjJz/YJ0r6GPm5mTQi5V16j0OfOwD6FeMbnzhyvthcAzBfIMuRqhBNrU+Ut3N9B5nMhox4+DzmAzfIt+rrheJT8+qSRhikHsNCb5o0D19yRV9F+GljXL8AZ1y8jFzJFfo0VAjdTMNqvk6ELf0lfEC6xKIObSxH81uaWuWdT0A3gPLZPEGfN/iRgZYvSI1jYi2SIfHkxOLfA/T+epmPu2war2qTuD5YTputG4pbsFyObDDDFi3JcZtjeWSSzpLkflsvJVBatzTjYsEXFXHJOebuKuQ0nRkU6fdKMfM6ZB3HTNbxkN0DvRBBywhycrcI35bVR/ZJE5a3KYNpXbzuXZ5YfUWuft3L8jSLoCtmSn07C++qL7wbDOYEsMnZb6dw3y6Mh+vaTAw2uCALdD3ZuK1ln43GPgq0qhI436NKvCVc6LKXygACQCKXjIO/uzbJNPHFeRdC2bLrFkTZHJHCbHfPl2uqQ4VEiHuWQIrNkHEIs1V1nU3yV8Wr5V7FkFqNMEx3oIJxYlF95C6q+xZk0ljQEzi0vb3Hid2VR0KYvfzl98nV9PVMhGASAwOF4Pq7RqEdoZhPwcI3RvqKwQT0I/IDN+puJeKsVoGRURzw4IvMii8OS6K4+bFMWS9ZsSu+nxoI6M7cEDL+IwcDwAumNEhEztyWCDUHvQ79M26voK8uqFflqztkSdW4vh+S/PSCgYulo31dKK5pexGkumhoeSo9S2fAcfSB4myuGEB0W68dFL9U6bzff6K+2uAzzuLv0cZXkvYia4O9jP+yUIsTUc6vOqBxlgVOXl+X0POUGI38efFItVB4PPFJlHCPgbWCgD6vWwikL1oAOXw3PTT0SJX8czPcb6qbVaxQK/rfkhTE9y94/HcRHewh/F+cfC5W4lfozjkL8+aW140bnHnYab5mHzdsIoFjQUf+4agQO9ORJWBToTR6MxOjA8btFipcwwOCr5I1KoYVWUMOEAoqxkKPw0Yd3XE86jKSayjFofi9FKcLPgJ8TUzhhxY/O0GlCmQCh5/rxc0S7c6bb6W2I18kSz+3bNO7jxrDhaNT9VIJ6tUJfNmTCA2+EV2D/B5sNOfk2KXA0nQ0ZlcAQb1Odjg1ejmWuCL46PmZ9NbcXHR+GZZMGuubO7aLMtWrsW9WEYj0isrDA6/nzVIDQwHkotzHoMfPYSf+QX8HHvICsI2daIig8UmiLI9mToWuzYBiNX+NXLvV/eXdxw6ReePrqprEPp2D/Dp5LdO5mymUp+lMxniVh3YjjcfWB/0Ono5AW6MIopCiMTOZjl69lTpwWo05uj1IDN72SoAsIlrey1k6P7F2Inu4EqiOjXYwa3pKrzWDL44zsqB6uiCBHIE9sTp7Prhq7LwmwuwrLNDY+9M8Y8jhzuS/HZ98CXM4JRFEKJjpzB2ywwPF1s2AKr4j4T5Yp0Np5IWiihP0dkph+8zHctxt4Tq9Bi0HHS1nu4+GAcAoEY2oiSFJDZsYFBQxe+rhjlZa2GfD9Hk5MwKX2XEkE79pvYGRkXbkDz7jv02yq3nHCMdWK+p/Nko5CmxJ6XWdyTGjZjG1OCI5I4DkANE67kdC6iZOKCsYwDQjq+T+RKRZ3qXW5UUp/mt2PpgnBy4LyqTothPizWDPNesm/+1wCWyVZasMQC6caODGjFthdhk2yq/HtPRSNQGQzD/zoGdNy6XGz6zr5z2jlmwrKnwhTY2Cn+7KPicxVwURrSARUgqblXsEXgEkAXa6wWfinEnSOpLZryUALyOVjkEjFcobpVWuo6sCWSMZrpHGIuAi2d9d5e8sI6F9biCzHU317vGFFpDXMz1SFKaHUbFrhl9s7lb3nNYj/zs62A9y9ROVNAGKX07F3yaWcIFOqaXJeKwHleLA9BdG4xt4rOJSFbocHHLiEIMpCGYL2aeCgPGlPU82tSZk8P2mYS1stSNWO6CoOYyRuahoJQZQ2D44XYwLOL47KYBZCyhar2+jPXGmlaS+ef94TOHtzTDJclyMWu4d4McNm2z3H7OG2TuxDaNFVMKKz7Vu92YydFQ8CXJpJcztgsn8yTPaqGFSMB5/tlw4ItmtJabYKfh3DYuBIJrRZMAjPWcwpJwGAeklsFRzaaqAYUBpI7XMU4O2xvthWtF12FYyKuE+2dwPW2FBfSbwHwFZAo8vRrA0zUq1b7AOgydEY0/+8NUBO0LThi7gIIT/2iYEb+7VstJBzTJlWceJvNRF5Dl2bTaKdpuWz7rxGrEq6HgSxILrrgvgI8+ODKKFmS0WacDOBz4jO3IPL5EsAmJlDP2w3U8UyXqPsUR/rEqT2Fqx4kFBrw4G8QBzNKgna1y5NzpSEjeCtEakj4JwCCbsXTRPiug3Tlcuw+lzBatQuFwWMFhEvhrRwxqVdv1z4jx2LF0XG9FZdX29fLt986UL5x0APauQTY19GPNPSV3Y4KEFH6dRY3AXiMNjrBYnGVXv3j1g3LVL7iACGEv3R6UYjf2vw0Hvoj5CFS1bqHnscSFui8GAZbqfN65sZw1ttDMEuLJFjWpOyUnC2bOkL7CVoAMolUzUBjox8IfM0Q0LcqjBniWp1cCeFuZO0jGc32TYxrrqGMxvhFb61ww3ZTbM7APQmFnkS1r5b2HiZz/iUPkmFkTMQ6sr88F6kxURUKrZs3YGOD43Y/50BdFPDQrFfzdxXfL938JkTQeYlID6dVKhoFvqAmorGc+PSYMcMF3rd1/6pnEsbXsYpphrXE5OXzWJHgk0G78qTnOxDbdiNTb8UcJgOrDPfrpnEV28jMrUS1qK+Ov3OyZ0QQjyIgpt0+p8kkT/fZG8SPGtJlfT3/nVsSNc6vk4g/sL58/aX9pg5RAqNi2NaWYpVoR5IymJahwoAZbT6dt/+RpmNhlOQyWhyDz/etdT8tp3/49wAcxScCQYRIfVJRY4ERR6zl9UJFiJNPAehkvjkhQWqjLrxmTnTNfnG/HwVOW4sDhwhyhca3ypv2mSxfWX9DxqnYsDmP5siKL9KDdbWA1VlEuwL+XB/0tpIMZ6VGh/K1JL88gSZ6hinFHNIbxubFe5x1lbIftG6R7lbz/iHFywcdfJ4fNHq/lSLTaPFVDj3NH9w4GbgBdY6BHQdAwP58t+eNAY1ae95Mn5fxrsWsjK7wzzalCHA7HfJHYpTOZWSuMaqj4ppgzUTxYT+pYcfCsm92P55km41vk2L0mS38RSx0ZaCfgLOBO8AX7FhlNujU8Ezxb5S/U8fqh4ymJ+wRimwK7lJdgbgf49NRIdHvkQtmaEwig37JeprVvkHM/NFdOP2k/GYfb57F2mKV2ObFYE1C7Be3253BvaGJwNAh+DQJfea0p+6gInSqD5M5/uvFx+edrH0P8dR76jusd7OV6UvK3TceKMBE+64CON5HbULHjaWhEVDek4qzyJQxk4nzmKMGP19kix+w7Q4pIXaKKiPqfYSkj7sGliswmLuDvIkBeRAmyEkTtojUUtbRqabVzKA0g+ssAnojd7QBf4i9koy1DmY2k3w4Ak80r5cNHZuQb0O0O3neCWuRFfK/LoZP7l6sluG5XBl9o+e7FfBxrDJ6qaDo2XOzcJ0Wsnf2f1/1FLvrXv0AEM8sYg0/NyrwnZTRWo5BKF8tcYNF5sy0ESowF9jTZhgwY6ZJVEqvMfCYfyVqd7XLkvtDxuP+GczEtWdbRo1ULwJKj+wA+Em0vsqKXroQViXW5ajZqu91wIrhjBnTWGmp47bsKV4nrFz4x7Raafo8fKqI9XTKrZaP8j1Nmy8f+0/4yHp8XEDrLMopBFwraTeOCQGR1hGp47d7go8aklmZAlZr0Wj8DulVzi3zhmkfk6p8+BfE5J7BYJFnCCRzIANqk4zrhoB5P65YfqSLjcLHjhxhkry2rh5DeGLkA8PaahrQiis6yeApOmaCEB29ecCezGvyiNRC1PTiXi3e0bTHwOAmqZ5E/2LbTyh6kBu1Ez5E4v43paRR1LZePLMjKOZ88HNWwOlVVoIaaYdld5Wrz36mYrW3q7N7g85mMp9T9LrQqKfMkW9AhYBmwxln/+2H53k+eAwiwrDERwQ4ozvIIfLzEJBgZtJZ9WaEeSh2L4DWROpwAUeBBfGFBzhtnTYFbrhfiFANGSQaa1mW9YD0FH5zYWUwWkmppoFWepDuFxoWbs67XMZ1LP/PJVk25wzCfZzwnm/xFqoSqF9TdcA/qdp2b5FsfnC8ff/csuICgckL05qDbZcByYZ5ypRtPYeHJoGno5kdVcpWHehL+YAAdbLpsz+eN0fmUzLg+K1iNNAgCwWXVWszRSIMRcuZlD8mVNwGAE8iA3POCBzHuQ1+gs4pSYdgbYyISCLgWV9kP7KNrJIzNhtJetM4yjmeCKaT3gpl7YYkt1k9YJIC6kJKpfhLELkGegUJfKrTIU6tQvVSNC0vXJ9AUfKpcGXtVicuhRkknpx2v64uJev7weSIgM2k1j8Xhfavl1KM65fyPHSgH7j2+rNupbeP3NfPBDKZqwNVqTvnM7YFU/ec2BnyJHA0NU3WFnUTz33TnJrIKjJAzL31Ivoe9zqQTViypJ2EvsxyVCPA5C+JMAwB14HlBKj/sPo5AuPa2L35m4lEZDw5kxGqL2HYqTA0mB5gU52VwnwIArWoqLlmEVbtwBR3ISCKlPsVv1EVjE0J/DTeEtUDpbOjAdTBSVPA9QE6dsgfAa18r1/zNfnLaW1H1isSNODPLCzs/hkcPxYY8YFZDltePkB14ZGPA532rbOd4CXogxbAKKMgFRgxKcEKfcem9cv0dL6KjsQGLqk3miNagt5kCZMQOrsNFvFWXDqo8DAPl4aVYcfdOJFDzYdeeY/aFOwWKOd0ovLeyHf2RTKg08FHoMmjGsrXPvAqrtheMh9VkCegdd2411yvy40GNmS+xjm2e8HkKuGf3avnI0S3yrU8cJvP2boe2kNfp4oUmGTfn+1CAsxqAZTV6KCwNN23GGoeNAZ+2OiAwpCyGl0pV+srUOEW1Ju84fPDfL/mVXPfvrGQFHZB5Ir4EUsU2exdWrhd0pPhl0R+9tDOfQtrUL2dC/GYsuQM6HvLxBgp5oX3NdrSaLlFXPT4AABcgSURBVETdiJdvBuNx4z3WRSmiYv5TrwB4/axcaskPQS6Xxbw7resFXzIhvT94MTbf2qqAxDP2bZa5HSvl7I8eIJ982xyNmBVY60XBnlN/ndf68/djDZIddb0Ggq/8CCoQbLB1piokWSyH+ClKCxisCDH6txc/IDfe+XLY2VstR/rSbLByANyGl+WU9+4jRx85T/7xWuiKk+cG5BBBREYOBgGC/AGQ+OGyQ6y5OGpvLBME8NrwWS81T7SBobJQsiLM/yza0Y/B74ZRtGQ1dLweuFOYK6gvAq+KJ0YLPp2Fpl4kTm9OGoAcwDv18IJcePrBMm/GONXtVD1I9lYLgI3Bt6OAsiOuu1PAFx4koC8Ru64HMmzPAAVNFIjgz13wkPzwV6i4OYnGhWWJ5KB4r18l7zthivzoG++RSdia9CroiV/4P2DKyfNwMo4jkhJFiLgF8JAWdcSsyVKAlZoDg4Vt9FgVinfju6DzMTqFS0oPwPfkKsSgqWsxVqoqoxU1cqdlhc5H1lLZbSCOhiwmOFcHEv1QEWQH80B1C4iseFyuP+do+cQJczFv8lAzw7oQHtmo4P+OAJ1fc6eAr6wKV5b/IgNyZqutwEKSFDGAxKkX3C033Q8GnLhfEEvrl2Op30T56UXvl/EwlUtASxYDc/Xtz8vnfwSgTsBxzOzQwQVosKlyZmKHHL73FAwiBS02TjGLlvpeKMjj9VAgapmPh+1On167IbAlGU/BUwNU5Z4M94vrANYcObuG/uIEjA4KqOLuztDxAPhNi+Wqc98sn33bgZiQdBqzHUFxicGXMt+Ip0hZB+Q7JSmGrvQ68FdxQxS4W6j8d4PFTj/3LrnpYWRpYBfu4w8akF9++wMysQ07cavvDQYBkhNaEe249I5l8uUfvQKmnB04ordXxiH1/bBZU6W/0Cv9uBl2vjADA5YsDUkdUKsJRaxi69CFr2CrU/rxcm7NhoTLxHJMdDZ/cAfVYMxnKIstcX+vTEiDCffbAtBthn7JGixbX5Zr/tdxcga2zWLEIoPnU+e8Sn1nyhF3/GvmhJ3CfNVPH5OKGyTatSQGgIuJjr3wyXzg6zfJi+u3yD2X/1eZNQH5aJTC8DdoZV0wJfXHVkQbvvurF+QrNwCA4xAFQVrUMdOx5qLE2DF30uUaizBwjNmGQUQ4iuUZwXgDA52yeCUSXQHaJBE00QV56CDgSjA4jNitcjslscRusN0WuHFU/yPAOHGWyzXnvgngOwRGRr/uAex9xeygXf31mgBfItCMHMIvIg8imN56ilXI4LXd/dIDBpgzuVNL7HKBcwhgBQDRJcw80NbmjFxx+1I56/bNsmD2/lKCvhfSiDjUIWOXxRgZveBOQHkda4AY+tyS5WCdvBXU1qG29bc8XR2+/oreV9ke4YjQ/sRAqtD57Bp6Hhq8CeK9Cz8Alx7vuYrdL8u15x4HK/cQeIegp2ah6/oTx3HrXRSFrwnwbSPBTLfSEByHnxYxUUYrgAYJow2WY2cpkXpccAn2I8mjVZ5d2yff+Lct8swagBfnBXFO4Qo7FpfRMBJL0uInzyKNyFB59lVYtdQJdTck8ycqtgkiil/T0YYinQpmNAA6GBOd0dDaA6bbAtBBnwv39NlH3YBO5RVy3bnHyulvPRjMR53Pki5SsTu2060mAG3syGjMKKFlTNGaTWqX8DOlJM2aITZyiAQsXN0lP7htJSoJTJfV/c2yYsMW6cW5WVivvk4B9oRm7XKL+X4w3rMrwHhcc8FIgq/3VYxYy+JFQEkIq0YfuIPbXS/uGkrCbqpLwE2ExNMe/NCK1hJnivJwQY/YdC+XG897I7ZKPQSuobCHSaMX+YztKFde7TXBfLUeMAS43foNyZvlMefUD+4IB22x2IPAQ4ssfqVPrrtzuWzoRU4epFQBuW4bN+Sx5Vav9KEQLWPFlJ79EOclsEv/QLssW431JNTxNCeQ1zVHtYpO98EZ89Wl6BtD6oNZjJZv+RBkuk1gPPosbVfxxIqO17EwXLjlJbnh/OPktLcdDPAhWwXPpxEYJeNU56t/YmjYKqQqVas/lQag70kW0GZdnUR4yQoas9TxpaEQ1lNQJ1y6sluuuf0VMB5y8gC6PgCHseNMbpysw35vy8GA2KNR9b48DJMegPfFV2HV0geo9VXYMtfVDGymY1U6DYd7bF6HSLOET7JpPyz1DYyS4HcMHGVUTZ8xoGu4h5YU9MCX5HrofJ84kQZHX8jPs/6j2rGrvxrGfDpbDYAVJMY/tpW5Nj5xcNwOU7ajhUBSoaUbli4ufnmzXHfvK7Jp6wzgqBnDznQnXps6Hip7whm8rqdP1mzoQwHuVunNZ2XxGnOn+HJLj1zEIlCLTNLN4jpfxGQVo2+Aq5hJPBfH032iuh3XqviSgWAq6SsBnnWG6pgBfNcAfGcAfHnofDnz8+kpKfONYO7FzKezN6oD5/qRuxgSbmTMITCmfxXONBVJ1SckukNc/vieF+RXTxSkGYkGWmdRBwhRC8SAmQpPMTvQkpW16/vlhVXdqCaAg3o9VusizFKt9LGC4Dd08Gp2V+ft+NnZPgNpmaMBNrDcZoCuF+DT0BwbbClgFXpj8kTl+xB8tHbPexOs3UM1kYCuljCB2ZpU7NaNvmSdkrEKfXNMCfIXP/YlfDr0GCRujhJwZ5mAFNsRBDgQhAvT7fJwvfzovmXywHNwUHdwcxmEz7hUk64UJS34Bbs3yILDOzTb9+wfLQ2Z0woyvQpGlAkMFgtO6DhuoXKOfVCDrsFOwV2Ca21Ben0XrGfdNNpiyxo3JGtXu2z8WvZwuk0XwQdrF+A73f18qc5XN94qDgxLDkL+2zPL1siiFT3SjmhFBl/kMTiEAMNp/cg62QsO5GOPmIUkU9i56lYIFm3IWuPLNEGcxKwTgo8ZulsxuNff+5Lch3TAJtSB6WS+J+5ZwqLbYnePHLpXXj598kyZgmWRl9z9vHzteoTsxjESYkaG0muskYZ7lVmvmm0iFuSzMZ2ei5A2AXi9KBKk+1N5smtg76GvFwGd4Osi8wU/nzNfAG/KfCNCoTKf6dW/eWKNPPQkgDWuOWxuolYtbb8mlDYpyNx98vKxt80OIhen0REc/HKVrBMyYgIzBt8fvBf4fd3dy+U3L/TLeCzLzMKn0odNlo/Yu1/O+KvZMgkxYDJfK1jkijuelTNvhLujcz+MJtmP6CD7xaG0avNoiMdmhKLLohTaVsaXCRZOmjCByuAbqvtwziDgS8XuiGDnXEVjLoSzHn1qlTy8qBW7JXIPCbp48xoiI/h6kZk7b0ZR/vqE6cl6A9dvYmkVIGGshOuSARkYQAkShOJKcv2dS+QPL7cxiisHT8/Lp94/WyaDaZm0qtvoQofKIS398rtelC9dCwZk6r66b4I7OrxiprN7JVugEkgGJrLeBup2CJElW7W6bufXGSH4qPP1LIeTGWLXmQ+ADDpwynwjgiCHTrOVIVt/88Sr8siiZsm1doIb4EJQZT2sECugatK8mf3YmRtbRLlbRjs7BoO7W8JAJJkedKEACHSm9CGMcS1E64buvHz25ANlSntWU6XIono83hcQi2tGsP77v1wmn7vhpaADZgm+wMPll7Gf7o5J5FKPIzZhUfdAxFK/U0vWjQqzZGMr1t9vo/PV6kayJXW+5fLD898kfwudL4/r5yDWyXy6ECg1OOrHn0am8A8D4g89uUp+szCD/SYmJOBzq7YAnW/+Xv3yYWwLz513GMEI1e/iWsGBhcI4EogU6USoZgGGjbZh7/YgRlvANSYgZV4rbwYTOJwH1HK3biYctIIBL7lzqXztJxDBLUhGUFI1w0BvRUOBoMM9iCtYzYIMGdmAzVi4hakqYXRQW6UFvcBgTBcZF4N2n4ldgC9lvvoxNnh3KhkwmE/wrZSHF+YkB/DRH0fm06Qmhrr6CzJ/Rp986C1gPsz2Aa4/JcuE6V71KjNgwEswGJQlaeFo6AoaJSivCYwW4iXMDDEqJftBxytB5rdi/fAZNz4v194FUE3E2hAuBN/GkUvZjpO64B9kXJYr7BLJrFRooKuw263NDsbYhTNYd5WZ7waI3dPg5+Mip4yJ3XDPauNnDAapwZdonJNZ1SOCgGJ3lTy0KIMN7MZDFAbwcUU9a99thdg9YGZemY+VP3UxTxInrd07IfxKfc0GJFqaGYbJAMlVXTROWOoCiM4CSANMVcIulHf9eYWcdMHDANf8sFuR7tvhep7pb1QqNwF4W6nbKcINBCMBQp3Mx3K6ZD6I3UTnS/18o5seKnZpkRJ8ELuPQOzmWgG+Kp2vH0saXweXyAcBvuBqGR58CpJkTINOF8xg3xQ+/PZDfNUcs4ObYfXe/qfl8r6z7wcNwj+YgxHEKvZTUcBI9/MwHXALs4vJdiaOLU+mwhFNseuhsuBXiRhqCNBVf6WJBQY++vlSg2N0oPOzKnQ+Mh/Al23pAAOBeczgICvlwTgH7FUYEfMlBKXjHSzqwIYOSupqXCMcdvXOqq8XcQ8YG3eA8U7+x7vwAQoOMV8OK9WC9IQOx61ESXFgZ021UnEdnDsVLhNtP4+LLNzRkqG3m8wHa/cGhNeC2OVeHyH+HKz+kdxg+8ZuR53dWLFrmcMUuw8uRNJn6wQILtYWKWpyJx0JvWC+g8B8p0QGx3BiN3ROzDSVrKNFiihucYxqY7hHE3L8bv/TK/JXZLwidLx2gIf+Gma+KL5iVwnHOo7J8jgHYfwb59hmzSMasG3UQGO+KlcLdT5d7KQqawq+uvu42tp9YGETSqRA7GYAvpj5kLc2YuYbshUhwzljlZrycK+0QKS9uHaLzPvE96G/vQ54Y/V6luegc5m4itHgMpGAixhPj7XjfJchz2Jxg6be3tlGIpfFrkc48mA+bjLDNuja+RR89fZuUJVcJFLne2AxLMzceK6OhaHBxdll5jsQrpZT4Ocru1rMqq1rspeTsMrJWwE3mmbPhCoQFO3ry25+Wr5+1R9DeTYut6T3WctuVLGogoO6ZPRVxeBTvJOOLM5X0zKvs6+sn1TnA/P94Nzj5VPMailyuSfVgKDPpsxXZ38q7CLwPQSxex/B1zJed9hm9gn1M0Y4tiK8Rub7yFvg50OkYoDlytTVgmswPj/IPctwCUfEyVghTMd/IW5ZIQtuaDprmxCNuOjmJ+UfrnwE7Ie6Lwo8r/niN/I7GsvpemC/W+TLS9LnhzAs6ukvvV1Z7P4LdL7PwOBgSLAZOYe6zjkFXz09WT4mBt/Dj6+Su59rkg4wHzx70Pe4j3bQy/rg5ztw77z6+ZqQKDDAnbYtvcnJp9adfcyc7UK6uUcaeIZlPZPhaJBgzQYLlDcjR+7CW5+Qs7/7BwAQxYl8qWQSy6syMJQdq2cC/la2Y/B6mFkyXLdVGRw/QGLBp7iACODLQuzqU6TgG64XK7/fhvmeDTpfE8GgQtASA+DaoKvlr08A+BhKQk+rqq/Ri+GYL2QJ8pxgEJq+ZxqSJiDgP9bZYzoD8/yoprWiMsIltz4jX7vsUStQaQkBvLPGag3EvKatm93m6ZPGjYL54lOqmO8HYD4Hn+t8KfhGhr0KsfswxO69Br4MwDeguw+xZkoTFogjwjGzKB87YaYCaPB4QK1BrvyMfkV3jfjCG4UngQymYlV5rvfNsQxuS4tcfMvT8veXoUp+G7ZV0I2cuaI8VAkIOh99NFQRBhP+phc6WdbbR3Gz1XldNjj+BcxHsZsyX72dWeO4CrFbA3xaJR2DVkAobPa0AXn3GyciAhGKMwahaTq96fbxLTh2VMOojvE45gh2tDYro6mRoxWnAiuG2jCuA5IjUZsPvr0m+BczSL//DgD41cugA7I8myaY8ho+BcyV4vI/xuCOYj5ULFCDA5GYHPcQNmMoTaMfARiHA59Ro3ZtsakblQfgEimUCz6qr4/fJoq9i0KGy8LSSjIZ5WgT6qu8/dhpcvCcaQrEkA9ohouZrApqjUagzh3K3HKPigEkGTQjyeA7twGAl6JKfhus4MSpbMynC7p9OoygA4Y6dAixq2s4zOBoMYMjFbsj7Pd6wafsZ3uvZSj2IubbxgVi4i3UGjZTA2lHReyR9t5jW+SoeZN192xNQmUKvmPXmI/bGYToCtOtQkZMBsvduEvSpdABv3zZb6EQEoAGNhXjBCyjGUnTRtgTtcRCfC2zpGl5w9VyLVwtn0yZb/v6eFvwsQ63GRzcuREDy+0FmOqUyNnE3zbYvQP6TKAG0YplknnU0nvf0RlZMJ/gw2Ainqzh0ipVLVHl1AMerFUth4zC2pnWnFx520L54qW0gpFooHtDRWk1ybVcwYv0vZF2VSyy3a/EpZxILLj+HCydfAfS6LG8MwNW1kxmHJ/WahlBJ1e6WlbK3TA42psnwJ5EShO4TitF0QXi1xyB0h7Gzqxh7M+RxwLwk4/JyevnT1LwBeKLS2VHyah2bnAioioWL4YqVax6RQBeesdC+fJ36QdkgUp+x5En5k3B3B5dz59VrxGrFPw7OJlv/Kfj5L+9A4vGdfWa1YHm1+m63frRV51YcJ9au53qZFb/WJItUuVO8cFNULntPRPwERfISsljb4z//IYMwBeYTw0OnFbmrTJc41Wb4cpsS8CYbsqN1PuLb4UVfBHcMBPn4HtavFEbkkkygtlS/QjaHILZL0ya5lZWL8m/XfBm+Zu3HhTKZUAd0DVYvNWgFnf9Y7Kzj2xcYoGLC3Tco7B271+MQWxnqdcBaccyR+Ut61DqcD4Mg+0dEXdcgk/cI4siQcUuiF2A7/DXTUx2HB1KSQ/EE5g3UB+jIORkDDRS/1sw6N/5xVPy1SsAwA44otXRzPbS6PENYMZA7Koopz7JlHy2Y7UsueaDsv9MVGVFOwaQHKuH8NbbJNbubCiN/P6NA1/knP394yvlN4vQje1Yw4FVYy10qbHtJnY5/gRdqJFc1vcHezx3hFDnG4CLheD78Oub5Yj5yJSmDofrcmOUKk4Nl4tFnsVEwm1DNQQWY9QVdki/+i4Y8CuXPoB2728sFWcs81omikc+Dt6QMpg3PCdfOf0wueQzJwbW06oJBjpnylHd57VzUuPAR5UGMoPl+h95/GV58Kl+7HY9DkW3WdQRiUKYycHooOvEStXq74r4wqA9R2uXgC2REpB791+OnChHHDRJmVUHzXS+wbs+6IG8mwpQXRMSllMOcCE5/YCo/3IFrOAzL4cOyNQrN3mrDJlRDy9cPlpcprVXPvuB+XLJp49D0XJfF4I9zJ32tLNGfZfXzIkNAx9z6kLfDcjGLb2yto/hff7JDLWQ3q58U63H19FVMacxL5C7Gs3sbJZObPLixKb+YrtHzUvaRThBAiGyXQjAYfCbuE0XPud3OUQ8/vjsGnl1M8t0sM2hoLiqa8bc+qmxN681GE6UsfW4YCyV0BetuMf8ma2yPzYgpM7Ayg10jHP7rVAzpnyvOrrmNX1Iw8AXFveQmlhR1IdjEFE4Vl1GwKgeT+QNHqiLb+f8Z3EQrbJAIOoO3GYXcauuHf0qQtRrfIZFMDUDO5hMCkS9+Y5vw45+xoaBL9BJyDNRsaYGSEh595f/PWbV1c2ALLsORyAfqSYYE6vxY3NHXdFKjk6VYzRE3jS7j9eKdv1TJ4Uya8p8I+7xhPmCw2+Yl8LTYDrcsTW+t9P1lwFwKIkbXyFmvsR3mIjkILp158ywWn1sXR6JuykgPwGbNtDXKY+iP16jpzSW+RrSCTFoHeijA7NfafuuMoqHTsBeToaoBcZRXPk1dUrDweeiNSmZVou4KF6qRPJrqtfSxoxJDzQcfGPS6vQiu0UPpODbLYZx13yIFHy75rjtFq1OwbdbDOOu+RAp+HbNcdstWp2Cb7cYxl3zIVLw7Zrjtlu0OgXfbjGMu+ZDpODbNcdtt2h1Cr7dYhh3zYf4/wN5WRPAFSTNAAAAAElFTkSuQmCC;" vertex="1" parent="1">
          <mxGeometry x="-1234.28" y="603.75" width="137.05" height="115.5" as="geometry" />
        </mxCell>
        <mxCell id="LeaFHVRSJQb7PgwXPhTS-6" value="" style="shape=image;verticalLabelPosition=bottom;labelBackgroundColor=default;verticalAlign=top;aspect=fixed;imageAspect=0;image=data:image/png,iVBORw0KGgoAAAANSUhEUgAAAZUAAABMCAYAAAClHSpoAAAgAElEQVR4Xu1dB5xdRdU/u+k9m143m7KpEEKQKr2DCgJBWqQrJEAoiop+CIKfAiJI78KngIQuSJWOIj2BSBeyoaRnE9Lr7vf/n5lz37y3r9y3+zb8MPfqkt337p07c+b0NmX1uCS5EggkEEggkEAggUAJIFCWCJUSQDEZIoFAAoEEAgkEFAKJUEkQIYFAAoEEAgkESgaBRKiUDJTJQAkEEggkEEggkAiVBAcSCCQQSCCQQKBkEEiESslAmQyUQCCBQAKBBAKJUElwIIFAAoEEAgkESgaBRKiUDJTJQAkEEggkEEggkAiVBAcSCCQQSCCQQKBkEEiESslAmQyUQCCBQAKBBAKJUElwIIFAAoEEAgkESgaBRKiUDJTJQAkEEggkEEggkAiVBAcSCCQQSCCQQKBkEEiESslAmQyUQCCBQAKBBAKJUElwIIFAAoEEAgkESgaBRKiUDJTJQAkEEggkEEggkAiVBAcSCCQQSCCQQKBkEGh2oWJngJWVlUldnvPAyrAk3hPeX7JVJgNt0hAgThlulfpEOuItrwR3mxfFwj3kmxrsY/iBbYrtTbJHzbs5GaM3v1AhwREJPGHnW12cezYqdJKXJRCIAYENdfXAb5HycvwkilEMiMW/JVMp3VAn0hJwphAv5lqPPeIT5fiPKQDFjlHM+zble5tVqKiQAHQ3gOBaYDdfnb9C7v1ilbRqUS4bIpyol3IgyqTBHWRApzawZtzGm/a3KW9OsvbSQMCUldXr6uTC95aoglNnSBbzFeVkSmBkFa3LpW/bctm8Q0vp0baVVLQpl3atW0SjrAeyA73TLJcEl2MC2d/mHBrO9HACgDykHsIkJUhqV2+QBavWymuL18lzi9fIR6vqZNraDdIfwB+CPdqucyvZvXtrGdKhjXRvVy6tKYnIi3QfU8I/ETDF7U2cu5tVqHACdXV1QI8yWYPN7HDrxyLTFoi0a5myX7nXK9eLHFAl9fv0k/VAnhZl3HiHBMmVQKCpECAOlsOMmLd8nfQ5bxqQElyqSE03bQ7G2zq1EunXUQQK0dWD28tRAzpK17bAbc+8Iq2YzLGpi9hEnlfLhNYE/qfCXxVSFS+yaNUGuXnWUvnZBytE/vOlyLxVIuuhkea7umKPKjvL/iM6yjlDOsqOvTvo3eqK92iQCJbSIlezChUiBTWDlsCKBz9bKgdd9aGjLhJ06AMF0UuX1vLFaaOlX5dWEEROm0jM09Ju9qY6mlkq81esl94XvtV0oWKAJMcjU1u3QQRWi/RrJ+O26i6Pju8ufSFw4BSTenxN4WLonuB0DCwEsJwq6njAclggx01bJPf+Y6HI58sBc8C7NeDdMoaoDveoexuR0T3kX7t2l+28cKFbrEXiEouxKfFvaTahohoH/69aBwjr/s9Enp8j0h6aHJULwwdSGzWRVetkwpFD5J5te6l1Y8SXEGH8zUzuzA6BgkJFteMYDCoc3p5RzkfVFz9rYHHz6tFWjtu3n1w/rru6XTYAn1sw4IIriRvm3qNQVtNdTob/o7dq5conwTfmrXSSuQ1cjQZvB9Dce5e5R+uoBEAgkQeN7yn/3r2njOnWThXfJNZSOu7RfELFCAj/frh4tYy89L2UqZpJwOo0BVX26SCrzhglbbwGkgiU0m30pjxSSYWKCREC1DwvIfMi49sAxgXtmozr3e/0l1Hd24GXpcdaEtzOjpHrwQfo2fhkyVoZ+tDnIm/CXU5ToqUXJoRvprDQz/znHFbdHIGwDwWPCiTcjJiM9Gwr/3PgQLlwbDcV9qrf+kSLZH8azzGaRaikAvQkpHIpe3y2yOOwVNo4f3OaduF9qLqj0OguOG6YnDumG4iQ2p3THpMNbvwGJ0+mrIOs7i/inWWT0FeVeUV+K8+4mHVClxcd/QzQt8LDmcJFkRY/jBX2aS9PHjNY9urfUS0WMq3Eh58CsmV38RPN7IIAeXHuctn5/2pEvlgGq6J1yndovMKUUrodKby5FxQ6VEa5X/x8vYvN6B5RKIXCiC+j4cj7sJ/VB1TKh7v1jUoekgy+pnGNkgsVUwrMhTV/xQbpc8W7IotWgwCxk0rEJET8EmbgEAHgApNxPWT194dopgdCdRpgTa4EAk2BQEFLZTWY/0595dhB7WQBOFuHAOeIph5pZSWEwqMrwYiWgvt9CXz+HAHj+XDLkKG18hlgdr9py2sxdufW8vQPq2V3BPVDwdKUNf03POsECoUs5TQsFMD9+TnLZddbPhJZuNYl9FBgW32bBacoDLgxfRF0H9RJxvZvI9t0aCGbtW8hS/HVe8vXy1+WAO6fYn8+g2BasgYKLWIwoXBRweL5EPnO/pVSB5elsaVEkW08hpVcqJAAiQNU5lphEw99ZYHc+5dPEMgE0dUFgRQE5uVLII5eNFddDIa/PnbaCNlnQCd4EZy1EmeDM/PZHTNoeBXpOc8+BgYJtRldgTebqchmXhpTKjIYaIyQWSrZ1sIxCZuQMO29lpLJOWkNRZZVcD6hqR8Wl/F9ptiRDsv9e/LtQ/hOy9oJPRIORqk8jY2pDeYVKtRZvlwj18DtOnl4RWxK4pgzFq2SB+evlvOehYvmY2QjcVMoXGzDIsECTtetjcyYNBw+/LaaHttCtW3HUONeaUWcAK4aSH6vMuGroxdw5dh4uXCkMXirU2IpgS92zoW7Rg9cAC0U4vK/Ac/Nb/iPyAIIano1NPbqF8gHKEyIVMO7yjW795JvwV0+CKnDua51GPi1hatk0ofL5O1n4C1ZAuHROvCWGNA4KATL+O8Nljd27JPXS1LM2kIrzODhQ82RnLT9D+nR+ElcvAjvy0eHgJ5Y8rvDj3S+1JT3hnMouVDhourgRiDTWLq2TrreCK2DBEckMfMVEue3Jw6Tc54BMf5niTNRGdHX9GIImt0HSP13B6o5SpxSmVMM9TVmN77Wz5gPp3GLMOS3UeLA2pDXcVIntiJBFKMGxOoFFJGDacd5d7GrzCtU+PKla+XnJw+XX8HtuhpaQRtK0owrtUp4TPAdylMinOQz582olUse+QKWC9JcVcMORDnhsQqa82bdZM1xQ9XFw0sVb+B9LtQOmZLB1xQv0le+y1JmXXpu+lUMjEPMipPPUEwigsYxPJjWAobt/giB8u7iFPwM6AQUrUnEQH51wED5+eiKCIbEI8sQt9ttTGc8utXPgmVZ9ff5Ii8h6F9uLjG6yDx0lHHVyTWwKKlcWPBeR2gC77FYDYc3d36ufTOaKHa/cuFJ3AzaXLRYrNJj6yq5UGE6MP9HpL8eueSTr/3ACw3dHfhAgRwwWdecOlImIbPjj7dB6HSA1RKpXYA+zNiaM0dLZZc23ltGV1j+Kwy0zV62Th5CtkiHIOXQpbozTdFRWQviEP/Fxya93d8ONYlI/Jw4X67pje7v5cCOHbu0l76dWzqhZ/fg/rkwux+A+d4RfnZmSfPZdbinLzJW9oZWxUyguERHONJCIDE8uXCNuu7tXUxi6Q2udgCsuUKWykOfL5N5a+oaPL9vzzYysHNbTd/mPEOEZ5Hq03A/zFi2Xk5H/cW2vTookaUThWM3fD+ts7AwbQ2KDP8JbfMDpPC+D5h8gff3x3yrO7aUqnYtZLtu7aUH9tiuzOybphJyJqYUtlTWyvmnjJDzIFTWYTG0sBuOwU88ByQeewvSMQvHeN6Dpj36HsQO3wdjjJQo3kskoja8QfY8fLD8ffte3g2GeKNpTRkvDPEkhI/d9jbg+yrqbmYBxh/DxdwOuDUcLqBKwHWrTm1leAVoyl/WHkmtQ78M54F2dPrc7OUoHtwgrYNlr8J+j+7YCnUd7QOLVncmLyG68R2cSA9P0Orw9MPP1uCrPsCFveG6agP85hwYd93+H3Pl5btnpWeHchwTKNUVMuPwgbIZkh4U53yqtjHOdKvAzdMsZv5luHvIq/Pl/vs+dfzGSXW3HrOEMP6cKSOldwekhFM5xtxCYWowI495dOEKaUVl2F9rMVRfrG0v0Hoby/pzE9Q7GNN7c/Eq+RD/TgdtsXZvBGhiMLLRdkMW2oDA6spMddYVFRBu2WjxNdDyU6DlNzHfT0CXxIpR8BoNAh3u2q21bNOrvbRzhUB6hcWh5nUq9N7oYf9LSYWK21jHbDiRMmoeMxY5k9OsFCDvXodXyZM79Jb3a1fJqOsgVCzeYmxzzQYZdGCl1CB4pumYnhjyLY4xHOIJ/bKXg6jPugHjMnUwUBgj/5px53z0keJ5KZgR9kvXy+SJQ+Sa8T3UD8yP7L03wSL74VXvw4eO9/rsUg0Y9mon8yaNkF6owrZCvMyNyPx7Hay5VkDMHyD75ea7alxvCruAHByz/uzNdDzCmwLILv0IsyJBlF3yb7gToD0znmUXxp4M5nb1lt0R54RmjrHnI6h84vRF8vDLqAVYCh80KpRl5To5YuIwuXPbntAFgJBeKLphHBCV7vHu5ZjTn2uWyuQ3YZXOhB8bzwosVU3hNLubsQdyLjLcShSjje0ipw/rAgJu2aDnW1zhWwiO/L4UQiV8T8pKC9yevh5rCbKKKv4Md++/a9M1bsKLsKhoI++fMkqqUZTHfXLMzikxNleFrnddWZ0XP3tp3gr55nTAF10Boj0ifnFcPs89Jp60we89OsgegO+lIzrJuJ7tdWxVVPgaz0uNQX7jn/PkzQfBaIPOAOq/BqObefIwGQTlzrnsKARzQ1zhjK/JEJnBNRgup5pHkcEVjgvali1AOxMHq4XB6b6L7NDN/oC46yoikx9f2QhGo4UyqkKWwMLrAuXMEngMPgarzFlldz05AfZL7M2Ft4E3scDaw99rjw5v96mU+m/1DzL2DN/JdF16uPKY21DMbXTHhRPf+7aXL34wQvp0bKHCmHCb+ulSOep58EHGd7h+Sh8mGHCNtmdUsiCMThnXRc4fUyE9YO3aGkLcCHlgAwvF0+JnS1fLhGlL5NU38M5loOUVrKXCD7U/zlOz6bB2vpPFuv06yKXbVsj3oaSSRxldf+WWSuifJZyfm71Cdr8KVoothAhCnygKkGpQ5DgAElrjJQ9Cs3sW/k5fiazIQWsGAF5w2kjgNV1jhQP2qpWQSAGwi96rlXOuwbuhbTifTBzWE+MeIvzytXL8cdVyyzd6IubDeanVrO+94aMlcjKTEjqa5aUUBrOivcyFJtwbml/Kn57/fXSptMWYx78+X269c6YLBttFOGLM+p9truOpJRV0IFBLHp9RGJf9doYLJlsgmWOACZ1w1BC5EYKRiH/Vh4tlyr0gft6nzl0SG+6DOviDw3Hf1j0iDd60NmUcvtL5qg+XyJSn4FqgK9MuVd89YzAhzoe5FwSYZUz1bCcn7dNXrt+qh26UujJ0DP/f/IpxjE0rvVAJX6qErZYL+AXW1Rbr/hixwmHXAf+opbcMfPiELdy7Qw6qko93g++eeMOVesYUWp3ONeTwXoXJi2AQr8FdTNpQU9vvkWrCHscNvoQxVXn+TVfcjr1l9k69YV238kzZCQfDRY1l/O4dJ/wN9BxzxTo5d9JI+dXorh7P0pWXbMA3JWcFhF3na6FgzVzqaNvoEPP6+bHD5H+RxmuKivKA58AD1LrzoxK3WPcDi+bTk0fAqm4FHISi5bXqYpQOu9fik7Sqx8Eyeut+CFJFYg9Dvprp4ChcfRNK4DjgprPQU8K0jjQPuvwdeMxPboFgsqQOFSp4Fgxa54sxZkBZHvso1jUNihrXxVfx/pAuzEPD/bKkBGQKTtmzt1yOOieihlllttGZynWoWJ78xkK54VHAk4kOLiDq3xsQksGYxKZ44mGO+qoddu0t9+O9vSBwDLW/ckvF0gLLaGK+AP9l1JLFS+dd+mm8hJo4fcv/AMHsfAUIUFMAPXUoQm2QSROHyrVgNnRJmKKea4Fm6lJQXQot4uzrUL3fwFKJxYPcTdkEEee1Yq2ccEy13Ix5mVuCe8P33gh330kNhAq+7A1LBUJFLRXvcig0E3PDnPDGAvljLqHyU1gqXjtM12BU13DpqxfBUskmVI4cjDX0RCLFfLn37hq3Xo1tBTOD8DoeBam3fCO1B8qMvIa9DJpZ50cRR3gehMPLgqA2hNeK09YaCnkjRAJwhz6y/KCB0APoOnSuvxSHKwSt/N+X2lLJfJsb3+EM2wzRWr4RAvak68l0eLcxLdxAjREKwXy4f3t6y1Wt+sgEcNafCZTTUUl+5YOzRGqhcbaDshIK2TjwJWyZ3TSos7wwsUp2grJmrhVuhU6b+PsXvOO1eSkBwGlTgI3vLXUTB3mawDrzZGNyzhybjH/qrC/l8Ouwfgt4cAT+3rW1LPnRGOnMoBSuj+Herb4atMr1qTXtAeknd9ukajmmqosKlNDFWiyjSym98Gh4l1VrZpkxhsOCSjPfyIiXrZXqQ6o0zZjrcbLAAd5wU3nMLZmWCoQKUshrp4yS1xatlH1uxfrng7kbH8pUkLLxGKMJWp/f7CdLwCu7AFbOw5G+4ebyJ97xu7KnQYcPge+2gnC29GqPfg28liEdGkLznRSMIypk6Q+Hqxvf8LAYCiyZ+8v5OZ3fnRJ6C2opXwKZKQ0C4L3041GyLc1xL0PS3WR+c7kCmr0IyK06fpgWQxZanPlZKah+/W6tnHs13h/2GIsDFdP4SDiZfnVSHjcK6YnHwlL5IxitY66OVr5WQgXM4twTq2UEfPATrwCcuEdcSCaSZwgVxhrMfTcH/vJ+FHbq5mFhGmATRkz5u5ncrP8wVwOa/UV9S8xnzr2BsJZt+8qy71Vi21wMzTHbOBv31QoVvt20OiapqDuSc6d7ZDq01IhpkTvhB0H7m84YKSdUdW6QWa9WplooiOE9DaWM7iPiY1gPY3hq9Rj6Tq+R0iINGQon598p0Lyn/3CYbAH6s9RmEwK/eqdWzr8JTFazND0n4rhg9J/+bAyavbZVRcX2JRvEzaevCvIzmPsDEFRmtXuFTL41SOqRumtWyvGvLZRb/ww4ZXbaoEDburfUH1mV5vJqCjaY8Dfr4+HPl8oBbB1leB9pBlg3hO9ieEq6onmoUwSdEMwrVMizBneR2w/sKxNvr4G1gLRzS4sm4MwycCji9tXivsrk/URMoWKdE+J8i78/WLoCPrZnujvePep4j8i5by+WX1NIcv9CWuTNFBQUGKZF6Hs9nhguhXiyUx/ZcHClh0thL1HmnpRMqGjjSC4QK9zqhbny5j1gOBaA58RpyqIGZcPRQ7xWB1cH4QoAXAm30RkM6LN/kmXN8BkQzb1I9Tx4YKdIw8+lobjGlQRwudxR86VMvAsmIBCiKNcXB6C2hACoak6Ra4GqACZEf2iPNvIuMoVYJW2b/LUSKpws6WOvfmB4EAistTDXI9dvyOeR8ajvD5PbNaaSshZXQVh0pEBhc1ArTjMBQXcnmR2DjpWd4O5s61KlEKwXdJMVNAR0yoZH6kgQ4Tm4W3Y7bLA8g7ROha3X8IvVSjORvLktFXuf+bjNGn0AfaoOuQzuUI0pekbi/GSAf3+p2x9WO/+mgkVCBxN3ln657PevefL4VDAmWo/EPYMT4UwmQTztjzoNuFsEyoESE+J98hl6Y7GlCeknqp3x+MsMNKTjrjmp2mVPKRNzgnsRhHpPWhYI2qel3WJChxxaJfdu1yuqJcnF2E3h0LgSY4tzgVumVHqm+sTpI7F00rOj11Z3QbN+GRYS/fu0IIy5Ynn/PGuUbI9AsimUxbi8cs3R8W3XWUwF/58+cXgcpRoTJE4hevbHo2WXvh0jV7I+6a3oBpYKv1wP+HaHwkzYcu3mztO4IsakgOnRTt1ruocsqaDg4aJJD3wu4n/4nTAjL9oBFtPhiPOQX3LmdMfxKcCQbu+l4Etdfs9aQMZOiQtEKI7lfczVXYEr7aQjlL/ljJUqniC+Qw8G50X8sufAM9/GHm2OdTS2pqokQiUMGC1eXSfdL8cCEYT37UUdcLDwy04aLmeOrFDkpL/fiK8WC+1xA4TKLCzU/K/K1LD4raCtwGx36cUOWNmYTBjUIgNcgk1ztQDxLh0ft69FEK0/NSemQUcJBviCvlYQ+D2Tq2XCgM5pKYdfO6FC7YjBXAbwiFAEE7UsIja7utKS7APkx59PIHDoqsEdnmoc7DG4vB4DM2gfxKxU6GIMZB2Nhdvggc27qV+2YxCkXQ1hMw+B0CnvLpWHqIWry8PFzCIiAIP8+IzNoPAx+6Z4LSnbbm8soWLvVk0Y4JiPQsneVJbmgMGEDJ5MBgK3/ozRLhjrl68xDjCMW+A6O/FGMHheGq+JblCGSA3+uZ27y+Zd27qYo/dtkK4W4J0P4X0nPwlGDWVNrSR19/gxQFMnIdHkerg+rXWMJQOU/Q1W0VPYW7Os+H7uKQLlG5BqGxqWmTRorhi+6QFkHB5yOYSKFjt7/PIp1csRcOeUaYnNXb5B+tJdvJj+f12sWzOZMxTJDaePSvf2FUHPuag+U/D/D1LBf3MjrBXEOzUd1IOKc9gJLrDnd0AvQs93tdYkl1AxpYE383cTEAycDewok3frLWdUtYf3rxWMsjLNCl0FXjMDQfV9XsU+vYGYJAtrCXsLLOqYjq4OQXLTvdv1dt6gQPby66s/+lKm3IA1hAKcBAvF7tojBstEuD470UPgL65hIRKmZq5YI4f/e6nUvI543QIIt+Wgx30HSd0BUHiCNcfjoKm7mixUQl8lCeKUNxfKtcx+Mf88UynZZ6eqkyyAn45EwGd4b+iD3RWBs+fvqfHmot9ZClowv9cgObcCozPmbTRW7GJz36/qiyJ12QM+aKjCzROi+iTq5KfHDJWLNu8eCcV0E/RrFFMxM9uIlIwD2szkHXrIr0d1lQqa0BkXNUvodlrxvBsZBrfIGJ6lfQ7qKK8cVYU0RddenBeFtYHRWfWOcbyNorQtbp+JqmcoEvQB202cy87Q4A8eqMWv5kduCj/ZmELFCQm4grFGxlY0CP0UmHWnMHkD30JoLv7JWLhXWiiMzGpgbVfF9RBEzKCzehcXVdfMuV+BSfwSAtsuJ5Mc/oa1KyvBzDo8AR87hYTRompNgC+sm7kIwFuMzz0rLr75B0uuIYPFuGROSKp5AQrhjj4eY8HycA4u1uYyo8oYAH8RSgP3Vbcb40DJ2x/FhY8gnXoNMwlhjc0gDjCRRBULjxp8J5jr+AmD5HUkF5gQKHVnDUuyeQtz2JKCHym3cLO4JRGodN2yue1hg6L2MYrP+SwVw2Gu2VdBV+/fX6ZjHe3D7M1o91K//P2L5bI341rqOQisDd7iswZnTxktfWDlkBYJZ66BCUJlTwHWjwHPOH/To0FHQ5BB+7Fm0Dr8MBBn1sswfnsS+Patby6WfxzYX3ZAB+cNeAfxtzHWYZOFitsDh9bEv9ZXY4PgfnJphH6FQKjxB1XKGzs3rFa1YPcnS1bLsGsyAnZEMEhU2RvFkEjxs4C9YzAGPcMDBzhj9CYmsuxf2kfEA86B6bLVz82R/5AgNOPMj89/sEHVmP+Hu/TVOWjijfdpKqJhjK9NTCVTIhNhAd8lu/SWLipM0iv4DcqEp7oLqDCwyV9oxdGUR4Cy5uShSD9F80TvusomCFQ+4z908TD1sZIZgnSLKUF7YobLbA60VEs1zgxQFtrTzO83plAxeqAeRXDu/9J8eZwdJagJG06R4bQvl1dOHSFbe2WJcKFL6izEYC5nLIZKTegKBnFdhDjYT2HpG5Mw72y4Xu6TMT7dr7vAqF6CcKGb0lyfsBqumDxSpozoGsQrHE2VXQ8aRDZflBVFBRcZj7shBZ1uyRQNhvSXytqrhaeixx/QPFYz3/AwJ0kcgwX8KfaUB/FZLPKmj5fKSdfQovFxAE6B70Mx6vVwe/8Q6eZ2b1NdoGkw8ooO8aoWsOh+M6xCeiZCLwld3VUd1ZoM05gLChVjTZj4QRCi92/TM1KsHH9Kx06n3zklew5qV/rdDPhT0Qor/wkTCNpxhwySabuk9sDqw8ruAc96aS6e4Y00Y1TTkPOPHSK/gJXJOTtFIMUVo9/wiyUhUBFp52PJZrA1Bu5NEiqmRViwT1NTb2L+N7Ucvzj69SBda84cA4ufZ0ykNKpU4My7VRQ4kLphFhH98/BD1iBbprKTZU/lz5cvxHRCd51lq52FGo3L6fYyaW+2PoNl6AtVf2ilamIEshqSHjs41tdKqDiuF7kkq6HNMMuFn63DQrTnWiAwnQbqNdm5K2VnJkCwgk3xF18q46uXK+AemQJrhwFYBvTdGOlEZMzdkjooWM54a6FcQSZqXRU84v8WbpKfgSAcE2tawH5jCxWCeB1csK3g5tDsLeJVmNJNmsDfD8OV+m3UBlg21ho8045ur4+seNIzWXaZ2Gug1H9ngBbMkYpcUV6qvsVwXj/DHzom4KYdwsm42aLE0mdX4/e9BkgdFDXP0zxdipz5dq1ccQszJ71lRcWODJYZQScMhWy09zoadLTENvVOs2U6/895GF/IA6j1b9NL6o9wbmwiBuf/o7cXyWXc+xA2XrF4GPGUEDaNYW75+IBlTRK3W/0fEyrgAgqzRakooeak7uwxKSMqn/srfBmt7V0B2+8OiBQsx7jNVnA3R/vnaY+M/18oVtyB5RAokHTpx14KcUy4TOfBYuwJt7J6AAB3pQ1m2sLTEwkVbxmqxY+MSgoV1Sc4XAZQonooKjUYqzGWSSacmyRUOJid7EgfYTsGx18xrcgJTfXJeneGNpn0DDlV0OPMd37+AoJbu14GAgiFqs/tPxYB41u3hh/Ya8FhsV8hIRJ+r0RADY6ExzRFbOS9yAI5lEFKBlAtgMn3qh+4Qr6E24vEZMQQosbXTqjY5OkGGdNd6k8Y5hHUuyT9tqWYlGv2R4Tf/h/z5OV7a4Ju08o9wXC6Sd1JwzxzpEKRf0ccX3H7sAhCuw+DunBDaEyHe8+Crf2QJaTWqYu/NXa/Q+LN2qWY70PAtFBFfbE4ZsrKlR8sltP/CKalcPeA4dqBZ7f9YJBAEZYAACAASURBVJgcM4Tpsq6K/x3EITe7CPUidqlEB3ND6vGbp4yUsVCuNP5hcbB8k1KjzxW2lrFSnUxHM6xoKgLPMdbKs0brUcgOh50Q+hR90AbR28B4l/rouZ94BtN4HpmbOyEdml5pp9C69dSTafEzMq376D6Gy41ZX/QBeh5w+5kj5UicwKihYy4f7zrhdZ8u30Dglss/4fJWNwzdTaqjFkCqYjYomrOvQfkLcJrKrGWqca9oXaHAePWPxygMjdkWtFT4bKcW8hnigv2hBFtc0IRvQ0vFa15BkkYnZM4t/ysERWQ5eSUQSPXCj0ZDx+2o8TBChIKiHe5fwyxB19rBQcJbpZ1wmu7n3+yNFO6US5sKBy/CNfS4GGswQdNYmDdJqBhD5eReQSbB9r+H2ZvCNfc7APEcALEz/LHZgj/qOvMaV6Q1QINJAyitFWSMLEf7BAa5nBCK12gyxLVIc8YvNB2jJnasaQmDxhZ0RuHVLDDLyi5oAuiR28YLq1y/dpYKqRrAfgwuBjbu1KydANtDZLI2Llx3S7q+XkeKLLONzJUD4XTG0cPkclTnZ2pi+encIbaiC1ubvAhGRO2Yc2PAEgpEHaqueRlh5h8v97cb21JxsULHk3+NOohf3ga4kdYjgndfTp00TL4HRku5THl6IgrXtCbJmCyf8anW9YhVKWwCZl4IHrbuH729UC77U00qGK5WOBK9frEFKr/J+NzUlCbIaP7KgD1+yGRtm6gc7gdrCUzKZQWlND9rtaLuTAqkRV4gcYK0UgZ0kFq425ieSwFE6iXtafz1dsDG3GRus3VZT50xQvbo56y4sD6l0Jrjfk+8Vtzjev8MmLNGh9mqtl7v0t3wkzEudu+tq7xChTcy2P3tKsAJsQwHZt2zfAzaPCcan8e9H9G6ZIeB1f4DPwYLZ49Eh4vbUYxsnlHCcSoyKg9naYAlvdjCeBOVEgjnjlt3l6c36yyjurYLgvYOT1VBMM+SB2BjBYq+GgtKUXfcHfFAJgLwYW0H8rDPHDHpqn5AmO1b9pTlyDZh7QHvd5XfDV9pyHPeO4vlwpuRb61ZKwZNxwSvQKD/tOFdgoB9Q/M/3xJSm+cKAxch66znTSCCT7IERTuUy3NIHWZKYVjJmzl+c1sqx0Obu/UvQPpsFfWNKX4kAtECG91Nlh43BEowtZtUHn7m+iz4+jkCmQOZYYKAYpQqyf2p2yBPoU/blmjpoYViMTVKZbx4viP8wJ2ZCfY3aGYMZvNiJhpcaYthRTGQHbcLQa6939hChfMwN+DxEMK33QHGGfrrSexY93OnDoeyRfxiTA9KUqZvnAORmX97oCxBsHclsoWy9SXLtW7CrRWYzt04l2TSzbCW1I+J/aalgn168cxRsiMUJ8vCNDy/7ZMlctyNvN+YGv4l90HcbBX2mnN1fAsKnk/l577/7r3F8lMmGZjrjMox4jFjEVt4C7UPlvWpPAP3a+cLustDoaKMea3cjnTeI5G1xI4m7OzTFCaXjWZtDlrAy3ZS1q/NWA6DYgM7SD0KNcPU2rzZX0xKgqvwClTUk085nhbfVW8uOXWDUoELlWt1Q2IPvtlH6idAuHu3o0MR3E8XJ7Nntbuz569Gi9rdGZ+RhwztLONHd5azKtshi7WTWmG8VMia5cIPsrhW8/HW8LtGCxWdiJdHXyDAVHk5KreZQRH5AR2AJx8zTK7YAt1fsXBngWU3Y+k+I6Ithi+xH4OFzJe3Q70UcgAMurzWo7txY0zilPnqCEphfGcNNBSk8oVZNn5D/gDXxOnI6Q97jxkhhQBsfqHi27Qwk8Yua9PSGKGigVBoUyxCQ2bKajAaNvbLtjZ+Zmmn2p+JfdpqkXpoAo64S2RHUV1U0BgX8+w+muzU7ujzt4JTuh4YR0MXAsbhzBIsdmi7f2MKFUcS9Ur/bLMzGK6JmvuAZ6zbsaMfqD0icP/ZWZuhiWBLLevROBT7UbF2iBF+juPHEh4TYcWBxQKBW0trgfum++WUO/5cBKFtgX+rt+MtFHJtr4TX4TNkIlnwVzdB5EbQxYlD2LYFrmPSkZ+PFqregXW+Do3f0sjp/oJV++Lk4fJN1JtY6rIJsReRSbjzJXD3hTFU4hPqlSajwJi96YzWS5795T0Pn4JnVdFTwdqe0A1HSwWtZOqOHRo/+4v7in1+GcroNiwwJY8xU6XAvqmQoAcF96kgYtr+I17RUp8hLrqst4DLGm1unIfHhQ4Y5L//s6VyCBOduNeEP5+JXDPBy4ls5KVU4KBQjB3fVR4a2xUJNqgnwxWlLHs8aYwwb5RQMY3fkGTU83PlfVbPWn6796Myjbj+9NHFkoFMeHm+3DcV2nmUQQboEUjQkB4Fgu47gHUTqa65hRYe+kNto8t5GuUTsK7SusniPUCmCUjbvAfphNYaopDpWtD91asten+h8ylcDXHatHC+xpSiNi1humBThIpHziOQzXMHMlMihpbDZW0W5D9xGt+OrD5m0zwNwvptJVcJCyaL3m08QMFiyfd8ngBFttCHpwyX6gp3FK+1i2/M8BtTqJDMncZZps0629K9w95P7YKaHsILgrj+nM2VOURZPKzZmEllKiOlm/cbY2kMALhXdhyvPQ8l70xUal+GPk8G31RsBZ120WTyKab4m2Lnmb3swWMpEIDGlLRjixozZTIHRXr9L0V6MF2X9EbwnbQ4yQTRFSN0H3MpfPRzdGWovAjPkIHbM4qf+HtLBPaPhuJjUgsfF6LzuKBx7knnVrsd2v3RzFZTQe6Rmi+lZYYC1fr9+qcpsXndXyQmCJOZcGtWoYbIpS3HTzIxumet8A7/nC8v3wlrsXOblIJBoYUuDPU4byqECy1SCqIL0EnkPLZcovuR1qL67QwqqlF4Nyylh+N1uhEsxty+t8xFjzjyKFOknfJdnDeIb2uUUHESjUH3Mi2i6c3meV8EWo3eQA0W0g9WikpPfVuBbee6yVxqobX+G3EVczLycy6e/uU9kc3gi3PinAypAtBLXctSOw6N+W5Tl5IPbNn4dAtp+nK/yNdYKGhV0FLRXk/tooaScYQKoWSpmwehN9dftbK6RJYK1wrkPAk9vdjE0QWJc2+OEd8zs5fJHldin9WS80zDNGl1hxTa3EJ7H3AP4k7XNjIT2VFKnIECEZdxhPdtTKFCdNOaHuDcx0iTH06GtZJup0AKUzBvi55ah6FKWl3ILsZQ9nto7bQOQqHCAflsKHQbB4T0pwDTc9Hd4gK0ATH4cgcUVvi3BnMfcimEHP1P5nPXhonowgv3Tj8wIvIA51Vh0B3xINKUBYsVEHVy1tFD5VLU1Rjj4ySs8n4V4NCe2V9wg0UKpJuEplzP/vHmPubj3bNNRDG+2yyCeiZ/0LqicskGjKElyPfAKrh28gg5GWnNivHelZS/9xf4B+IXs9DZWeOwvo4k7nZxbpaKvidS0Z+5EwoJLQojDUpyxKbrz6ainmL4oTLwMmqNtn8SSRnMZrMgdqi0GXxNMeTfvG+N6w/34sQq9B9lfziXINMYQd4ooRJqV79ACuJv2HMmdCF5oajqDOtMikUGAsF62NiOeCRlIdYnZ7qKa+8GzLnwSMqqNujMxBuRj34SDw5Tdcm7AizTC1XG6xAQdScquvztQpI6hIU2lGSALa3QDQP1bisLEKjsEcNSMSuQWi4LxIY8C/fJAxAqYRCxqZYKIsM/hFC5AZ2W9VCqPNqUaZivIxFjG/rLl4cM0m8OhbG1hIhLQfnu48aiY+p/4PMfCkvFOsM2duiNIVRs35RpYvrEIdaoPDaV8RRvpZA7KK6tkzOOrYaVAPcKPjLGXEbl7APWSwTuL3VfeZdFsXRUAMY/QXrqxWxD7y1B51JJaablU+F+CWtcyIhgfVwJt+Sp1a6GRHkTZZ71OdO1OoFCxaAW2VMViCcZfNJTWOHif3aefHIfhJFlXuka8TwE2Baoy5jOkxjVqjBvTuOBEHosyJN43kt/0utSuu35XnMN4le47WbDPcnOzqEimL9NC/apoq1MR3KPZuoRDxQ+hedssOczzLQsY5yRcMGxA86VhR92GhhaIfWw4EN8yyzC5neaSfsG6o3QE0yPU2ZTUVqrprCYQmjMmVMkHUOgfARv0BDraNEIwVK0UDFJT0xSAJBBI20yrdjRqQQO21wcqLhLpWkwhsczZ1Kvk+3QPuFfKKR01pLbtFwbp0yfSImN4uFT25Jw2fuGADYtkGY6Dg6bfUI1KlZTtTCcRCGEYP8ddj1NK34MBQBNVvQJ+wJ1NtTu4lgq0ZhESGZGveBTNE1jaapQgbBPt1RyI71pWx/hcKHhTLu2/kI2F3LFzdG2HudHOA5ZmIDyIgPxha4HIPW8nXuh1Uv8M2hyjbsxhIq924K6bJfS+3JYHiToMM5IBgEt/CMIzGHIxOH9ZGZqqfy5xrXrCC0VKmZok8MAq/pEVREqjpwa3u0k2fM7dke2P13JrkLbka13DYFefs9OvGxhEla8U5Xesa/UIVhsFs4bOK9na7ZZsloY0j3ru/aF1Y+4XVibYnOxpIDH0NJlf8YCmLURxh98FXkNOv5WQkmztPZCSl4hyNj6lHEzbhG5wP2T5hHZCeepYI0qDwATi+nkDdT77LypYPqHos2MeUYKzcm+txi1ljGR7l/yGZG234FbkPMwvhfCJNOqZx+2a3H8wC8+hFuVCUnsDUfGbT3ljFfzX0pA1sdsj2SAIyqd0k4lw+NG3HUULVQ4sNabANr3oCnZYVcCIXwxtL40hlSOO7novsCFpeoRtIAlyLFnPxsTKpljmiQn8Nnk8jME5CopUNiHyTIkOFcyaJwf/vbJ1eCNYRM1XUzBqWphEe6if/YG9OA5+QowElQNRz5wn+kzE0H1qs6tI397LjA5jcWBURkTkxaQvaMtL1IU6c5TaUygnmMUIVR0r7G2WlicPViYN9M0aQ8buAmuxNkTpyGpobmuUjAS4mtz1akYrpH2SdTKsB4GU+C56FFRJ4kWP8hskl1Qf4M2NA53nW6jQoW9t/iMuWV5A12+uL9+QmVzgbeBNW7WqfbkI82w+aDFHsnxYHHP/fFYtHnBOalYwES4k+/4E3AjaiBLS0Xk4dNHyLe0b5yLf4Zp+Fwz4aX1bazjQZfk1LkrZtGBwSHbqU4Lj51strqKQspeCCy+yySxMfrHIcz2Y4Ce7r1ImPlJ4V03gB+woj8zrprXUvFJMAd+f6g8gJhsMd0AzI1OnWEuTvLsp7Vb7Erg42uW/bUrChoPhLB2HN9n03q3nuKT866YHHJeV0erxP/H4B47djqauk5HVwxYamkKg24KLYVymYZyg3FIroijBGciZlFCJWLURgSqWWWcwdBsqO8H5qJ5cqE/fTE8ZyFEWv5uFfArcf5uJwZMLUXPYjW0IrBpU0+plu8NZJNIV6/hNiaefCRMiJd0Id2NE94O42FHejiYCSR8CQ1z6lkjZQK0F95v7rWQMEJz1iyrK9Au4wweIaDpqIGA24iWitPsfCeN+8D0nsNPWj4/EBP90NaiQNQQ0Gl38RFBmTEFc/gIXSoxXQeF3tRclkro0qHwNdfFD1B/cTPTiMNiNALE+cXk0VOrZT80JU01VnUGyHVoAHkKlYhQgfAZRdMguMcgbTti0IUWHXxv8CV7CtUkY9LpDNjFVBgK1Iw0TWiBgAyTZoAQU3DW0R/gvktLf6WFpW4U7KalrAdFw2lTDlzS16CB5qlk8OY9MEnLf5FSPf7gQdriiWtX54dnnMou8yixJkzccPSsuKr/WWgDU3Ut3scuvZYp5TIOXAo35r4OmXGmoIdp8nmFirrtALghnWX1pOE+/dslbeSaaza611Tr630be2vIySFQonH+SSPllzg0zVz/5qLnHmeqwKGrUWVFcJwHj6Pe4gFYQkylDht/cqJA5EOgxNyD7uSO9gsr12mki0XFIn8jTGvHoAEhbgzS/1w3Yq9y6aS8WmHnaBRBANGt9iw1o6j7JrkMkdbqLIb6c+hT5mnkN/UavzKmB8kMQRzs6aXeBj9XzPMUaBVXMwOG2pRnYsVqxpZ2+wysoD0ZbOVpf7bLqo55k/J7g9I0n2zvsSaKKygICV8IqjRtggDaiELFvc5V1E8Bs7zqzhqn2RkxazBQ5A74YVlXYM0C40kVO6PcIW1mgakRYrH7kYlupRYqacLEu1cd4ZXJTxAg/R0TK9SdE9AEf6ebFW3M63FmTLRWzyDJuObAmu7HDCq2J3dsKJWgciAyofbs53rPqYYah9CtUDilwUbjeqmfLRHFKayOgU+Ha2s8u45j6o6j40u6wJjVddwwmQbGPJ5t15WL+PmCMe8+oUqeRiV3NqWPdzqu41rQcyVagIgD6aLYLD/lF7wRPOBbGO9vaL9v+EjFLJ/VYvPnIFZBTm+CHmF+xyy4gjK6kKcmJfdPGS4HaSdy5xYM8S9/RT1BQMGyQc6FK/0ClEAwZZ+ngbrhc++bKcCrgDcdWXPyKdxUUSKRZ9HAsenw0GyBzEHHc9Izy8x9ZkIwJVRT1osrUXLx5QWwXHrxXUynDi0iKgX7ONclO75bXVImXeX6u2hLJaq6fZwHCGFzqJVr/r3bfAaWXkagqotvbRC3GC5zgjSLmQc/6hVI0iepKZke6wGMzboLh+gcBkZmGl/IhMzM/SZSI19imp02S/REbhrJAci+2R1nFbAbLj4zqR8beJ4hWGD2rYVrZNw1ILBl2JQooyqlod6OU+yOYkEXxL8jitSbuKq1GMgQsIxVzc+yDbnv4OsW5x7YiEIl1DlYjzTwSrYqZwNInznHKVG7Q0xq7g+GaxPIiJF4tDDG5bmE2wfgi+0Rx/0Ebbh5KmF4kmVThYlBN69Q4VSguf4SQvF8ZEJZy5RcOGAamPI61f50YxA62SBbIg205hHgqjMBjHO6ffNu1k/RaXZAZvsObxZz7BYNguOOtAiyO+GrP4IV+GwvxPG9chQKBt0vWtt4xNoQ8bP74EI9pD/SUTmY3kKGlE2/NVeK+07vY8NFpKu6kxk5sIt5zTxjjJz+3hJ5iF0A9EwePEOTs3ML+WjKGBnqk2kyu+JyiJTXw9WnsWv1ODI4umSYPm+6rimAhB9OjV2EA766+can/EjRMMdmcX+sWSxv+QsUtCMpUMhEo1ICD1+fQCH7orAQacQuZuEGDgV4fkvFj8UXIyV+Gs6tGYcUYzvlNoX/6RPWBqF4mfbxiuI8llbuhSsD7fAILEPGXgfsQ+iWWoYmng8jXkzeonTl4ZINLAZOo70yntz6d/Aa46++S7Ts7k7obVah4nx+DgEi5sIgpLWL5grIXBic27d/Lpos+vNZOG606hIwMktLNg2GWh8CSpqWyY2nFuC1CktfvBB+2l/ySE8LlBoNsdJ/e3QcRltr91FczS81fUfTDutcW/gynKeDc7lZnYvK4rROx7yJFNC9jdx39GAcOsbNz359jkyUgU9AYLMXkR3yk+mL24hCxWZpWttmyEZ750FkBVm2H28wLXxsd5nzvSpNA7X2LiHbst+NHxLyb8EMH3cnxoOV9zDckN+mG9K3vI+njRdGqcKWyhq5EIkU/wO3R/pRxoXHZqzpErhvLn4KbuAaxh7oAsqwUKiJ4f/XwU/PFNVsSpC5PNXXz87NBixzf/hOv4/COtgPldC8gTqcCTnO1B5Rg8JxQ/kSrteubI0OxjEIzUNrgiNyHXyz477bP0fvF6DVzPkMxFulvAaz18tRYHB3TEeGEU//tOQC4uY30LIeWZRhO5e8iTRUIEGjevoku2lY1+JQsBh/QY3a6Xv1kf/FqbBkrnEutaaonLKTrx5wZh4L/zTBQO8HmmbWHj8EsVrEirh2FiFmvKBg7y/C1BQtHDHwKuh9a2RUEc5qAfI3J0OisVUp4Pt4WuYjGT289GY8BEH+c7iY/xc0ZkqF8Tmt67sbgh3lEPPQeYFHGrj3OU+AXV7H0zlwHezMXvYIhApb8oQlC4BR9QED5YNdmXnXjO4vaxxJrUPPNb8Di7AGdTZr7PGryGrZylfPuvhEnG1veI/2CCJxYIAW90P7e95nQqhngLuDHwDlHfQVG4VW6bZRBui/gji/y8yVlbjPmkRyLvR5olK2Hl1wc+s48edsGpcxhbLHMU82dws7nnJy5KREaGp06Gs1dasushsSAzoj2WA5D+tZskp2ex+urtdAoLP9mQqKgZ5ph4JlIwuVdIViDawV367eTovzDEyVChxIdBPqiI4b2kWtsewXDglCEsIOryyQj9josBZCnspJp3J5FtbOrshIakqefOY7C1oqOJP8RPjQ/wBNcDGERKYP2Z7nvwuxxs+gNb64aJ389kPsE9uUs0aL+2SthYyQuX4KFLZBR7Ep26Dn6gahTNxLhZZs1/IPuGu1KaNnCoY/cOHuu/8AmYrjrMMmgelrRsdpPHcx0pPPfQLCDtXWqtJjHvsfOghnmuCwJypCILBcjTqdJeYseFUi2Z2amX92Lgi5TTfUoTHLi/te7uMpSNy4FQL6GMQVSKph48lc++LwyyUr7I6mpc+yaSljHaFwNi5MGuJViYy4EV3k/s07ye49O+h5JeXQsjlvgmwRgt2/R0+sy96BGwlCX+bzaF8/prKQAK5UUHGKZs1JI1Cq4epvzMOSKQwLWyrBuP7Quu3gDfkbasK6BweqGSxoMTyF7iH7sbZkho9vZCol/pji5bCmXburlAKhdYLsaozuBHqBdsZv210eGd9Dlbt8l7oCb4ASbM1cDS4Y/wK0zT8Xlntjeq/Fcn9x000L0iphHpGqfjgfSyHvYJbKdtD+jxjk3Dq0aopMRQsBwHcao74LGUdHXAsNJlJMvMxluwH6/rTq1VkLRAICazQzleAPdoE4rxoo5pbJWNx/RK82soRt2pWwfAEaXWCU8P5fQyy+Vp1nFHIYohsEwUR0C2CashMq1AgcImo9x5W+PXwkzLzmakyGVhfLZvnDe7S6FZ/xhxeZE33yRCAUTsp8rIPPGDw3slBxuOZqfWiiX4cst8lMJVdCN63cq8dapYt1gal8F4JzYt920hPwIphqwdRer10vv3kPjJhndrB1CGFiKatcc9cW8i/0eNs2OEY2L2XE+DKvUDFCIqz543lWzmFVzfOci/vA9ZuWbtFTs6b1e3TE8fGA6OgEaqa0rL3GlekKUibOmqAoU1En6WBFGDFmCfjI+G5y7ZD2MgKaKVFpGb6bCSYzeRZocxoYFOKeup6ojx6eBR5NOKxK7vbnfFhiSsP1egaNV+n5QX9j+i2Uu7CehHjrWYA+TxyFdl6L7hEVPNtdKSO/YhkKbGtMuT0UjZfvm+UUDc9E04QA30VGS/ixjQwXz44FrAznHNj2h3EpeA6cZeJxjBMKlTOyEVooUITehpK5OZRTZ5Hzi+wKUd6UYo7N+XCPPK/ROdCk7Ia5De0mOwxqK1vAfbcIsLubRd5UJCkQmC4e1ZB4wcT1cRzA4Am4Pvf2zV9dEpIrOj3m1QXyJ57XY50PyBPpwuoKhWRYhZw2sqN8tw9OCIVVV4G50cW+AHzmpk9Xym1PQ5CRR4YJEkwMgeuuFoWnXTEf1YdzKofZqaSgULFNN/+sFjsyfVAZnAe8b439uxOHyo9xiFCu4FwM+k+7xawjBq86RW4lHwQnkRGBkF78mdaAoMAKACMAXNCPPb0Y7/ECxUbmfrGHDnclVhGN3ecZPgkJjH7ZOWP1qFxXHeyyxQgrNZmZGso4kJ3fHr3bz4Vg47w4F5PWisdk0h6s0J5lx35y7ND2cttdWE+YSfQVCBUTLAyttkBLjb1whvpTd9U4oW3V3maRcW3UZOmyYfsNO0mSfmGuV8/j9gLVYMN1k1HAVfDScYPh2UR8RWEbz8WRD7fyChWDP+cc97I9MjNc99HvLadrLTBAnL+BO/AcuNUyM5cyNWCnOFsL+nJ5EcVrO7OBJ4/aVVdjBkPkO4gHZFhkRhTMhB9pgsqeMWSvfzkXCucochwSRv4Ia5nWCh082VxTthx3QJXrLTWBvd/CBIRo/V7gIV16GAToR7u6OKUmvsTYP9sfV8/imNipSHi4hm1i2PZFrRZPK5m+o5COmNzDy1q+qJ/VnnPwjWiM6yB+wmvxKeY8EBaKHcZlD2WDS15LhZYJlE0ZDPc2E4PontPYmscJ8hybL6ej2iq+V6nt7wstKN4LoXjYUUPkLj32A7Snq3B8ZiGsxJ5MPaZngy4vKhC23pAG21Dg4kn+yzmwRyMtTHbqtPiV8R6EBvY6fKg8iWOUrQ6wWBosKFSMmfj9lpbMKZ/hW9PrDnLhmCjM0dUInLMrqlNgs0v6uHSriIabeSYEM49ORGbILXS5qR+VG+ARBIR0xJGD5U7khTMjgiZwC1pSc6CtpaV0BkSZWxEpPD0SMzSa5cjCoE/XLBVVKnwhmx4JSzi9DzhZ7r6NHGpK2d5m2hM6wi7EqXMXIOXPHfL01dSppKbtNGsSvp7cCKTW+oR7Z7kGdWEXXnvIUMD4tcHdhKkyAM/s2CZiZHf5z8QqBHitnqfpeGT4m7NOxd3gmE1TLqIleRo1X7o54POf8Z2+6IHqGilaDC5X8kG6xu5cQc/CUtmdChLrRNqDIahVGEzS4GkCpwETNSaDhyjQUY916RFD5Ec48TEzUyjb0s2CimifbpZPmI3oBX0EM4zPObQrlxeQSrsjOi+bxh+XD0SCBbCi4kL8egH95na5D8wZXZNVUGsygGM5jbo4bQoT4mtFaxm/R195EcyTrrO4/a7ytmmhUEFdzhy0selLK+BpJtoESlc2FMu2Fs6TGXaY154HV8qT25nb1Jc7+PgMXZxnIp51PWuieMY8lWgTTkZbfCf3hkJGU7+8AOM7QrrkJjOTF96mtfA2pToYFE+DBYVK6Ib6G+IU37ka2lN4cdLYpAMOrZK/4vzpbGl4jUIAv2YTLktgHnb7PTohh91s/bvpalmFlhNtgezqMruKHVaZkmcZFI2d/RVcJgAACXlJREFUQZbniNxoIRIKlVR2k+NP3NcaHHY0+G5sNs6yiDY7H99SbQaIRHMdzPVtJCDQHD/69fny56lg3D4tUWdklspPNkvLlrLZOibggqxlFwNmzMcPO7BCQ5sE5nJt1PsrHkPN5qq4A0dHT3wQxMMgtWldpvXkArsKFc+I1gKRAc9BaI3+BlJG6Xe2FO24DKnQ7qZZKr9+q6H1WmiArBzXf8h1UPtjsRItMvS5+tPO3eX7VV30hjA2lEugpPbNCe6Uq9Efufwo4iK0vF3xiEOwQltGGJORuI6hIuN6yL/27CnbZRx8VWhOnJvR9DGvzoerBUIuU4HgXMgEIUjr0EWcr1Z5V6SgzoZfZOI/x3EYFz+P9cPtqmsnx4sDA04+xDUKE7qhvtFL3tm+u4yGl4M3uCJF33E5cEtm2/aCDSWhDM5Bz7A+yIotexoC8XF4LVwBU8pKyoVvZsWQB2CfLjmov5ytxwG7YnNLrCB0TeDzs9cQitjmScBnBlKykQnmkkV0A1J4kokvptgRfzUJCv/u1E++RN9DFpXz68Zm7hYUKqp9ew211R01CCAiQ8HMcYdxmtU0+2zf/A3TsdhGY2g1fEYBx/8DIMoguUn3Aqn1fHR/p5ozyAuHH/eCMRXKkFqxAJEB1HxCpRBR5po814teXst+6txf2YjSiJBppt/CeSgvob+RpuH6LKAol9hcLiQQag4IfO6xW2+5F0E2niPCsQ8GIT/I407DtdBsR6yi/twts5qoLivIuS3KLpiGEl3vN7U14fkj0T77DhzxyvRmZoHEvULC53IYY6kFQ7n4gyVyyTPQzubgXYQRNUJeIWLbeil8+E6knJLZvbVtBXolIUbAWSu6OWs3DsOLM29zo81FJ92+v3gzpbHFeTjzHrMOuGcU9PT5w1VXPbaLXFzdQesbHFk4S5vdCPhv3LVks1g43kNQ6A58DpbvO/ghbNX1Rcr3MOZNxpT4Ga0JWkzDusptO/eQY9Dd1ualnXNjzonzoeVAN9kXOJFzIE+mRAp2FN8z+GDjJh+faldv8cbGCxaDmcMHWv+XIg534ctIZGGNCRkv3T3m3g5R2AQq58b94T5VoMvF+O7yxriuMh7dKCJYkO96Qe7QNT9jiGOpfIaYIE995Fj3IY15wuOgf/QFVJdwmHjBF5pyZTQBN9wWO/WSh6HwDfRtnUxAm1eEdGJz1tCNC2LL35EwsvfriKVNhyK7nPAJ3sd1mXUSmZ4eNkhFvnbvXjIJZxgZDYblFYVg0oBEMNFsBlh0nyE5s3V6mqvDAM9JIiC27/gu8hgySkLp2Rh6zfaMIrXX/j9AYHfU/ZD8mRsPSTsWp5qx+ZyeL8BiRzJSX82bcjQGb8i3alO17B7920s3IgVM59VoHdGG+eKB3z+1fofrLr6FojakCV+M/jtXvAtBx0wnxnTIEKjZMksM4108vIOcOLiLdNMMEVTpa9FRuVyNKuvTnoEWkmapUJAj4w1FdGFdh60uzVK5+1OkwsA0DtMvgWw37NELbSi6NqqtfMQgqaTjZW5qZZpxNB2tJc77eLk89jH8vOwjxAAkGSCFIoK3ul4kSTwwprPsAeJm+iavdOvENqA0WGTzZWZXN2ra3MMitejIRcZALPeteys5s2cbOWVge6ns3DbKGDN8tcy3uMIk10rDOAPvYbuha2qWysXMPOO+Ap00+4q4xmBtG/yCpobnj+wgJ4NZsJU5L0vxdt0cHGLHZRahoPvGi/PkzRlwgcHVFbUi4njQjheiCtvhr7vijp+L7h3jdALajj4gPGq+XCc3oGX9JTWwwJnVRbeNBsS5rxjNGtKiZm58ZVv51ZAOsgsSGyJcozsStzWGcebvUkxlr4N2ce6LXnjh+TGMkR2DoPyszzlf3Ed3JHkA94yxDSiqN27WSSbgtMsKD8Mw8yofHllNjcG7Fi7YpxaskKNBg2tmgQ8yLsUQhZ5XgHcRh9H9eySSBm6u7oikmA6qHEZ4QUvIC67GUGBBS4WDxiGMOPc0ZoLFPFMK13js9/mXZVu3zSOX35paFxmwSzFMv+L4umPPsRlvVARU69rFWfhnthRirvNLWGw0qe2UuXBaodKQ0hgbn4rejEvOO7TBIIydNIWxhow/U1BlToSWIhXdLpnnsPgb48R04sBto9KX5zsGw3w4xi4OrMdZ4wPZbaGMhcLN1pZtj4oVfAWFCrLfZsNSYXfjsFloJnyXgwcwE8sVcubgAY7AcvLfbDhi+Jc5JmG0FDBqA8stWyp6Go54b1McnMh2T0GhEmoptN6yXeq9CazGYjcq3+RDwBEpNGkry+W8EeaPdlalXdHUnJVY0B9d0DOm67WOPg0nk834izwT/lk+ZesxD1EIw5CYsq2Zc6T2lk3rdGt3JjItgGxGmUs4KdzaP//euPeEF/9Si95baqGgIeJG3gpHLw2uUuKODR4Hh4shIG+ANnBb256VUsEKXR42R8Ulj8dhf7RC+GTzK2atusM+zsB/1YObw8p3XUWahlPZ5pYTBv7mbGfYGywcky0drsURKl+g3oXZqGFVPkFm+2a8ymCr9O15aCZNxKGHbPwm1/vivFNVxYJMMDcWFRQqxSLgV3m/aVLpSJ/pyyrdDOMSUEiUIRt2+0bh5OpkmrKRpVtV00bK1J4y1/t1tkaaBpnSPZ0fn5qHsZdu9qUZKYRBJOMChTEzDlEq2ipKqIAR5evD5ajfXXF5SVzopQSN06RDPaC53mlz+68SKnEBntyXQCCBQAKBxkCgsUKlMe/6uj6TCJWv684l804gkEBgo0MgESqFQZ4IlcIwSu5IIJBAIIGAQiARKoURIREqhWGU3JFAIIFAAoFEqMTEgUSoxARUclsCgQQCCQQSS6UwDiRCpTCMkjsSCCQQSCDgLBX2F0Qe96Xv18rZt3ySqqVgShWr/FGnEqUUB9lfmxL4EqGyKe12stYEAgkEmgQBa8F0EQ7iO+cmHsdhzTVTQmX2JFTU++JHtkra1K5EqGxqO56sN4FAAoFGQ8DqY3hC61Scg4K2kToW+xOuRnXjQHTJOBgHZbG5bSmLYBs94a/gwUSofAVAT16ZQCCBQAKB/1YIJELlv3Vnk3UlEEggUHIImPWRq2UUK/etdU5iqZQc/MmACQQSCCQQSCCwqUEgsVQ2tR1P1ptAIIFAAoFmhEAiVJoRuMnQCQQSCCQQ2NQgkAiVTW3Hk/UmEEggkECgGSGQCJVmBG4ydAKBBAIJBDY1CPw/K5x7k1fLh+YAAAAASUVORK5CYII=;" vertex="1" parent="1">
          <mxGeometry x="-1240" y="560" width="141.84" height="26.62" as="geometry" />
        </mxCell>
      </root>
    </mxGraphModel>
  </diagram>
</mxfile>
